0
SECTION
2
HEADER
9
$INSUNITS
70
4
0
ENDSEC
0
SECTION
2
TABLES
0
TABLE
2
LTYPE
0
LTYPE
72
65
70
64
2
CONTINUOUS
3
______
73
0
40
0
0
ENDTAB
0
TABLE
2
LAYER
0
ENDTAB
0
ENDSEC
0
SECTION
2
ENTITIES
0
LINE
8
0
10
160.9683569
20
-180.3726164
11
215.6593186
21
-186.7952226
0
LINE
8
0
10
160.35
20
-179.6773938
11
160.35
21
-128.4
0
LINE
8
0
10
161.05
20
-127.7
11
179
21
-127.7
0
LINE
8
0
10
179.7
20
-140.3
11
179.7
21
-123.7
0
LINE
8
0
10
179.7
20
-123.7
11
197
21
-123.7
0
LINE
8
0
10
197.7
20
-129.8
11
197.7
21
-113.2
0
LINE
8
0
10
197.7
20
-113.2
11
215
21
-113.2
0
LINE
8
0
10
215.7
20
-125.8
11
215.7
21
-109.2
0
LINE
8
0
10
215.7
20
-109.2
11
232.3
21
-109.2
0
LINE
8
0
10
232.3
20
-125.8
11
232.3
21
-109.2
0
LINE
8
0
10
233
20
-114.2
11
250.3
21
-114.2
0
LINE
8
0
10
250.3
20
-130.8
11
250.3
21
-114.2
0
LINE
8
0
10
251
20
-116.2
11
287.4
21
-116.2
0
LINE
8
0
10
288.1
20
-174.2107344
11
288.1
21
-116.9
0
LINE
8
0
10
288.1224025
20
-174.3864091
11
290.9469721
21
-185.2811029
0
LINE
8
0
10
282.7189044
20
-199.9345758
11
291.0189044
21
-185.558554
0
LINE
8
0
10
267.9609755
20
-191.4152265
11
282.1127015
21
-199.5846314
0
LINE
8
0
10
250.9139985
20
-186.8238417
11
267.792146
21
-191.3453063
0
LINE
8
0
10
215.7
20
-186.8
11
250.7328633
21
-186.8
0
ARC
8
0
10
161.05
20
-179.6773938
40
0.7
50
180
51
540
0
ARC
8
0
10
161.05
20
-128.4
40
0.7
50
90
51
450
0
ARC
8
0
10
179
20
-127
40
0.7
50
270
51
630
0
ARC
8
0
10
180.4
20
-124.4
40
0.7
50
90
51
450
0
ARC
8
0
10
197
20
-123
40
0.7
50
270
51
630
0
ARC
8
0
10
198.4
20
-113.9
40
0.7
50
90
51
450
0
ARC
8
0
10
215
20
-112.5
40
0.7
50
270
51
630
0
ARC
8
0
10
216.4
20
-109.9
40
0.7
50
90
51
450
0
ARC
8
0
10
231.6
20
-109.9
40
0.7
50
0
51
360
0
ARC
8
0
10
233
20
-113.5
40
0.7
50
180
51
540
0
ARC
8
0
10
249.6
20
-114.9
40
0.7
50
0
51
360
0
ARC
8
0
10
251
20
-115.5
40
0.7
50
180
51
540
0
ARC
8
0
10
287.4
20
-116.9
40
0.7
50
0
51
360
0
ARC
8
0
10
288.8
20
-174.2107344
40
0.7
50
180
51
540
0
ARC
8
0
10
290.2693747
20
-185.4567776
40
0.7
50
329.9999999
51
689.9999999
0
ARC
8
0
10
282.4626662
20
-198.9783933
40
0.7
50
240.0033344
51
600.0033344
0
ARC
8
0
10
267.6110108
20
-192.0214646
40
0.7
50
60.0033344
51
420.0033344
0
ARC
8
0
10
250.7328633
20
-187.5
40
0.7
50
75.0032348
51
435.0032348
0
ARC
8
0
10
215.7409617
20
-186.1
40
0.7
50
263.3021772
51
623.3021772
0
LINE
8
0
10
163
20
-179
11
177
21
-179
0
LINE
8
0
10
177
20
-179
11
177
21
-165
0
LINE
8
0
10
177
20
-165
11
163
21
-165
0
LINE
8
0
10
163
20
-165
11
163
21
-179
0
LINE
8
0
10
163
20
-161
11
177
21
-161
0
LINE
8
0
10
177
20
-161
11
177
21
-147
0
LINE
8
0
10
177
20
-147
11
163
21
-147
0
LINE
8
0
10
163
20
-147
11
163
21
-161
0
LINE
8
0
10
163
20
-143
11
177
21
-143
0
LINE
8
0
10
177
20
-143
11
177
21
-129
0
LINE
8
0
10
177
20
-129
11
163
21
-129
0
LINE
8
0
10
163
20
-129
11
163
21
-143
0
LINE
8
0
10
181
20
-175
11
195
21
-175
0
LINE
8
0
10
195
20
-175
11
195
21
-161
0
LINE
8
0
10
195
20
-161
11
181
21
-161
0
LINE
8
0
10
181
20
-161
11
181
21
-175
0
LINE
8
0
10
181
20
-157
11
195
21
-157
0
LINE
8
0
10
195
20
-157
11
195
21
-143
0
LINE
8
0
10
195
20
-143
11
181
21
-143
0
LINE
8
0
10
181
20
-143
11
181
21
-157
0
LINE
8
0
10
181
20
-139
11
195
21
-139
0
LINE
8
0
10
195
20
-139
11
195
21
-125
0
LINE
8
0
10
195
20
-125
11
181
21
-125
0
LINE
8
0
10
181
20
-125
11
181
21
-139
0
LINE
8
0
10
199
20
-182.5
11
213
21
-182.5
0
LINE
8
0
10
213
20
-182.5
11
213
21
-168.5
0
LINE
8
0
10
213
20
-168.5
11
199
21
-168.5
0
LINE
8
0
10
199
20
-168.5
11
199
21
-182.5
0
LINE
8
0
10
199
20
-164.5
11
213
21
-164.5
0
LINE
8
0
10
213
20
-164.5
11
213
21
-150.5
0
LINE
8
0
10
213
20
-150.5
11
199
21
-150.5
0
LINE
8
0
10
199
20
-150.5
11
199
21
-164.5
0
LINE
8
0
10
199
20
-146.5
11
213
21
-146.5
0
LINE
8
0
10
213
20
-146.5
11
213
21
-132.5
0
LINE
8
0
10
213
20
-132.5
11
199
21
-132.5
0
LINE
8
0
10
199
20
-132.5
11
199
21
-146.5
0
LINE
8
0
10
199
20
-128.5
11
213
21
-128.5
0
LINE
8
0
10
213
20
-128.5
11
213
21
-114.5
0
LINE
8
0
10
213
20
-114.5
11
199
21
-114.5
0
LINE
8
0
10
199
20
-114.5
11
199
21
-128.5
0
LINE
8
0
10
217
20
-160.5
11
231
21
-160.5
0
LINE
8
0
10
231
20
-160.5
11
231
21
-146.5
0
LINE
8
0
10
231
20
-146.5
11
217
21
-146.5
0
LINE
8
0
10
217
20
-146.5
11
217
21
-160.5
0
LINE
8
0
10
217
20
-142.5
11
231
21
-142.5
0
LINE
8
0
10
231
20
-142.5
11
231
21
-128.5
0
LINE
8
0
10
231
20
-128.5
11
217
21
-128.5
0
LINE
8
0
10
217
20
-128.5
11
217
21
-142.5
0
LINE
8
0
10
217
20
-124.5
11
231
21
-124.5
0
LINE
8
0
10
231
20
-124.5
11
231
21
-110.5
0
LINE
8
0
10
231
20
-110.5
11
217
21
-110.5
0
LINE
8
0
10
217
20
-110.5
11
217
21
-124.5
0
LINE
8
0
10
235
20
-165.5
11
249
21
-165.5
0
LINE
8
0
10
249
20
-165.5
11
249
21
-151.5
0
LINE
8
0
10
249
20
-151.5
11
235
21
-151.5
0
LINE
8
0
10
235
20
-151.5
11
235
21
-165.5
0
LINE
8
0
10
235
20
-147.5
11
249
21
-147.5
0
LINE
8
0
10
249
20
-147.5
11
249
21
-133.5
0
LINE
8
0
10
249
20
-133.5
11
235
21
-133.5
0
LINE
8
0
10
235
20
-133.5
11
235
21
-147.5
0
LINE
8
0
10
235
20
-129.5
11
249
21
-129.5
0
LINE
8
0
10
249
20
-129.5
11
249
21
-115.5
0
LINE
8
0
10
249
20
-115.5
11
235
21
-115.5
0
LINE
8
0
10
235
20
-115.5
11
235
21
-129.5
0
LINE
8
0
10
253
20
-167.5
11
267
21
-167.5
0
LINE
8
0
10
267
20
-167.5
11
267
21
-153.5
0
LINE
8
0
10
267
20
-153.5
11
253
21
-153.5
0
LINE
8
0
10
253
20
-153.5
11
253
21
-167.5
0
LINE
8
0
10
253
20
-149.5
11
267
21
-149.5
0
LINE
8
0
10
267
20
-149.5
11
267
21
-135.5
0
LINE
8
0
10
267
20
-135.5
11
253
21
-135.5
0
LINE
8
0
10
253
20
-135.5
11
253
21
-149.5
0
LINE
8
0
10
253
20
-131.5
11
267
21
-131.5
0
LINE
8
0
10
267
20
-131.5
11
267
21
-117.5
0
LINE
8
0
10
267
20
-117.5
11
253
21
-117.5
0
LINE
8
0
10
253
20
-117.5
11
253
21
-131.5
0
LINE
8
0
10
217
20
-185.5
11
231
21
-185.5
0
LINE
8
0
10
231
20
-185.5
11
231
21
-171.5
0
LINE
8
0
10
231
20
-171.5
11
217
21
-171.5
0
LINE
8
0
10
217
20
-171.5
11
217
21
-185.5
0
LINE
8
0
10
235
20
-185.5
11
249
21
-185.5
0
LINE
8
0
10
249
20
-185.5
11
249
21
-171.5
0
LINE
8
0
10
249
20
-171.5
11
235
21
-171.5
0
LINE
8
0
10
235
20
-171.5
11
235
21
-185.5
0
LINE
8
0
10
252.9318517
20
-186.0176381
11
266.4548133
21
-189.6411047
0
LINE
8
0
10
266.4548133
20
-189.6411047
11
270.0782799
21
-176.1181431
0
LINE
8
0
10
270.0782799
20
-176.1181431
11
256.5553183
21
-172.4946765
0
LINE
8
0
10
256.5553183
20
-172.4946765
11
252.9318517
21
-186.0176381
0
LINE
8
0
10
270.1187157
20
-191.1587427
11
282.2430713
21
-198.1587427
0
LINE
8
0
10
282.2430713
20
-198.1587427
11
289.2430713
21
-186.0343871
0
LINE
8
0
10
289.2430713
20
-186.0343871
11
277.1187157
21
-179.0343871
0
LINE
8
0
10
277.1187157
20
-179.0343871
11
270.1187157
21
-191.1587427
0
LINE
8
0
10
422.361787
20
-179
11
436.361787
21
-179
0
LINE
8
0
10
436.361787
20
-179
11
436.361787
21
-165
0
LINE
8
0
10
436.361787
20
-165
11
422.361787
21
-165
0
LINE
8
0
10
422.361787
20
-165
11
422.361787
21
-179
0
LINE
8
0
10
422.361787
20
-161
11
436.361787
21
-161
0
LINE
8
0
10
436.361787
20
-161
11
436.361787
21
-147
0
LINE
8
0
10
436.361787
20
-147
11
422.361787
21
-147
0
LINE
8
0
10
422.361787
20
-147
11
422.361787
21
-161
0
LINE
8
0
10
422.361787
20
-143
11
436.361787
21
-143
0
LINE
8
0
10
436.361787
20
-143
11
436.361787
21
-129
0
LINE
8
0
10
436.361787
20
-129
11
422.361787
21
-129
0
LINE
8
0
10
422.361787
20
-129
11
422.361787
21
-143
0
LINE
8
0
10
404.361787
20
-175
11
418.361787
21
-175
0
LINE
8
0
10
418.361787
20
-175
11
418.361787
21
-161
0
LINE
8
0
10
418.361787
20
-161
11
404.361787
21
-161
0
LINE
8
0
10
404.361787
20
-161
11
404.361787
21
-175
0
LINE
8
0
10
404.361787
20
-157
11
418.361787
21
-157
0
LINE
8
0
10
418.361787
20
-157
11
418.361787
21
-143
0
LINE
8
0
10
418.361787
20
-143
11
404.361787
21
-143
0
LINE
8
0
10
404.361787
20
-143
11
404.361787
21
-157
0
LINE
8
0
10
404.361787
20
-139
11
418.361787
21
-139
0
LINE
8
0
10
418.361787
20
-139
11
418.361787
21
-125
0
LINE
8
0
10
418.361787
20
-125
11
404.361787
21
-125
0
LINE
8
0
10
404.361787
20
-125
11
404.361787
21
-139
0
LINE
8
0
10
386.361787
20
-182.5
11
400.361787
21
-182.5
0
LINE
8
0
10
400.361787
20
-182.5
11
400.361787
21
-168.5
0
LINE
8
0
10
400.361787
20
-168.5
11
386.361787
21
-168.5
0
LINE
8
0
10
386.361787
20
-168.5
11
386.361787
21
-182.5
0
LINE
8
0
10
386.361787
20
-164.5
11
400.361787
21
-164.5
0
LINE
8
0
10
400.361787
20
-164.5
11
400.361787
21
-150.5
0
LINE
8
0
10
400.361787
20
-150.5
11
386.361787
21
-150.5
0
LINE
8
0
10
386.361787
20
-150.5
11
386.361787
21
-164.5
0
LINE
8
0
10
386.361787
20
-146.5
11
400.361787
21
-146.5
0
LINE
8
0
10
400.361787
20
-146.5
11
400.361787
21
-132.5
0
LINE
8
0
10
400.361787
20
-132.5
11
386.361787
21
-132.5
0
LINE
8
0
10
386.361787
20
-132.5
11
386.361787
21
-146.5
0
LINE
8
0
10
386.361787
20
-128.5
11
400.361787
21
-128.5
0
LINE
8
0
10
400.361787
20
-128.5
11
400.361787
21
-114.5
0
LINE
8
0
10
400.361787
20
-114.5
11
386.361787
21
-114.5
0
LINE
8
0
10
386.361787
20
-114.5
11
386.361787
21
-128.5
0
LINE
8
0
10
368.361787
20
-160.5
11
382.361787
21
-160.5
0
LINE
8
0
10
382.361787
20
-160.5
11
382.361787
21
-146.5
0
LINE
8
0
10
382.361787
20
-146.5
11
368.361787
21
-146.5
0
LINE
8
0
10
368.361787
20
-146.5
11
368.361787
21
-160.5
0
LINE
8
0
10
368.361787
20
-142.5
11
382.361787
21
-142.5
0
LINE
8
0
10
382.361787
20
-142.5
11
382.361787
21
-128.5
0
LINE
8
0
10
382.361787
20
-128.5
11
368.361787
21
-128.5
0
LINE
8
0
10
368.361787
20
-128.5
11
368.361787
21
-142.5
0
LINE
8
0
10
368.361787
20
-124.5
11
382.361787
21
-124.5
0
LINE
8
0
10
382.361787
20
-124.5
11
382.361787
21
-110.5
0
LINE
8
0
10
382.361787
20
-110.5
11
368.361787
21
-110.5
0
LINE
8
0
10
368.361787
20
-110.5
11
368.361787
21
-124.5
0
LINE
8
0
10
350.361787
20
-165.5
11
364.361787
21
-165.5
0
LINE
8
0
10
364.361787
20
-165.5
11
364.361787
21
-151.5
0
LINE
8
0
10
364.361787
20
-151.5
11
350.361787
21
-151.5
0
LINE
8
0
10
350.361787
20
-151.5
11
350.361787
21
-165.5
0
LINE
8
0
10
350.361787
20
-147.5
11
364.361787
21
-147.5
0
LINE
8
0
10
364.361787
20
-147.5
11
364.361787
21
-133.5
0
LINE
8
0
10
364.361787
20
-133.5
11
350.361787
21
-133.5
0
LINE
8
0
10
350.361787
20
-133.5
11
350.361787
21
-147.5
0
LINE
8
0
10
350.361787
20
-129.5
11
364.361787
21
-129.5
0
LINE
8
0
10
364.361787
20
-129.5
11
364.361787
21
-115.5
0
LINE
8
0
10
364.361787
20
-115.5
11
350.361787
21
-115.5
0
LINE
8
0
10
350.361787
20
-115.5
11
350.361787
21
-129.5
0
LINE
8
0
10
332.361787
20
-167.5
11
346.361787
21
-167.5
0
LINE
8
0
10
346.361787
20
-167.5
11
346.361787
21
-153.5
0
LINE
8
0
10
346.361787
20
-153.5
11
332.361787
21
-153.5
0
LINE
8
0
10
332.361787
20
-153.5
11
332.361787
21
-167.5
0
LINE
8
0
10
332.361787
20
-149.5
11
346.361787
21
-149.5
0
LINE
8
0
10
346.361787
20
-149.5
11
346.361787
21
-135.5
0
LINE
8
0
10
346.361787
20
-135.5
11
332.361787
21
-135.5
0
LINE
8
0
10
332.361787
20
-135.5
11
332.361787
21
-149.5
0
LINE
8
0
10
332.361787
20
-131.5
11
346.361787
21
-131.5
0
LINE
8
0
10
346.361787
20
-131.5
11
346.361787
21
-117.5
0
LINE
8
0
10
346.361787
20
-117.5
11
332.361787
21
-117.5
0
LINE
8
0
10
332.361787
20
-117.5
11
332.361787
21
-131.5
0
LINE
8
0
10
368.361787
20
-185.5
11
382.361787
21
-185.5
0
LINE
8
0
10
382.361787
20
-185.5
11
382.361787
21
-171.5
0
LINE
8
0
10
382.361787
20
-171.5
11
368.361787
21
-171.5
0
LINE
8
0
10
368.361787
20
-171.5
11
368.361787
21
-185.5
0
LINE
8
0
10
350.361787
20
-185.5
11
364.361787
21
-185.5
0
LINE
8
0
10
364.361787
20
-185.5
11
364.361787
21
-171.5
0
LINE
8
0
10
364.361787
20
-171.5
11
350.361787
21
-171.5
0
LINE
8
0
10
350.361787
20
-171.5
11
350.361787
21
-185.5
0
LINE
8
0
10
332.9069737
20
-189.6411047
11
346.4299353
21
-186.0176381
0
LINE
8
0
10
346.4299353
20
-186.0176381
11
342.8064687
21
-172.4946765
0
LINE
8
0
10
342.8064687
20
-172.4946765
11
329.2835071
21
-176.1181431
0
LINE
8
0
10
329.2835071
20
-176.1181431
11
332.9069737
21
-189.6411047
0
LINE
8
0
10
317.1187157
20
-198.1587427
11
329.2430713
21
-191.1587427
0
LINE
8
0
10
329.2430713
20
-191.1587427
11
322.2430713
21
-179.0343871
0
LINE
8
0
10
322.2430713
20
-179.0343871
11
310.1187157
21
-186.0343871
0
LINE
8
0
10
310.1187157
20
-186.0343871
11
317.1187157
21
-198.1587427
0
LINE
8
0
10
161.7
20
-180.3
11
178.3
21
-180.3
0
LINE
8
0
10
178.3
20
-180.3
11
178.3
21
-163.7
0
LINE
8
0
10
178.3
20
-163.7
11
161.7
21
-163.7
0
LINE
8
0
10
161.7
20
-163.7
11
161.7
21
-180.3
0
LINE
8
0
10
161.7
20
-162.3
11
178.3
21
-162.3
0
LINE
8
0
10
178.3
20
-162.3
11
178.3
21
-145.7
0
LINE
8
0
10
178.3
20
-145.7
11
161.7
21
-145.7
0
LINE
8
0
10
161.7
20
-145.7
11
161.7
21
-162.3
0
LINE
8
0
10
161.7
20
-144.3
11
178.3
21
-144.3
0
LINE
8
0
10
178.3
20
-144.3
11
178.3
21
-127.7
0
LINE
8
0
10
161.7
20
-127.7
11
161.7
21
-144.3
0
LINE
8
0
10
179.7
20
-176.3
11
196.3
21
-176.3
0
LINE
8
0
10
196.3
20
-176.3
11
196.3
21
-159.7
0
LINE
8
0
10
196.3
20
-159.7
11
179.7
21
-159.7
0
LINE
8
0
10
179.7
20
-159.7
11
179.7
21
-176.3
0
LINE
8
0
10
179.7
20
-158.3
11
196.3
21
-158.3
0
LINE
8
0
10
196.3
20
-158.3
11
196.3
21
-141.7
0
LINE
8
0
10
196.3
20
-141.7
11
179.7
21
-141.7
0
LINE
8
0
10
179.7
20
-141.7
11
179.7
21
-158.3
0
LINE
8
0
10
179.7
20
-140.3
11
196.3
21
-140.3
0
LINE
8
0
10
196.3
20
-140.3
11
196.3
21
-123.7
0
LINE
8
0
10
197.7
20
-183.8
11
214.3
21
-183.8
0
LINE
8
0
10
214.3
20
-183.8
11
214.3
21
-167.2
0
LINE
8
0
10
214.3
20
-167.2
11
197.7
21
-167.2
0
LINE
8
0
10
197.7
20
-167.2
11
197.7
21
-183.8
0
LINE
8
0
10
197.7
20
-165.8
11
214.3
21
-165.8
0
LINE
8
0
10
214.3
20
-165.8
11
214.3
21
-149.2
0
LINE
8
0
10
214.3
20
-149.2
11
197.7
21
-149.2
0
LINE
8
0
10
197.7
20
-149.2
11
197.7
21
-165.8
0
LINE
8
0
10
197.7
20
-147.8
11
214.3
21
-147.8
0
LINE
8
0
10
214.3
20
-147.8
11
214.3
21
-131.2
0
LINE
8
0
10
214.3
20
-131.2
11
197.7
21
-131.2
0
LINE
8
0
10
197.7
20
-131.2
11
197.7
21
-147.8
0
LINE
8
0
10
197.7
20
-129.8
11
214.3
21
-129.8
0
LINE
8
0
10
214.3
20
-129.8
11
214.3
21
-113.2
0
LINE
8
0
10
215.7
20
-161.8
11
232.3
21
-161.8
0
LINE
8
0
10
232.3
20
-161.8
11
232.3
21
-145.2
0
LINE
8
0
10
232.3
20
-145.2
11
215.7
21
-145.2
0
LINE
8
0
10
215.7
20
-145.2
11
215.7
21
-161.8
0
LINE
8
0
10
215.7
20
-143.8
11
232.3
21
-143.8
0
LINE
8
0
10
232.3
20
-143.8
11
232.3
21
-127.2
0
LINE
8
0
10
232.3
20
-127.2
11
215.7
21
-127.2
0
LINE
8
0
10
215.7
20
-127.2
11
215.7
21
-143.8
0
LINE
8
0
10
215.7
20
-125.8
11
232.3
21
-125.8
0
LINE
8
0
10
233.7
20
-166.8
11
250.3
21
-166.8
0
LINE
8
0
10
250.3
20
-166.8
11
250.3
21
-150.2
0
LINE
8
0
10
250.3
20
-150.2
11
233.7
21
-150.2
0
LINE
8
0
10
233.7
20
-150.2
11
233.7
21
-166.8
0
LINE
8
0
10
233.7
20
-148.8
11
250.3
21
-148.8
0
LINE
8
0
10
250.3
20
-148.8
11
250.3
21
-132.2
0
LINE
8
0
10
250.3
20
-132.2
11
233.7
21
-132.2
0
LINE
8
0
10
233.7
20
-132.2
11
233.7
21
-148.8
0
LINE
8
0
10
233.7
20
-130.8
11
250.3
21
-130.8
0
LINE
8
0
10
233.7
20
-114.2
11
233.7
21
-130.8
0
LINE
8
0
10
251.7
20
-168.8
11
268.3
21
-168.8
0
LINE
8
0
10
268.3
20
-168.8
11
268.3
21
-152.2
0
LINE
8
0
10
268.3
20
-152.2
11
251.7
21
-152.2
0
LINE
8
0
10
251.7
20
-152.2
11
251.7
21
-168.8
0
LINE
8
0
10
251.7
20
-150.8
11
268.3
21
-150.8
0
LINE
8
0
10
268.3
20
-150.8
11
268.3
21
-134.2
0
LINE
8
0
10
268.3
20
-134.2
11
251.7
21
-134.2
0
LINE
8
0
10
251.7
20
-134.2
11
251.7
21
-150.8
0
LINE
8
0
10
251.7
20
-132.8
11
268.3
21
-132.8
0
LINE
8
0
10
268.3
20
-132.8
11
268.3
21
-116.2
0
LINE
8
0
10
251.7
20
-116.2
11
251.7
21
-132.8
0
LINE
8
0
10
232.3
20
-186.8
11
232.3
21
-170.2
0
LINE
8
0
10
232.3
20
-170.2
11
215.7
21
-170.2
0
LINE
8
0
10
215.7
20
-170.2
11
215.7
21
-186.8
0
LINE
8
0
10
250.3
20
-186.8
11
250.3
21
-170.2
0
LINE
8
0
10
250.3
20
-170.2
11
233.7
21
-170.2
0
LINE
8
0
10
233.7
20
-170.2
11
233.7
21
-186.8
0
LINE
8
0
10
251.3396834
20
-186.9368769
11
267.3740521
21
-191.233273
0
LINE
8
0
10
267.3740521
20
-191.233273
11
271.6704482
21
-175.1989043
0
LINE
8
0
10
271.6704482
20
-175.1989043
11
255.6360795
21
-170.9025082
0
LINE
8
0
10
255.6360795
20
-170.9025082
11
251.3396834
21
-186.9368769
0
LINE
8
0
10
268.3428826
20
-191.6345758
11
282.7189044
21
-199.9345758
0
LINE
8
0
10
291.0189044
20
-185.558554
11
276.6428826
21
-177.258554
0
LINE
8
0
10
276.6428826
20
-177.258554
11
268.3428826
21
-191.6345758
0
LINE
8
0
10
421.061787
20
-180.3
11
437.661787
21
-180.3
0
LINE
8
0
10
437.661787
20
-180.3
11
437.661787
21
-163.7
0
LINE
8
0
10
437.661787
20
-163.7
11
421.061787
21
-163.7
0
LINE
8
0
10
421.061787
20
-163.7
11
421.061787
21
-180.3
0
LINE
8
0
10
421.061787
20
-162.3
11
437.661787
21
-162.3
0
LINE
8
0
10
437.661787
20
-162.3
11
437.661787
21
-145.7
0
LINE
8
0
10
437.661787
20
-145.7
11
421.061787
21
-145.7
0
LINE
8
0
10
421.061787
20
-145.7
11
421.061787
21
-162.3
0
LINE
8
0
10
421.061787
20
-144.3
11
437.661787
21
-144.3
0
LINE
8
0
10
437.661787
20
-144.3
11
437.661787
21
-127.7
0
LINE
8
0
10
437.661787
20
-127.7
11
421.061787
21
-127.7
0
LINE
8
0
10
421.061787
20
-127.7
11
421.061787
21
-144.3
0
LINE
8
0
10
403.061787
20
-176.3
11
419.661787
21
-176.3
0
LINE
8
0
10
419.661787
20
-176.3
11
419.661787
21
-159.7
0
LINE
8
0
10
419.661787
20
-159.7
11
403.061787
21
-159.7
0
LINE
8
0
10
403.061787
20
-159.7
11
403.061787
21
-176.3
0
LINE
8
0
10
403.061787
20
-158.3
11
419.661787
21
-158.3
0
LINE
8
0
10
419.661787
20
-158.3
11
419.661787
21
-141.7
0
LINE
8
0
10
419.661787
20
-141.7
11
403.061787
21
-141.7
0
LINE
8
0
10
403.061787
20
-141.7
11
403.061787
21
-158.3
0
LINE
8
0
10
403.061787
20
-140.3
11
419.661787
21
-140.3
0
LINE
8
0
10
419.661787
20
-140.3
11
419.661787
21
-123.7
0
LINE
8
0
10
419.661787
20
-123.7
11
403.061787
21
-123.7
0
LINE
8
0
10
403.061787
20
-123.7
11
403.061787
21
-140.3
0
LINE
8
0
10
385.061787
20
-183.8
11
401.661787
21
-183.8
0
LINE
8
0
10
401.661787
20
-183.8
11
401.661787
21
-167.2
0
LINE
8
0
10
401.661787
20
-167.2
11
385.061787
21
-167.2
0
LINE
8
0
10
385.061787
20
-167.2
11
385.061787
21
-183.8
0
LINE
8
0
10
385.061787
20
-165.8
11
401.661787
21
-165.8
0
LINE
8
0
10
401.661787
20
-165.8
11
401.661787
21
-149.2
0
LINE
8
0
10
401.661787
20
-149.2
11
385.061787
21
-149.2
0
LINE
8
0
10
385.061787
20
-149.2
11
385.061787
21
-165.8
0
LINE
8
0
10
385.061787
20
-147.8
11
401.661787
21
-147.8
0
LINE
8
0
10
401.661787
20
-147.8
11
401.661787
21
-131.2
0
LINE
8
0
10
401.661787
20
-131.2
11
385.061787
21
-131.2
0
LINE
8
0
10
385.061787
20
-131.2
11
385.061787
21
-147.8
0
LINE
8
0
10
385.061787
20
-129.8
11
401.661787
21
-129.8
0
LINE
8
0
10
401.661787
20
-129.8
11
401.661787
21
-113.2
0
LINE
8
0
10
401.661787
20
-113.2
11
385.061787
21
-113.2
0
LINE
8
0
10
385.061787
20
-113.2
11
385.061787
21
-129.8
0
LINE
8
0
10
367.061787
20
-161.8
11
383.661787
21
-161.8
0
LINE
8
0
10
383.661787
20
-161.8
11
383.661787
21
-145.2
0
LINE
8
0
10
383.661787
20
-145.2
11
367.061787
21
-145.2
0
LINE
8
0
10
367.061787
20
-145.2
11
367.061787
21
-161.8
0
LINE
8
0
10
367.061787
20
-143.8
11
383.661787
21
-143.8
0
LINE
8
0
10
383.661787
20
-143.8
11
383.661787
21
-127.2
0
LINE
8
0
10
383.661787
20
-127.2
11
367.061787
21
-127.2
0
LINE
8
0
10
367.061787
20
-127.2
11
367.061787
21
-143.8
0
LINE
8
0
10
367.061787
20
-125.8
11
383.661787
21
-125.8
0
LINE
8
0
10
383.661787
20
-125.8
11
383.661787
21
-109.2
0
LINE
8
0
10
383.661787
20
-109.2
11
367.061787
21
-109.2
0
LINE
8
0
10
367.061787
20
-109.2
11
367.061787
21
-125.8
0
LINE
8
0
10
349.061787
20
-166.8
11
365.661787
21
-166.8
0
LINE
8
0
10
365.661787
20
-166.8
11
365.661787
21
-150.2
0
LINE
8
0
10
365.661787
20
-150.2
11
349.061787
21
-150.2
0
LINE
8
0
10
349.061787
20
-150.2
11
349.061787
21
-166.8
0
LINE
8
0
10
349.061787
20
-148.8
11
365.661787
21
-148.8
0
LINE
8
0
10
365.661787
20
-148.8
11
365.661787
21
-132.2
0
LINE
8
0
10
365.661787
20
-132.2
11
349.061787
21
-132.2
0
LINE
8
0
10
349.061787
20
-132.2
11
349.061787
21
-148.8
0
LINE
8
0
10
349.061787
20
-130.8
11
365.661787
21
-130.8
0
LINE
8
0
10
365.661787
20
-130.8
11
365.661787
21
-114.2
0
LINE
8
0
10
365.661787
20
-114.2
11
349.061787
21
-114.2
0
LINE
8
0
10
349.061787
20
-114.2
11
349.061787
21
-130.8
0
LINE
8
0
10
331.061787
20
-168.8
11
347.661787
21
-168.8
0
LINE
8
0
10
347.661787
20
-168.8
11
347.661787
21
-152.2
0
LINE
8
0
10
347.661787
20
-152.2
11
331.061787
21
-152.2
0
LINE
8
0
10
331.061787
20
-152.2
11
331.061787
21
-168.8
0
LINE
8
0
10
331.061787
20
-150.8
11
347.661787
21
-150.8
0
LINE
8
0
10
347.661787
20
-150.8
11
347.661787
21
-134.2
0
LINE
8
0
10
347.661787
20
-134.2
11
331.061787
21
-134.2
0
LINE
8
0
10
331.061787
20
-134.2
11
331.061787
21
-150.8
0
LINE
8
0
10
331.061787
20
-132.8
11
347.661787
21
-132.8
0
LINE
8
0
10
347.661787
20
-132.8
11
347.661787
21
-116.2
0
LINE
8
0
10
347.661787
20
-116.2
11
331.061787
21
-116.2
0
LINE
8
0
10
331.061787
20
-116.2
11
331.061787
21
-132.8
0
LINE
8
0
10
367.061787
20
-186.8
11
383.661787
21
-186.8
0
LINE
8
0
10
383.661787
20
-186.8
11
383.661787
21
-170.2
0
LINE
8
0
10
383.661787
20
-170.2
11
367.061787
21
-170.2
0
LINE
8
0
10
367.061787
20
-170.2
11
367.061787
21
-186.8
0
LINE
8
0
10
349.061787
20
-186.8
11
365.661787
21
-186.8
0
LINE
8
0
10
365.661787
20
-186.8
11
365.661787
21
-170.2
0
LINE
8
0
10
365.661787
20
-170.2
11
349.061787
21
-170.2
0
LINE
8
0
10
349.061787
20
-170.2
11
349.061787
21
-186.8
0
LINE
8
0
10
331.9877349
20
-191.233273
11
348.0221036
21
-186.9368769
0
LINE
8
0
10
348.0221036
20
-186.9368769
11
343.7257075
21
-170.9025082
0
LINE
8
0
10
343.7257075
20
-170.9025082
11
327.6913388
21
-175.1989043
0
LINE
8
0
10
327.6913388
20
-175.1989043
11
331.9877349
21
-191.233273
0
LINE
8
0
10
316.6428826
20
-199.9345758
11
331.0189044
21
-191.6345758
0
LINE
8
0
10
331.0189044
20
-191.6345758
11
322.7189044
21
-177.258554
0
LINE
8
0
10
322.7189044
20
-177.258554
11
308.3428826
21
-185.558554
0
LINE
8
0
10
308.3428826
20
-185.558554
11
316.6428826
21
-199.9345758
0
ENDSEC
0
EOF