0
SECTION
2
HEADER
9
$INSUNITS
70
4
0
ENDSEC
0
SECTION
2
TABLES
0
TABLE
2
LTYPE
0
LTYPE
72
65
70
64
2
CONTINUOUS
3
______
73
0
40
0
0
ENDTAB
0
TABLE
2
LAYER
0
ENDTAB
0
ENDSEC
0
SECTION
2
ENTITIES
0
LINE
8
0
10
101.6600889
20
-196.0288454
11
100.3808063
21
-192.8933489
0
LINE
8
0
10
98.9919556
20
-191.96
11
41.54
21
-191.96
0
LINE
8
0
10
40.04
20
-190.46
11
40.04
21
-137.54
0
LINE
8
0
10
41.54
20
-136.04
11
56.5
21
-136.04
0
LINE
8
0
10
58
20
-134.54
11
58
21
-133.54
0
LINE
8
0
10
59.5
20
-132.04
11
74.5
21
-132.04
0
LINE
8
0
10
76
20
-130.54
11
76
21
-119.54
0
LINE
8
0
10
77.5
20
-118.04
11
92.5
21
-118.04
0
LINE
8
0
10
94
20
-116.54
11
94
21
-115.54
0
LINE
8
0
10
95.5
20
-114.04
11
112.5
21
-114.04
0
LINE
8
0
10
114
20
-115.54
11
114
21
-117.54
0
LINE
8
0
10
115.5
20
-119.04
11
130.5
21
-119.04
0
LINE
8
0
10
132
20
-120.54
11
132
21
-121.54
0
LINE
8
0
10
133.5
20
-123.04
11
168.38
21
-123.04
0
LINE
8
0
10
169.88
20
-124.54
11
169.88
21
-182.1483754
0
LINE
8
0
10
170.3562721
20
-183.2447243
11
180.4150271
21
-192.6371984
0
LINE
8
0
10
180.6903373
20
-194.4835473
11
172.0733212
21
-209.4086569
0
LINE
8
0
10
170.0298187
20
-209.9608753
11
155.1130343
21
-201.4331092
0
LINE
8
0
10
154.7567984
20
-201.2864389
11
139.0991884
21
-197.0909949
0
LINE
8
0
10
138.7142273
20
-197.0398873
11
103.0456723
21
-196.9621906
0
ARC
8
0
10
98.9919556
20
-193.46
40
1.5
50
22.1954593
51
90
0
ARC
8
0
10
41.54
20
-190.46
40
1.5
50
180
51
270
0
ARC
8
0
10
41.54
20
-137.54
40
1.5
50
90
51
180
0
ARC
8
0
10
56.5
20
-134.54
40
1.5
50
270
51
0
0
ARC
8
0
10
59.5
20
-133.54
40
1.5
50
90
51
180
0
ARC
8
0
10
74.5
20
-130.54
40
1.5
50
270
51
0
0
ARC
8
0
10
77.5
20
-119.54
40
1.5
50
90
51
180
0
ARC
8
0
10
92.5
20
-116.54
40
1.5
50
270
51
0
0
ARC
8
0
10
95.5
20
-115.54
40
1.5
50
90
51
180
0
ARC
8
0
10
112.5
20
-115.54
40
1.5
50
0
51
90
0
ARC
8
0
10
115.5
20
-117.54
40
1.5
50
180
51
270
0
ARC
8
0
10
130.5
20
-120.54
40
1.5
50
0
51
90
0
ARC
8
0
10
133.5
20
-121.54
40
1.5
50
180
51
270
0
ARC
8
0
10
168.38
20
-124.54
40
1.5
50
0
51
90
0
ARC
8
0
10
171.38
20
-182.1483754
40
1.5
50
180
51
226.9618395
0
ARC
8
0
10
179.3912992
20
-193.7335473
40
1.5
50
329.9999999
51
46.9618395
0
ARC
8
0
10
170.7742831
20
-208.6586569
40
1.5
50
240.2438561
51
329.9999999
0
ARC
8
0
10
154.3685699
20
-202.7353276
40
1.5
50
60.2438561
51
75.0000021
0
ARC
8
0
10
138.7109598
20
-198.5398837
40
1.5
50
75.0000021
51
89.8751925
0
ARC
8
0
10
103.0489397
20
-195.4621943
40
1.5
50
202.1954593
51
269.8751925
0
LINE
8
0
10
43
20
-189
11
57
21
-189
0
LINE
8
0
10
57
20
-189
11
57
21
-175
0
LINE
8
0
10
57
20
-175
11
43
21
-175
0
LINE
8
0
10
43
20
-175
11
43
21
-189
0
LINE
8
0
10
43
20
-171
11
57
21
-171
0
LINE
8
0
10
57
20
-171
11
57
21
-157
0
LINE
8
0
10
57
20
-157
11
43
21
-157
0
LINE
8
0
10
43
20
-157
11
43
21
-171
0
LINE
8
0
10
43
20
-153
11
57
21
-153
0
LINE
8
0
10
57
20
-153
11
57
21
-139
0
LINE
8
0
10
57
20
-139
11
43
21
-139
0
LINE
8
0
10
43
20
-139
11
43
21
-153
0
LINE
8
0
10
61
20
-185
11
75
21
-185
0
LINE
8
0
10
75
20
-185
11
75
21
-171
0
LINE
8
0
10
75
20
-171
11
61
21
-171
0
LINE
8
0
10
61
20
-171
11
61
21
-185
0
LINE
8
0
10
61
20
-167
11
75
21
-167
0
LINE
8
0
10
75
20
-167
11
75
21
-153
0
LINE
8
0
10
75
20
-153
11
61
21
-153
0
LINE
8
0
10
61
20
-153
11
61
21
-167
0
LINE
8
0
10
61
20
-149
11
75
21
-149
0
LINE
8
0
10
75
20
-149
11
75
21
-135
0
LINE
8
0
10
75
20
-135
11
61
21
-135
0
LINE
8
0
10
61
20
-135
11
61
21
-149
0
LINE
8
0
10
79
20
-189
11
93
21
-189
0
LINE
8
0
10
93
20
-189
11
93
21
-175
0
LINE
8
0
10
93
20
-175
11
79
21
-175
0
LINE
8
0
10
79
20
-175
11
79
21
-189
0
LINE
8
0
10
79
20
-171
11
93
21
-171
0
LINE
8
0
10
93
20
-171
11
93
21
-157
0
LINE
8
0
10
93
20
-157
11
79
21
-157
0
LINE
8
0
10
79
20
-157
11
79
21
-171
0
LINE
8
0
10
79
20
-153
11
93
21
-153
0
LINE
8
0
10
93
20
-153
11
93
21
-139
0
LINE
8
0
10
93
20
-139
11
79
21
-139
0
LINE
8
0
10
79
20
-139
11
79
21
-153
0
LINE
8
0
10
79
20
-135
11
93
21
-135
0
LINE
8
0
10
93
20
-135
11
93
21
-121
0
LINE
8
0
10
93
20
-121
11
79
21
-121
0
LINE
8
0
10
79
20
-121
11
79
21
-135
0
LINE
8
0
10
97
20
-167
11
111
21
-167
0
LINE
8
0
10
111
20
-167
11
111
21
-153
0
LINE
8
0
10
111
20
-153
11
97
21
-153
0
LINE
8
0
10
97
20
-153
11
97
21
-167
0
LINE
8
0
10
97
20
-149
11
111
21
-149
0
LINE
8
0
10
111
20
-149
11
111
21
-135
0
LINE
8
0
10
111
20
-135
11
97
21
-135
0
LINE
8
0
10
97
20
-135
11
97
21
-149
0
LINE
8
0
10
97
20
-131
11
111
21
-131
0
LINE
8
0
10
111
20
-131
11
111
21
-117
0
LINE
8
0
10
111
20
-117
11
97
21
-117
0
LINE
8
0
10
97
20
-117
11
97
21
-131
0
LINE
8
0
10
115
20
-172
11
129
21
-172
0
LINE
8
0
10
129
20
-172
11
129
21
-158
0
LINE
8
0
10
129
20
-158
11
115
21
-158
0
LINE
8
0
10
115
20
-158
11
115
21
-172
0
LINE
8
0
10
115
20
-154
11
129
21
-154
0
LINE
8
0
10
129
20
-154
11
129
21
-140
0
LINE
8
0
10
129
20
-140
11
115
21
-140
0
LINE
8
0
10
115
20
-140
11
115
21
-154
0
LINE
8
0
10
115
20
-136
11
129
21
-136
0
LINE
8
0
10
129
20
-136
11
129
21
-122
0
LINE
8
0
10
129
20
-122
11
115
21
-122
0
LINE
8
0
10
115
20
-122
11
115
21
-136
0
LINE
8
0
10
133
20
-176
11
147
21
-176
0
LINE
8
0
10
147
20
-176
11
147
21
-162
0
LINE
8
0
10
147
20
-162
11
133
21
-162
0
LINE
8
0
10
133
20
-162
11
133
21
-176
0
LINE
8
0
10
133
20
-158
11
147
21
-158
0
LINE
8
0
10
147
20
-158
11
147
21
-144
0
LINE
8
0
10
147
20
-144
11
133
21
-144
0
LINE
8
0
10
133
20
-144
11
133
21
-158
0
LINE
8
0
10
133
20
-140
11
147
21
-140
0
LINE
8
0
10
147
20
-140
11
147
21
-126
0
LINE
8
0
10
147
20
-126
11
133
21
-126
0
LINE
8
0
10
133
20
-126
11
133
21
-140
0
LINE
8
0
10
323
20
-189
11
337
21
-189
0
LINE
8
0
10
337
20
-189
11
337
21
-175
0
LINE
8
0
10
337
20
-175
11
323
21
-175
0
LINE
8
0
10
323
20
-175
11
323
21
-189
0
LINE
8
0
10
323
20
-171
11
337
21
-171
0
LINE
8
0
10
337
20
-171
11
337
21
-157
0
LINE
8
0
10
337
20
-157
11
323
21
-157
0
LINE
8
0
10
323
20
-157
11
323
21
-171
0
LINE
8
0
10
323
20
-153
11
337
21
-153
0
LINE
8
0
10
337
20
-153
11
337
21
-139
0
LINE
8
0
10
337
20
-139
11
323
21
-139
0
LINE
8
0
10
323
20
-139
11
323
21
-153
0
LINE
8
0
10
305
20
-185
11
319
21
-185
0
LINE
8
0
10
319
20
-185
11
319
21
-171
0
LINE
8
0
10
319
20
-171
11
305
21
-171
0
LINE
8
0
10
305
20
-171
11
305
21
-185
0
LINE
8
0
10
305
20
-167
11
319
21
-167
0
LINE
8
0
10
319
20
-167
11
319
21
-153
0
LINE
8
0
10
319
20
-153
11
305
21
-153
0
LINE
8
0
10
305
20
-153
11
305
21
-167
0
LINE
8
0
10
305
20
-149
11
319
21
-149
0
LINE
8
0
10
319
20
-149
11
319
21
-135
0
LINE
8
0
10
319
20
-135
11
305
21
-135
0
LINE
8
0
10
305
20
-135
11
305
21
-149
0
LINE
8
0
10
287
20
-189
11
301
21
-189
0
LINE
8
0
10
301
20
-189
11
301
21
-175
0
LINE
8
0
10
301
20
-175
11
287
21
-175
0
LINE
8
0
10
287
20
-175
11
287
21
-189
0
LINE
8
0
10
287
20
-171
11
301
21
-171
0
LINE
8
0
10
301
20
-171
11
301
21
-157
0
LINE
8
0
10
301
20
-157
11
287
21
-157
0
LINE
8
0
10
287
20
-157
11
287
21
-171
0
LINE
8
0
10
287
20
-153
11
301
21
-153
0
LINE
8
0
10
301
20
-153
11
301
21
-139
0
LINE
8
0
10
301
20
-139
11
287
21
-139
0
LINE
8
0
10
287
20
-139
11
287
21
-153
0
LINE
8
0
10
287
20
-135
11
301
21
-135
0
LINE
8
0
10
301
20
-135
11
301
21
-121
0
LINE
8
0
10
301
20
-121
11
287
21
-121
0
LINE
8
0
10
287
20
-121
11
287
21
-135
0
LINE
8
0
10
269
20
-167
11
283
21
-167
0
LINE
8
0
10
283
20
-167
11
283
21
-153
0
LINE
8
0
10
283
20
-153
11
269
21
-153
0
LINE
8
0
10
269
20
-153
11
269
21
-167
0
LINE
8
0
10
269
20
-149
11
283
21
-149
0
LINE
8
0
10
283
20
-149
11
283
21
-135
0
LINE
8
0
10
283
20
-135
11
269
21
-135
0
LINE
8
0
10
269
20
-135
11
269
21
-149
0
LINE
8
0
10
269
20
-131
11
283
21
-131
0
LINE
8
0
10
283
20
-131
11
283
21
-117
0
LINE
8
0
10
283
20
-117
11
269
21
-117
0
LINE
8
0
10
269
20
-117
11
269
21
-131
0
LINE
8
0
10
251
20
-172
11
265
21
-172
0
LINE
8
0
10
265
20
-172
11
265
21
-158
0
LINE
8
0
10
265
20
-158
11
251
21
-158
0
LINE
8
0
10
251
20
-158
11
251
21
-172
0
LINE
8
0
10
251
20
-154
11
265
21
-154
0
LINE
8
0
10
265
20
-154
11
265
21
-140
0
LINE
8
0
10
265
20
-140
11
251
21
-140
0
LINE
8
0
10
251
20
-140
11
251
21
-154
0
LINE
8
0
10
251
20
-136
11
265
21
-136
0
LINE
8
0
10
265
20
-136
11
265
21
-122
0
LINE
8
0
10
265
20
-122
11
251
21
-122
0
LINE
8
0
10
251
20
-122
11
251
21
-136
0
LINE
8
0
10
233
20
-176
11
247
21
-176
0
LINE
8
0
10
247
20
-176
11
247
21
-162
0
LINE
8
0
10
247
20
-162
11
233
21
-162
0
LINE
8
0
10
233
20
-162
11
233
21
-176
0
LINE
8
0
10
233
20
-158
11
247
21
-158
0
LINE
8
0
10
247
20
-158
11
247
21
-144
0
LINE
8
0
10
247
20
-144
11
233
21
-144
0
LINE
8
0
10
233
20
-144
11
233
21
-158
0
LINE
8
0
10
233
20
-140
11
247
21
-140
0
LINE
8
0
10
247
20
-140
11
247
21
-126
0
LINE
8
0
10
247
20
-126
11
233
21
-126
0
LINE
8
0
10
233
20
-126
11
233
21
-140
0
LINE
8
0
10
41.7
20
-190.3
11
58.3
21
-190.3
0
LINE
8
0
10
58.3
20
-190.3
11
58.3
21
-173.7
0
LINE
8
0
10
58.3
20
-173.7
11
41.7
21
-173.7
0
LINE
8
0
10
41.7
20
-173.7
11
41.7
21
-190.3
0
LINE
8
0
10
41.7
20
-172.3
11
58.3
21
-172.3
0
LINE
8
0
10
58.3
20
-172.3
11
58.3
21
-155.7
0
LINE
8
0
10
58.3
20
-155.7
11
41.7
21
-155.7
0
LINE
8
0
10
41.7
20
-155.7
11
41.7
21
-172.3
0
LINE
8
0
10
41.7
20
-154.3
11
58.3
21
-154.3
0
LINE
8
0
10
58.3
20
-154.3
11
58.3
21
-137.7
0
LINE
8
0
10
58.3
20
-137.7
11
41.7
21
-137.7
0
LINE
8
0
10
41.7
20
-137.7
11
41.7
21
-154.3
0
LINE
8
0
10
59.7
20
-186.3
11
76.3
21
-186.3
0
LINE
8
0
10
76.3
20
-186.3
11
76.3
21
-169.7
0
LINE
8
0
10
76.3
20
-169.7
11
59.7
21
-169.7
0
LINE
8
0
10
59.7
20
-169.7
11
59.7
21
-186.3
0
LINE
8
0
10
59.7
20
-168.3
11
76.3
21
-168.3
0
LINE
8
0
10
76.3
20
-168.3
11
76.3
21
-151.7
0
LINE
8
0
10
76.3
20
-151.7
11
59.7
21
-151.7
0
LINE
8
0
10
59.7
20
-151.7
11
59.7
21
-168.3
0
LINE
8
0
10
59.7
20
-150.3
11
76.3
21
-150.3
0
LINE
8
0
10
76.3
20
-150.3
11
76.3
21
-133.7
0
LINE
8
0
10
76.3
20
-133.7
11
59.7
21
-133.7
0
LINE
8
0
10
59.7
20
-133.7
11
59.7
21
-150.3
0
LINE
8
0
10
77.7
20
-190.3
11
94.3
21
-190.3
0
LINE
8
0
10
94.3
20
-190.3
11
94.3
21
-173.7
0
LINE
8
0
10
94.3
20
-173.7
11
77.7
21
-173.7
0
LINE
8
0
10
77.7
20
-173.7
11
77.7
21
-190.3
0
LINE
8
0
10
77.7
20
-172.3
11
94.3
21
-172.3
0
LINE
8
0
10
94.3
20
-172.3
11
94.3
21
-155.7
0
LINE
8
0
10
94.3
20
-155.7
11
77.7
21
-155.7
0
LINE
8
0
10
77.7
20
-155.7
11
77.7
21
-172.3
0
LINE
8
0
10
77.7
20
-154.3
11
94.3
21
-154.3
0
LINE
8
0
10
94.3
20
-154.3
11
94.3
21
-137.7
0
LINE
8
0
10
94.3
20
-137.7
11
77.7
21
-137.7
0
LINE
8
0
10
77.7
20
-137.7
11
77.7
21
-154.3
0
LINE
8
0
10
77.7
20
-136.3
11
94.3
21
-136.3
0
LINE
8
0
10
94.3
20
-136.3
11
94.3
21
-119.7
0
LINE
8
0
10
94.3
20
-119.7
11
77.7
21
-119.7
0
LINE
8
0
10
77.7
20
-119.7
11
77.7
21
-136.3
0
LINE
8
0
10
95.7
20
-168.3
11
112.3
21
-168.3
0
LINE
8
0
10
112.3
20
-168.3
11
112.3
21
-151.7
0
LINE
8
0
10
112.3
20
-151.7
11
95.7
21
-151.7
0
LINE
8
0
10
95.7
20
-151.7
11
95.7
21
-168.3
0
LINE
8
0
10
95.7
20
-150.3
11
112.3
21
-150.3
0
LINE
8
0
10
112.3
20
-150.3
11
112.3
21
-133.7
0
LINE
8
0
10
112.3
20
-133.7
11
95.7
21
-133.7
0
LINE
8
0
10
95.7
20
-133.7
11
95.7
21
-150.3
0
LINE
8
0
10
95.7
20
-132.3
11
112.3
21
-132.3
0
LINE
8
0
10
112.3
20
-132.3
11
112.3
21
-115.7
0
LINE
8
0
10
112.3
20
-115.7
11
95.7
21
-115.7
0
LINE
8
0
10
95.7
20
-115.7
11
95.7
21
-132.3
0
LINE
8
0
10
113.7
20
-173.3
11
130.3
21
-173.3
0
LINE
8
0
10
130.3
20
-173.3
11
130.3
21
-156.7
0
LINE
8
0
10
130.3
20
-156.7
11
113.7
21
-156.7
0
LINE
8
0
10
113.7
20
-156.7
11
113.7
21
-173.3
0
LINE
8
0
10
113.7
20
-155.3
11
130.3
21
-155.3
0
LINE
8
0
10
130.3
20
-155.3
11
130.3
21
-138.7
0
LINE
8
0
10
130.3
20
-138.7
11
113.7
21
-138.7
0
LINE
8
0
10
113.7
20
-138.7
11
113.7
21
-155.3
0
LINE
8
0
10
113.7
20
-137.3
11
130.3
21
-137.3
0
LINE
8
0
10
130.3
20
-137.3
11
130.3
21
-120.7
0
LINE
8
0
10
130.3
20
-120.7
11
113.7
21
-120.7
0
LINE
8
0
10
113.7
20
-120.7
11
113.7
21
-137.3
0
LINE
8
0
10
131.7
20
-177.3
11
148.3
21
-177.3
0
LINE
8
0
10
148.3
20
-177.3
11
148.3
21
-160.7
0
LINE
8
0
10
148.3
20
-160.7
11
131.7
21
-160.7
0
LINE
8
0
10
131.7
20
-160.7
11
131.7
21
-177.3
0
LINE
8
0
10
131.7
20
-159.3
11
148.3
21
-159.3
0
LINE
8
0
10
148.3
20
-159.3
11
148.3
21
-142.7
0
LINE
8
0
10
148.3
20
-142.7
11
131.7
21
-142.7
0
LINE
8
0
10
131.7
20
-142.7
11
131.7
21
-159.3
0
LINE
8
0
10
131.7
20
-141.3
11
148.3
21
-141.3
0
LINE
8
0
10
148.3
20
-141.3
11
148.3
21
-124.7
0
LINE
8
0
10
148.3
20
-124.7
11
131.7
21
-124.7
0
LINE
8
0
10
131.7
20
-124.7
11
131.7
21
-141.3
0
LINE
8
0
10
321.7
20
-190.3
11
338.3
21
-190.3
0
LINE
8
0
10
338.3
20
-190.3
11
338.3
21
-173.7
0
LINE
8
0
10
338.3
20
-173.7
11
321.7
21
-173.7
0
LINE
8
0
10
321.7
20
-173.7
11
321.7
21
-190.3
0
LINE
8
0
10
321.7
20
-172.3
11
338.3
21
-172.3
0
LINE
8
0
10
338.3
20
-172.3
11
338.3
21
-155.7
0
LINE
8
0
10
338.3
20
-155.7
11
321.7
21
-155.7
0
LINE
8
0
10
321.7
20
-155.7
11
321.7
21
-172.3
0
LINE
8
0
10
321.7
20
-154.3
11
338.3
21
-154.3
0
LINE
8
0
10
338.3
20
-154.3
11
338.3
21
-137.7
0
LINE
8
0
10
338.3
20
-137.7
11
321.7
21
-137.7
0
LINE
8
0
10
321.7
20
-137.7
11
321.7
21
-154.3
0
LINE
8
0
10
303.7
20
-186.3
11
320.3
21
-186.3
0
LINE
8
0
10
320.3
20
-186.3
11
320.3
21
-169.7
0
LINE
8
0
10
320.3
20
-169.7
11
303.7
21
-169.7
0
LINE
8
0
10
303.7
20
-169.7
11
303.7
21
-186.3
0
LINE
8
0
10
303.7
20
-168.3
11
320.3
21
-168.3
0
LINE
8
0
10
320.3
20
-168.3
11
320.3
21
-151.7
0
LINE
8
0
10
320.3
20
-151.7
11
303.7
21
-151.7
0
LINE
8
0
10
303.7
20
-151.7
11
303.7
21
-168.3
0
LINE
8
0
10
303.7
20
-150.3
11
320.3
21
-150.3
0
LINE
8
0
10
320.3
20
-150.3
11
320.3
21
-133.7
0
LINE
8
0
10
320.3
20
-133.7
11
303.7
21
-133.7
0
LINE
8
0
10
303.7
20
-133.7
11
303.7
21
-150.3
0
LINE
8
0
10
285.7
20
-190.3
11
302.3
21
-190.3
0
LINE
8
0
10
302.3
20
-190.3
11
302.3
21
-173.7
0
LINE
8
0
10
302.3
20
-173.7
11
285.7
21
-173.7
0
LINE
8
0
10
285.7
20
-173.7
11
285.7
21
-190.3
0
LINE
8
0
10
285.7
20
-172.3
11
302.3
21
-172.3
0
LINE
8
0
10
302.3
20
-172.3
11
302.3
21
-155.7
0
LINE
8
0
10
302.3
20
-155.7
11
285.7
21
-155.7
0
LINE
8
0
10
285.7
20
-155.7
11
285.7
21
-172.3
0
LINE
8
0
10
285.7
20
-154.3
11
302.3
21
-154.3
0
LINE
8
0
10
302.3
20
-154.3
11
302.3
21
-137.7
0
LINE
8
0
10
302.3
20
-137.7
11
285.7
21
-137.7
0
LINE
8
0
10
285.7
20
-137.7
11
285.7
21
-154.3
0
LINE
8
0
10
285.7
20
-136.3
11
302.3
21
-136.3
0
LINE
8
0
10
302.3
20
-136.3
11
302.3
21
-119.7
0
LINE
8
0
10
302.3
20
-119.7
11
285.7
21
-119.7
0
LINE
8
0
10
285.7
20
-119.7
11
285.7
21
-136.3
0
LINE
8
0
10
267.7
20
-168.3
11
284.3
21
-168.3
0
LINE
8
0
10
284.3
20
-168.3
11
284.3
21
-151.7
0
LINE
8
0
10
284.3
20
-151.7
11
267.7
21
-151.7
0
LINE
8
0
10
267.7
20
-151.7
11
267.7
21
-168.3
0
LINE
8
0
10
267.7
20
-150.3
11
284.3
21
-150.3
0
LINE
8
0
10
284.3
20
-150.3
11
284.3
21
-133.7
0
LINE
8
0
10
284.3
20
-133.7
11
267.7
21
-133.7
0
LINE
8
0
10
267.7
20
-133.7
11
267.7
21
-150.3
0
LINE
8
0
10
267.7
20
-132.3
11
284.3
21
-132.3
0
LINE
8
0
10
284.3
20
-132.3
11
284.3
21
-115.7
0
LINE
8
0
10
284.3
20
-115.7
11
267.7
21
-115.7
0
LINE
8
0
10
267.7
20
-115.7
11
267.7
21
-132.3
0
LINE
8
0
10
249.7
20
-173.3
11
266.3
21
-173.3
0
LINE
8
0
10
266.3
20
-173.3
11
266.3
21
-156.7
0
LINE
8
0
10
266.3
20
-156.7
11
249.7
21
-156.7
0
LINE
8
0
10
249.7
20
-156.7
11
249.7
21
-173.3
0
LINE
8
0
10
249.7
20
-155.3
11
266.3
21
-155.3
0
LINE
8
0
10
266.3
20
-155.3
11
266.3
21
-138.7
0
LINE
8
0
10
266.3
20
-138.7
11
249.7
21
-138.7
0
LINE
8
0
10
249.7
20
-138.7
11
249.7
21
-155.3
0
LINE
8
0
10
249.7
20
-137.3
11
266.3
21
-137.3
0
LINE
8
0
10
266.3
20
-137.3
11
266.3
21
-120.7
0
LINE
8
0
10
266.3
20
-120.7
11
249.7
21
-120.7
0
LINE
8
0
10
249.7
20
-120.7
11
249.7
21
-137.3
0
LINE
8
0
10
231.7
20
-177.3
11
248.3
21
-177.3
0
LINE
8
0
10
248.3
20
-177.3
11
248.3
21
-160.7
0
LINE
8
0
10
248.3
20
-160.7
11
231.7
21
-160.7
0
LINE
8
0
10
231.7
20
-160.7
11
231.7
21
-177.3
0
LINE
8
0
10
231.7
20
-159.3
11
248.3
21
-159.3
0
LINE
8
0
10
248.3
20
-159.3
11
248.3
21
-142.7
0
LINE
8
0
10
248.3
20
-142.7
11
231.7
21
-142.7
0
LINE
8
0
10
231.7
20
-142.7
11
231.7
21
-159.3
0
LINE
8
0
10
231.7
20
-141.3
11
248.3
21
-141.3
0
LINE
8
0
10
248.3
20
-141.3
11
248.3
21
-124.7
0
LINE
8
0
10
248.3
20
-124.7
11
231.7
21
-124.7
0
LINE
8
0
10
231.7
20
-124.7
11
231.7
21
-141.3
0
LINE
8
0
10
149.71
20
-157.7
11
167.49
21
-157.7
0
LINE
8
0
10
167.49
20
-157.7
11
167.49
21
-124.7
0
LINE
8
0
10
167.49
20
-124.7
11
149.71
21
-124.7
0
LINE
8
0
10
149.71
20
-124.7
11
149.71
21
-157.7
0
ENDSEC
0
EOF