0
SECTION
2
HEADER
9
$INSUNITS
70
4
0
ENDSEC
0
SECTION
2
TABLES
0
TABLE
2
LTYPE
0
LTYPE
72
65
70
64
2
CONTINUOUS
3
______
73
0
40
0
0
ENDTAB
0
TABLE
2
LAYER
0
ENDTAB
0
ENDSEC
0
SECTION
2
ENTITIES
0
LINE
8
0
10
223.5017047
20
-186.9039844
11
206.1999729
21
-182.0164895
0
LINE
8
0
10
205.7922015
20
-181.96
11
161.54
21
-181.96
0
LINE
8
0
10
160.04
20
-180.46
11
160.04
21
-127.54
0
LINE
8
0
10
161.54
20
-126.04
11
176.5
21
-126.04
0
LINE
8
0
10
178
20
-124.54
11
178
21
-123.54
0
LINE
8
0
10
179.5
20
-122.04
11
194.5
21
-122.04
0
LINE
8
0
10
196
20
-120.54
11
196
21
-109.54
0
LINE
8
0
10
197.5
20
-108.04
11
212.5
21
-108.04
0
LINE
8
0
10
214
20
-106.54
11
214
21
-105.54
0
LINE
8
0
10
215.5
20
-104.04
11
232.5
21
-104.04
0
LINE
8
0
10
234
20
-105.54
11
234
21
-107.54
0
LINE
8
0
10
235.5
20
-109.04
11
250.5
21
-109.04
0
LINE
8
0
10
252
20
-110.54
11
252
21
-111.54
0
LINE
8
0
10
253.5
20
-113.04
11
288.38
21
-113.04
0
LINE
8
0
10
289.88
20
-114.54
11
289.88
21
-172.1483754
0
LINE
8
0
10
290.3562721
20
-173.2447243
11
300.4150271
21
-182.6371984
0
LINE
8
0
10
300.6903373
20
-184.4835473
11
292.0733212
21
-199.4086569
0
LINE
8
0
10
290.0298187
20
-199.9608753
11
275.1130343
21
-191.4331092
0
LINE
8
0
10
274.7567984
20
-191.2864389
11
259.0991128
21
-187.0909747
0
LINE
8
0
10
258.7143058
20
-187.0398673
11
223.9060546
21
-186.96047
0
ARC
8
0
10
205.7922015
20
-183.46
40
1.5
50
74.2257603
51
90
0
ARC
8
0
10
161.54
20
-180.46
40
1.5
50
180
51
270
0
ARC
8
0
10
161.54
20
-127.54
40
1.5
50
90
51
180
0
ARC
8
0
10
176.5
20
-124.54
40
1.5
50
270
51
0
0
ARC
8
0
10
179.5
20
-123.54
40
1.5
50
90
51
180
0
ARC
8
0
10
194.5
20
-120.54
40
1.5
50
270
51
0
0
ARC
8
0
10
197.5
20
-109.54
40
1.5
50
90
51
180
0
ARC
8
0
10
212.5
20
-106.54
40
1.5
50
270
51
0
0
ARC
8
0
10
215.5
20
-105.54
40
1.5
50
90
51
180
0
ARC
8
0
10
232.5
20
-105.54
40
1.5
50
0
51
90
0
ARC
8
0
10
235.5
20
-107.54
40
1.5
50
180
51
270
0
ARC
8
0
10
250.5
20
-110.54
40
1.5
50
0
51
90
0
ARC
8
0
10
253.5
20
-111.54
40
1.5
50
180
51
270
0
ARC
8
0
10
288.38
20
-114.54
40
1.5
50
0
51
90
0
ARC
8
0
10
291.38
20
-172.1483754
40
1.5
50
180
51
226.9618395
0
ARC
8
0
10
299.3912992
20
-183.7335473
40
1.5
50
329.9999999
51
46.9618395
0
ARC
8
0
10
290.7742831
20
-198.6586569
40
1.5
50
240.2438561
51
329.9999999
0
ARC
8
0
10
274.3685699
20
-192.7353276
40
1.5
50
60.2438561
51
75.0000021
0
ARC
8
0
10
258.7108843
20
-188.5398634
40
1.5
50
75.0000021
51
89.8693082
0
ARC
8
0
10
223.9094761
20
-185.4604739
40
1.5
50
254.2257603
51
269.8693082
0
LINE
8
0
10
163
20
-179
11
177
21
-179
0
LINE
8
0
10
177
20
-179
11
177
21
-165
0
LINE
8
0
10
177
20
-165
11
167
21
-165
0
LINE
8
0
10
163
20
-166
11
163
21
-179
0
LINE
8
0
10
167
20
-161
11
171
21
-161
0
LINE
8
0
10
177
20
-148
11
177
21
-147
0
LINE
8
0
10
177
20
-147
11
167
21
-147
0
LINE
8
0
10
163
20
-148
11
163
21
-152
0
LINE
8
0
10
167
20
-143
11
171
21
-143
0
LINE
8
0
10
177
20
-130
11
177
21
-129
0
LINE
8
0
10
177
20
-129
11
167
21
-129
0
LINE
8
0
10
163
20
-130
11
163
21
-134
0
LINE
8
0
10
181
20
-175
11
195
21
-175
0
LINE
8
0
10
195
20
-175
11
195
21
-161
0
LINE
8
0
10
195
20
-161
11
185
21
-161
0
LINE
8
0
10
181
20
-162
11
181
21
-175
0
LINE
8
0
10
185
20
-157
11
199
21
-157
0
LINE
8
0
10
185
20
-143
11
199
21
-143
0
LINE
8
0
10
181
20
-144
11
181
21
-148
0
LINE
8
0
10
185
20
-139
11
199
21
-139
0
LINE
8
0
10
185
20
-125
11
199
21
-125
0
LINE
8
0
10
181
20
-126
11
181
21
-130
0
LINE
8
0
10
199
20
-179
11
221
21
-179
0
LINE
8
0
10
199
20
-165
11
221
21
-165
0
LINE
8
0
10
199
20
-165
11
199
21
-179
0
LINE
8
0
10
199
20
-161
11
221
21
-161
0
LINE
8
0
10
203
20
-147
11
217
21
-147
0
LINE
8
0
10
199
20
-157
11
199
21
-161
0
LINE
8
0
10
203
20
-143
11
217
21
-143
0
LINE
8
0
10
203
20
-129
11
217
21
-129
0
LINE
8
0
10
199
20
-139
11
199
21
-143
0
LINE
8
0
10
203
20
-125
11
217
21
-125
0
LINE
8
0
10
203
20
-111
11
217
21
-111
0
LINE
8
0
10
199
20
-121
11
199
21
-125
0
LINE
8
0
10
221
20
-157
11
235
21
-157
0
LINE
8
0
10
221
20
-143
11
235
21
-143
0
LINE
8
0
10
217
20
-143
11
217
21
-147
0
LINE
8
0
10
221
20
-139
11
235
21
-139
0
LINE
8
0
10
221
20
-125
11
235
21
-125
0
LINE
8
0
10
217
20
-125
11
217
21
-129
0
LINE
8
0
10
221
20
-121
11
231
21
-121
0
LINE
8
0
10
231
20
-121
11
231
21
-107
0
LINE
8
0
10
231
20
-107
11
217
21
-107
0
LINE
8
0
10
217
20
-107
11
217
21
-111
0
LINE
8
0
10
239
20
-162
11
249
21
-162
0
LINE
8
0
10
249
20
-162
11
249
21
-161
0
LINE
8
0
10
243
20
-148
11
239
21
-148
0
LINE
8
0
10
235
20
-157
11
235
21
-161
0
LINE
8
0
10
239
20
-144
11
249
21
-144
0
LINE
8
0
10
249
20
-144
11
249
21
-143
0
LINE
8
0
10
243
20
-130
11
239
21
-130
0
LINE
8
0
10
235
20
-139
11
235
21
-143
0
LINE
8
0
10
239
20
-126
11
249
21
-126
0
LINE
8
0
10
249
20
-126
11
249
21
-112
0
LINE
8
0
10
249
20
-112
11
235
21
-112
0
LINE
8
0
10
235
20
-112
11
235
21
-125
0
LINE
8
0
10
257
20
-166
11
267
21
-166
0
LINE
8
0
10
267
20
-166
11
267
21
-152
0
LINE
8
0
10
267
20
-152
11
257
21
-152
0
LINE
8
0
10
253
20
-161
11
253
21
-165
0
LINE
8
0
10
257
20
-148
11
267
21
-148
0
LINE
8
0
10
267
20
-148
11
267
21
-134
0
LINE
8
0
10
267
20
-134
11
257
21
-134
0
LINE
8
0
10
253
20
-143
11
253
21
-147
0
LINE
8
0
10
257
20
-130
11
267
21
-130
0
LINE
8
0
10
267
20
-130
11
267
21
-116
0
LINE
8
0
10
267
20
-116
11
253
21
-116
0
LINE
8
0
10
253
20
-116
11
253
21
-129
0
LINE
8
0
10
243
20
-179
11
257
21
-179
0
LINE
8
0
10
257
20
-179
11
257
21
-166
0
LINE
8
0
10
253
20
-165
11
243
21
-165
0
LINE
8
0
10
243
20
-165
11
243
21
-179
0
LINE
8
0
10
249
20
-161
11
253
21
-161
0
LINE
8
0
10
257
20
-152
11
257
21
-148
0
LINE
8
0
10
253
20
-147
11
243
21
-147
0
LINE
8
0
10
243
20
-147
11
243
21
-148
0
LINE
8
0
10
249
20
-143
11
253
21
-143
0
LINE
8
0
10
257
20
-134
11
257
21
-130
0
LINE
8
0
10
253
20
-129
11
243
21
-129
0
LINE
8
0
10
243
20
-129
11
243
21
-130
0
LINE
8
0
10
225
20
-175
11
239
21
-175
0
LINE
8
0
10
239
20
-175
11
239
21
-162
0
LINE
8
0
10
235
20
-161
11
225
21
-161
0
LINE
8
0
10
225
20
-161
11
225
21
-175
0
LINE
8
0
10
239
20
-148
11
239
21
-144
0
LINE
8
0
10
239
20
-130
11
239
21
-126
0
LINE
8
0
10
221
20
-179
11
221
21
-165
0
LINE
8
0
10
221
20
-161
11
221
21
-157
0
LINE
8
0
10
221
20
-143
11
221
21
-139
0
LINE
8
0
10
221
20
-125
11
221
21
-121
0
LINE
8
0
10
203
20
-147
11
203
21
-143
0
LINE
8
0
10
203
20
-129
11
203
21
-125
0
LINE
8
0
10
189
20
-121
11
199
21
-121
0
LINE
8
0
10
203
20
-111
11
203
21
-107
0
LINE
8
0
10
203
20
-107
11
189
21
-107
0
LINE
8
0
10
189
20
-107
11
189
21
-121
0
LINE
8
0
10
171
20
-162
11
181
21
-162
0
LINE
8
0
10
185
20
-161
11
185
21
-157
0
LINE
8
0
10
181
20
-148
11
177
21
-148
0
LINE
8
0
10
171
20
-161
11
171
21
-162
0
LINE
8
0
10
171
20
-144
11
181
21
-144
0
LINE
8
0
10
185
20
-143
11
185
21
-139
0
LINE
8
0
10
181
20
-130
11
177
21
-130
0
LINE
8
0
10
171
20
-143
11
171
21
-144
0
LINE
8
0
10
171
20
-126
11
181
21
-126
0
LINE
8
0
10
185
20
-125
11
185
21
-112
0
LINE
8
0
10
185
20
-112
11
171
21
-112
0
LINE
8
0
10
171
20
-112
11
171
21
-126
0
LINE
8
0
10
153
20
-166
11
163
21
-166
0
LINE
8
0
10
167
20
-165
11
167
21
-161
0
LINE
8
0
10
163
20
-152
11
153
21
-152
0
LINE
8
0
10
153
20
-152
11
153
21
-166
0
LINE
8
0
10
153
20
-148
11
163
21
-148
0
LINE
8
0
10
167
20
-147
11
167
21
-143
0
LINE
8
0
10
163
20
-134
11
153
21
-134
0
LINE
8
0
10
153
20
-134
11
153
21
-148
0
LINE
8
0
10
153
20
-130
11
163
21
-130
0
LINE
8
0
10
167
20
-129
11
167
21
-116
0
LINE
8
0
10
167
20
-116
11
153
21
-116
0
LINE
8
0
10
153
20
-116
11
153
21
-130
0
LINE
8
0
10
161.7
20
-180.3
11
178.3
21
-180.3
0
LINE
8
0
10
178.3
20
-180.3
11
178.3
21
-163.7
0
LINE
8
0
10
178.3
20
-163.7
11
168.3
21
-163.7
0
LINE
8
0
10
161.7
20
-167.3
11
161.7
21
-180.3
0
LINE
8
0
10
168.3
20
-162.3
11
169.7
21
-162.3
0
LINE
8
0
10
178.3
20
-146.7
11
178.3
21
-145.7
0
LINE
8
0
10
178.3
20
-145.7
11
168.3
21
-145.7
0
LINE
8
0
10
161.7
20
-149.3
11
161.7
21
-150.7
0
LINE
8
0
10
168.3
20
-144.3
11
169.7
21
-144.3
0
LINE
8
0
10
178.3
20
-128.7
11
178.3
21
-127.7
0
LINE
8
0
10
178.3
20
-127.7
11
168.3
21
-127.7
0
LINE
8
0
10
161.7
20
-131.3
11
161.7
21
-132.7
0
LINE
8
0
10
179.7
20
-176.3
11
196.3
21
-176.3
0
LINE
8
0
10
196.3
20
-176.3
11
196.3
21
-159.7
0
LINE
8
0
10
196.3
20
-159.7
11
186.3
21
-159.7
0
LINE
8
0
10
179.7
20
-163.3
11
179.7
21
-176.3
0
LINE
8
0
10
186.3
20
-158.3
11
197.7
21
-158.3
0
LINE
8
0
10
186.3
20
-141.7
11
197.7
21
-141.7
0
LINE
8
0
10
179.7
20
-145.3
11
179.7
21
-146.7
0
LINE
8
0
10
186.3
20
-140.3
11
197.7
21
-140.3
0
LINE
8
0
10
186.3
20
-123.7
11
197.7
21
-123.7
0
LINE
8
0
10
179.7
20
-127.3
11
179.7
21
-128.7
0
LINE
8
0
10
197.7
20
-180.3
11
222.3
21
-180.3
0
LINE
8
0
10
197.7
20
-163.7
11
222.3
21
-163.7
0
LINE
8
0
10
197.7
20
-163.7
11
197.7
21
-180.3
0
LINE
8
0
10
197.7
20
-162.3
11
222.3
21
-162.3
0
LINE
8
0
10
204.3
20
-145.7
11
215.7
21
-145.7
0
LINE
8
0
10
197.7
20
-158.3
11
197.7
21
-162.3
0
LINE
8
0
10
204.3
20
-144.3
11
215.7
21
-144.3
0
LINE
8
0
10
204.3
20
-127.7
11
215.7
21
-127.7
0
LINE
8
0
10
197.7
20
-140.3
11
197.7
21
-141.7
0
LINE
8
0
10
204.3
20
-126.3
11
215.7
21
-126.3
0
LINE
8
0
10
204.3
20
-109.7
11
215.7
21
-109.7
0
LINE
8
0
10
197.7
20
-122.3
11
197.7
21
-123.7
0
LINE
8
0
10
222.3
20
-158.3
11
233.7
21
-158.3
0
LINE
8
0
10
222.3
20
-141.7
11
233.7
21
-141.7
0
LINE
8
0
10
215.7
20
-144.3
11
215.7
21
-145.7
0
LINE
8
0
10
222.3
20
-140.3
11
233.7
21
-140.3
0
LINE
8
0
10
222.3
20
-123.7
11
233.7
21
-123.7
0
LINE
8
0
10
215.7
20
-126.3
11
215.7
21
-127.7
0
LINE
8
0
10
222.3
20
-122.3
11
232.3
21
-122.3
0
LINE
8
0
10
232.3
20
-122.3
11
232.3
21
-105.7
0
LINE
8
0
10
232.3
20
-105.7
11
215.7
21
-105.7
0
LINE
8
0
10
215.7
20
-105.7
11
215.7
21
-109.7
0
LINE
8
0
10
240.3
20
-163.3
11
250.3
21
-163.3
0
LINE
8
0
10
250.3
20
-163.3
11
250.3
21
-162.3
0
LINE
8
0
10
241.7
20
-146.7
11
240.3
21
-146.7
0
LINE
8
0
10
233.7
20
-158.3
11
233.7
21
-159.7
0
LINE
8
0
10
240.3
20
-145.3
11
250.3
21
-145.3
0
LINE
8
0
10
250.3
20
-145.3
11
250.3
21
-144.3
0
LINE
8
0
10
241.7
20
-128.7
11
240.3
21
-128.7
0
LINE
8
0
10
233.7
20
-140.3
11
233.7
21
-141.7
0
LINE
8
0
10
240.3
20
-127.3
11
250.3
21
-127.3
0
LINE
8
0
10
250.3
20
-127.3
11
250.3
21
-110.7
0
LINE
8
0
10
250.3
20
-110.7
11
233.7
21
-110.7
0
LINE
8
0
10
233.7
20
-110.7
11
233.7
21
-123.7
0
LINE
8
0
10
258.3
20
-167.3
11
268.3
21
-167.3
0
LINE
8
0
10
268.3
20
-167.3
11
268.3
21
-150.7
0
LINE
8
0
10
268.3
20
-150.7
11
258.3
21
-150.7
0
LINE
8
0
10
251.7
20
-162.3
11
251.7
21
-163.7
0
LINE
8
0
10
258.3
20
-149.3
11
268.3
21
-149.3
0
LINE
8
0
10
268.3
20
-149.3
11
268.3
21
-132.7
0
LINE
8
0
10
268.3
20
-132.7
11
258.3
21
-132.7
0
LINE
8
0
10
251.7
20
-144.3
11
251.7
21
-145.7
0
LINE
8
0
10
258.3
20
-131.3
11
268.3
21
-131.3
0
LINE
8
0
10
268.3
20
-131.3
11
268.3
21
-114.7
0
LINE
8
0
10
268.3
20
-114.7
11
251.7
21
-114.7
0
LINE
8
0
10
251.7
20
-114.7
11
251.7
21
-127.7
0
LINE
8
0
10
241.7
20
-180.3
11
258.3
21
-180.3
0
LINE
8
0
10
258.3
20
-180.3
11
258.3
21
-167.3
0
LINE
8
0
10
251.7
20
-163.7
11
241.7
21
-163.7
0
LINE
8
0
10
241.7
20
-163.7
11
241.7
21
-180.3
0
LINE
8
0
10
250.3
20
-162.3
11
251.7
21
-162.3
0
LINE
8
0
10
258.3
20
-150.7
11
258.3
21
-149.3
0
LINE
8
0
10
251.7
20
-145.7
11
241.7
21
-145.7
0
LINE
8
0
10
241.7
20
-145.7
11
241.7
21
-146.7
0
LINE
8
0
10
250.3
20
-144.3
11
251.7
21
-144.3
0
LINE
8
0
10
258.3
20
-132.7
11
258.3
21
-131.3
0
LINE
8
0
10
251.7
20
-127.7
11
241.7
21
-127.7
0
LINE
8
0
10
241.7
20
-127.7
11
241.7
21
-128.7
0
LINE
8
0
10
223.7
20
-176.3
11
240.3
21
-176.3
0
LINE
8
0
10
240.3
20
-176.3
11
240.3
21
-163.3
0
LINE
8
0
10
233.7
20
-159.7
11
223.7
21
-159.7
0
LINE
8
0
10
223.7
20
-159.7
11
223.7
21
-176.3
0
LINE
8
0
10
240.3
20
-146.7
11
240.3
21
-145.3
0
LINE
8
0
10
240.3
20
-128.7
11
240.3
21
-127.3
0
LINE
8
0
10
222.3
20
-180.3
11
222.3
21
-163.7
0
LINE
8
0
10
222.3
20
-162.3
11
222.3
21
-158.3
0
LINE
8
0
10
222.3
20
-141.7
11
222.3
21
-140.3
0
LINE
8
0
10
222.3
20
-123.7
11
222.3
21
-122.3
0
LINE
8
0
10
204.3
20
-145.7
11
204.3
21
-144.3
0
LINE
8
0
10
204.3
20
-127.7
11
204.3
21
-126.3
0
LINE
8
0
10
187.7
20
-122.3
11
197.7
21
-122.3
0
LINE
8
0
10
204.3
20
-109.7
11
204.3
21
-105.7
0
LINE
8
0
10
204.3
20
-105.7
11
187.7
21
-105.7
0
LINE
8
0
10
187.7
20
-105.7
11
187.7
21
-122.3
0
LINE
8
0
10
169.7
20
-163.3
11
179.7
21
-163.3
0
LINE
8
0
10
186.3
20
-159.7
11
186.3
21
-158.3
0
LINE
8
0
10
179.7
20
-146.7
11
178.3
21
-146.7
0
LINE
8
0
10
169.7
20
-162.3
11
169.7
21
-163.3
0
LINE
8
0
10
169.7
20
-145.3
11
179.7
21
-145.3
0
LINE
8
0
10
186.3
20
-141.7
11
186.3
21
-140.3
0
LINE
8
0
10
179.7
20
-128.7
11
178.3
21
-128.7
0
LINE
8
0
10
169.7
20
-144.3
11
169.7
21
-145.3
0
LINE
8
0
10
169.7
20
-127.3
11
179.7
21
-127.3
0
LINE
8
0
10
186.3
20
-123.7
11
186.3
21
-110.7
0
LINE
8
0
10
186.3
20
-110.7
11
169.7
21
-110.7
0
LINE
8
0
10
169.7
20
-110.7
11
169.7
21
-127.3
0
LINE
8
0
10
151.7
20
-167.3
11
161.7
21
-167.3
0
LINE
8
0
10
168.3
20
-163.7
11
168.3
21
-162.3
0
LINE
8
0
10
161.7
20
-150.7
11
151.7
21
-150.7
0
LINE
8
0
10
151.7
20
-150.7
11
151.7
21
-167.3
0
LINE
8
0
10
151.7
20
-149.3
11
161.7
21
-149.3
0
LINE
8
0
10
168.3
20
-145.7
11
168.3
21
-144.3
0
LINE
8
0
10
161.7
20
-132.7
11
151.7
21
-132.7
0
LINE
8
0
10
151.7
20
-132.7
11
151.7
21
-149.3
0
LINE
8
0
10
151.7
20
-131.3
11
161.7
21
-131.3
0
LINE
8
0
10
168.3
20
-127.7
11
168.3
21
-114.7
0
LINE
8
0
10
168.3
20
-114.7
11
151.7
21
-114.7
0
LINE
8
0
10
151.7
20
-114.7
11
151.7
21
-131.3
0
LINE
8
0
10
269.71
20
-147.7
11
287.49
21
-147.7
0
LINE
8
0
10
287.49
20
-147.7
11
287.49
21
-114.7
0
LINE
8
0
10
287.49
20
-114.7
11
269.71
21
-114.7
0
LINE
8
0
10
269.71
20
-114.7
11
269.71
21
-147.7
0
ENDSEC
0
EOF