0
SECTION
2
HEADER
9
$INSUNITS
70
4
0
ENDSEC
0
SECTION
2
TABLES
0
TABLE
2
LTYPE
0
LTYPE
72
65
70
64
2
CONTINUOUS
3
______
73
0
40
0
0
ENDTAB
0
TABLE
2
LAYER
0
ENDTAB
0
ENDSEC
0
SECTION
2
ENTITIES
0
LINE
8
0
10
215.6593186
20
-186.7952226
11
160.9683569
21
-180.3726164
0
LINE
8
0
10
160.35
20
-179.6773938
11
160.35
21
-128.4
0
LINE
8
0
10
161.05
20
-127.7
11
179
21
-127.7
0
LINE
8
0
10
179.7
20
-127
11
179.7
21
-124.4
0
LINE
8
0
10
180.4
20
-123.7
11
197
21
-123.7
0
LINE
8
0
10
197.7
20
-123
11
197.7
21
-113.9
0
LINE
8
0
10
198.4
20
-113.2
11
215.7
21
-113.2
0
LINE
8
0
10
215.7
20
-113.2
11
215.7
21
-109.2
0
LINE
8
0
10
215.7
20
-109.2
11
232.3
21
-109.2
0
LINE
8
0
10
232.3
20
-123.7
11
232.3
21
-109.2
0
LINE
8
0
10
233
20
-114.2
11
250.3
21
-114.2
0
LINE
8
0
10
250.3
20
-127.7
11
250.3
21
-114.2
0
LINE
8
0
10
251
20
-116.2
11
287.4
21
-116.2
0
LINE
8
0
10
288.1
20
-116.9
11
288.1
21
-174.2107344
0
LINE
8
0
10
288.1224025
20
-174.3864091
11
290.9469721
21
-185.2811029
0
LINE
8
0
10
290.8755925
20
-185.8067776
11
283.068884
21
-199.3283933
0
LINE
8
0
10
282.1127015
20
-199.5846314
11
267.9609755
21
-191.4152265
0
LINE
8
0
10
267.792146
20
-191.3453063
11
250.9139985
21
-186.8238417
0
LINE
8
0
10
250.7328633
20
-186.8
11
215.7409617
21
-186.8
0
ARC
8
0
10
161.05
20
-179.6773938
40
0.7
50
180
51
263.3021772
0
ARC
8
0
10
161.05
20
-128.4
40
0.7
50
90
51
180
0
ARC
8
0
10
179
20
-127
40
0.7
50
270
51
0
0
ARC
8
0
10
180.4
20
-124.4
40
0.7
50
90
51
180
0
ARC
8
0
10
197
20
-123
40
0.7
50
270
51
0
0
ARC
8
0
10
198.4
20
-113.9
40
0.7
50
90
51
180
0
ARC
8
0
10
215
20
-112.5
40
0.7
50
270
51
0
0
ARC
8
0
10
216.4
20
-109.9
40
0.7
50
90
51
180
0
ARC
8
0
10
231.6
20
-109.9
40
0.7
50
0
51
90
0
ARC
8
0
10
233
20
-113.5
40
0.7
50
180
51
270
0
ARC
8
0
10
249.6
20
-114.9
40
0.7
50
0
51
90
0
ARC
8
0
10
251
20
-115.5
40
0.7
50
180
51
270
0
ARC
8
0
10
287.4
20
-116.9
40
0.7
50
0
51
90
0
ARC
8
0
10
288.8
20
-174.2107344
40
0.7
50
180
51
194.5345518
0
ARC
8
0
10
290.2693747
20
-185.4567776
40
0.7
50
329.9999999
51
14.5345518
0
ARC
8
0
10
282.4626662
20
-198.9783933
40
0.7
50
240.0033344
51
329.9999999
0
ARC
8
0
10
267.6110108
20
-192.0214646
40
0.7
50
60.0033344
51
75.0032348
0
ARC
8
0
10
250.7328633
20
-187.5
40
0.7
50
75.0032348
51
90
0
ARC
8
0
10
215.7409617
20
-186.1
40
0.7
50
263.3021772
51
270
0
LINE
8
0
10
163
20
-179
11
177
21
-179
0
LINE
8
0
10
177
20
-179
11
177
21
-165.5
0
LINE
8
0
10
171
20
-165
11
167
21
-165
0
LINE
8
0
10
163
20
-167.5
11
163
21
-179
0
LINE
8
0
10
167
20
-161
11
171
21
-161
0
LINE
8
0
10
177
20
-151.5
11
177
21
-147.5
0
LINE
8
0
10
171
20
-147
11
167
21
-147
0
LINE
8
0
10
163
20
-149.5
11
163
21
-153.5
0
LINE
8
0
10
167
20
-143
11
171
21
-143
0
LINE
8
0
10
177
20
-133.5
11
177
21
-129.5
0
LINE
8
0
10
171
20
-129
11
167
21
-129
0
LINE
8
0
10
163
20
-131.5
11
163
21
-135.5
0
LINE
8
0
10
181
20
-175
11
195
21
-175
0
LINE
8
0
10
195
20
-175
11
195
21
-161
0
LINE
8
0
10
195
20
-161
11
185
21
-161
0
LINE
8
0
10
181
20
-165.5
11
181
21
-175
0
LINE
8
0
10
185
20
-157
11
189
21
-157
0
LINE
8
0
10
195
20
-146.5
11
195
21
-143
0
LINE
8
0
10
195
20
-143
11
185
21
-143
0
LINE
8
0
10
181
20
-147.5
11
181
21
-151.5
0
LINE
8
0
10
185
20
-139
11
189
21
-139
0
LINE
8
0
10
195
20
-128.5
11
195
21
-125
0
LINE
8
0
10
195
20
-125
11
185
21
-125
0
LINE
8
0
10
181
20
-129.5
11
181
21
-133.5
0
LINE
8
0
10
199
20
-182.5
11
221
21
-182.5
0
LINE
8
0
10
199
20
-168.5
11
221
21
-168.5
0
LINE
8
0
10
199
20
-168.5
11
199
21
-182.5
0
LINE
8
0
10
199
20
-164.5
11
221
21
-164.5
0
LINE
8
0
10
203
20
-150.5
11
217
21
-150.5
0
LINE
8
0
10
199
20
-160.5
11
199
21
-164.5
0
LINE
8
0
10
203
20
-146.5
11
217
21
-146.5
0
LINE
8
0
10
203
20
-132.5
11
217
21
-132.5
0
LINE
8
0
10
199
20
-142.5
11
199
21
-146.5
0
LINE
8
0
10
203
20
-128.5
11
217
21
-128.5
0
LINE
8
0
10
203
20
-114.5
11
217
21
-114.5
0
LINE
8
0
10
199
20
-124.5
11
199
21
-128.5
0
LINE
8
0
10
221
20
-160.5
11
231
21
-160.5
0
LINE
8
0
10
231
20
-160.5
11
231
21
-157
0
LINE
8
0
10
225
20
-146.5
11
221
21
-146.5
0
LINE
8
0
10
217
20
-146.5
11
217
21
-150.5
0
LINE
8
0
10
221
20
-142.5
11
231
21
-142.5
0
LINE
8
0
10
231
20
-142.5
11
231
21
-139
0
LINE
8
0
10
225
20
-128.5
11
221
21
-128.5
0
LINE
8
0
10
217
20
-128.5
11
217
21
-132.5
0
LINE
8
0
10
221
20
-124.5
11
231
21
-124.5
0
LINE
8
0
10
231
20
-124.5
11
231
21
-110.5
0
LINE
8
0
10
231
20
-110.5
11
217
21
-110.5
0
LINE
8
0
10
217
20
-110.5
11
217
21
-114.5
0
LINE
8
0
10
239
20
-165.5
11
243
21
-165.5
0
LINE
8
0
10
249
20
-165
11
249
21
-161
0
LINE
8
0
10
243
20
-151.5
11
239
21
-151.5
0
LINE
8
0
10
235
20
-157
11
235
21
-161
0
LINE
8
0
10
239
20
-147.5
11
243
21
-147.5
0
LINE
8
0
10
249
20
-147
11
249
21
-143
0
LINE
8
0
10
243
20
-133.5
11
239
21
-133.5
0
LINE
8
0
10
235
20
-139
11
235
21
-143
0
LINE
8
0
10
239
20
-129.5
11
243
21
-129.5
0
LINE
8
0
10
249
20
-129
11
249
21
-115.5
0
LINE
8
0
10
249
20
-115.5
11
235
21
-115.5
0
LINE
8
0
10
235
20
-115.5
11
235
21
-125
0
LINE
8
0
10
257
20
-167.5
11
267
21
-167.5
0
LINE
8
0
10
267
20
-167.5
11
267
21
-153.5
0
LINE
8
0
10
267
20
-153.5
11
257
21
-153.5
0
LINE
8
0
10
253
20
-161
11
253
21
-165
0
LINE
8
0
10
257
20
-149.5
11
267
21
-149.5
0
LINE
8
0
10
267
20
-149.5
11
267
21
-135.5
0
LINE
8
0
10
267
20
-135.5
11
257
21
-135.5
0
LINE
8
0
10
253
20
-143
11
253
21
-147
0
LINE
8
0
10
257
20
-131.5
11
267
21
-131.5
0
LINE
8
0
10
267
20
-131.5
11
267
21
-117.5
0
LINE
8
0
10
267
20
-117.5
11
253
21
-117.5
0
LINE
8
0
10
253
20
-117.5
11
253
21
-129
0
LINE
8
0
10
243
20
-179
11
257
21
-179
0
LINE
8
0
10
257
20
-179
11
257
21
-167.5
0
LINE
8
0
10
253
20
-165
11
249
21
-165
0
LINE
8
0
10
243
20
-165.5
11
243
21
-179
0
LINE
8
0
10
249
20
-161
11
253
21
-161
0
LINE
8
0
10
257
20
-153.5
11
257
21
-149.5
0
LINE
8
0
10
253
20
-147
11
249
21
-147
0
LINE
8
0
10
243
20
-147.5
11
243
21
-151.5
0
LINE
8
0
10
249
20
-143
11
253
21
-143
0
LINE
8
0
10
257
20
-135.5
11
257
21
-131.5
0
LINE
8
0
10
253
20
-129
11
249
21
-129
0
LINE
8
0
10
243
20
-129.5
11
243
21
-133.5
0
LINE
8
0
10
225
20
-175
11
239
21
-175
0
LINE
8
0
10
239
20
-175
11
239
21
-165.5
0
LINE
8
0
10
235
20
-161
11
225
21
-161
0
LINE
8
0
10
225
20
-161
11
225
21
-175
0
LINE
8
0
10
231
20
-157
11
235
21
-157
0
LINE
8
0
10
239
20
-151.5
11
239
21
-147.5
0
LINE
8
0
10
235
20
-143
11
225
21
-143
0
LINE
8
0
10
225
20
-143
11
225
21
-146.5
0
LINE
8
0
10
231
20
-139
11
235
21
-139
0
LINE
8
0
10
239
20
-133.5
11
239
21
-129.5
0
LINE
8
0
10
235
20
-125
11
225
21
-125
0
LINE
8
0
10
225
20
-125
11
225
21
-128.5
0
LINE
8
0
10
221
20
-182.5
11
221
21
-168.5
0
LINE
8
0
10
221
20
-164.5
11
221
21
-160.5
0
LINE
8
0
10
221
20
-146.5
11
221
21
-142.5
0
LINE
8
0
10
221
20
-128.5
11
221
21
-124.5
0
LINE
8
0
10
189
20
-160.5
11
199
21
-160.5
0
LINE
8
0
10
203
20
-150.5
11
203
21
-146.5
0
LINE
8
0
10
199
20
-146.5
11
195
21
-146.5
0
LINE
8
0
10
189
20
-157
11
189
21
-160.5
0
LINE
8
0
10
189
20
-142.5
11
199
21
-142.5
0
LINE
8
0
10
203
20
-132.5
11
203
21
-128.5
0
LINE
8
0
10
199
20
-128.5
11
195
21
-128.5
0
LINE
8
0
10
189
20
-139
11
189
21
-142.5
0
LINE
8
0
10
189
20
-124.5
11
199
21
-124.5
0
LINE
8
0
10
203
20
-114.5
11
203
21
-110.5
0
LINE
8
0
10
203
20
-110.5
11
189
21
-110.5
0
LINE
8
0
10
189
20
-110.5
11
189
21
-124.5
0
LINE
8
0
10
177
20
-165.5
11
181
21
-165.5
0
LINE
8
0
10
185
20
-161
11
185
21
-157
0
LINE
8
0
10
181
20
-151.5
11
177
21
-151.5
0
LINE
8
0
10
171
20
-161
11
171
21
-165
0
LINE
8
0
10
177
20
-147.5
11
181
21
-147.5
0
LINE
8
0
10
185
20
-143
11
185
21
-139
0
LINE
8
0
10
181
20
-133.5
11
177
21
-133.5
0
LINE
8
0
10
171
20
-143
11
171
21
-147
0
LINE
8
0
10
177
20
-129.5
11
181
21
-129.5
0
LINE
8
0
10
185
20
-125
11
185
21
-115.5
0
LINE
8
0
10
185
20
-115.5
11
171
21
-115.5
0
LINE
8
0
10
171
20
-115.5
11
171
21
-129
0
LINE
8
0
10
153
20
-167.5
11
163
21
-167.5
0
LINE
8
0
10
167
20
-165
11
167
21
-161
0
LINE
8
0
10
163
20
-153.5
11
153
21
-153.5
0
LINE
8
0
10
153
20
-153.5
11
153
21
-167.5
0
LINE
8
0
10
153
20
-149.5
11
163
21
-149.5
0
LINE
8
0
10
167
20
-147
11
167
21
-143
0
LINE
8
0
10
163
20
-135.5
11
153
21
-135.5
0
LINE
8
0
10
153
20
-135.5
11
153
21
-149.5
0
LINE
8
0
10
153
20
-131.5
11
163
21
-131.5
0
LINE
8
0
10
167
20
-129
11
167
21
-117.5
0
LINE
8
0
10
167
20
-117.5
11
153
21
-117.5
0
LINE
8
0
10
153
20
-117.5
11
153
21
-131.5
0
LINE
8
0
10
161.7
20
-180.3
11
178.3
21
-180.3
0
LINE
8
0
10
178.3
20
-180.3
11
178.3
21
-166.8
0
LINE
8
0
10
169.7
20
-163.7
11
168.3
21
-163.7
0
LINE
8
0
10
161.7
20
-168.8
11
161.7
21
-180.3
0
LINE
8
0
10
168.3
20
-162.3
11
169.7
21
-162.3
0
LINE
8
0
10
178.3
20
-150.2
11
178.3
21
-148.8
0
LINE
8
0
10
169.7
20
-145.7
11
168.3
21
-145.7
0
LINE
8
0
10
161.7
20
-150.8
11
161.7
21
-152.2
0
LINE
8
0
10
168.3
20
-144.3
11
169.7
21
-144.3
0
LINE
8
0
10
178.3
20
-132.2
11
178.3
21
-130.8
0
LINE
8
0
10
161.7
20
-132.8
11
161.7
21
-134.2
0
LINE
8
0
10
179.7
20
-176.3
11
196.3
21
-176.3
0
LINE
8
0
10
196.3
20
-176.3
11
196.3
21
-161.8
0
LINE
8
0
10
187.7
20
-159.7
11
186.3
21
-159.7
0
LINE
8
0
10
179.7
20
-166.8
11
179.7
21
-176.3
0
LINE
8
0
10
186.3
20
-158.3
11
187.7
21
-158.3
0
LINE
8
0
10
196.3
20
-145.2
11
196.3
21
-143.8
0
LINE
8
0
10
187.7
20
-141.7
11
186.3
21
-141.7
0
LINE
8
0
10
179.7
20
-148.8
11
179.7
21
-150.2
0
LINE
8
0
10
186.3
20
-140.3
11
187.7
21
-140.3
0
LINE
8
0
10
196.3
20
-127.2
11
196.3
21
-125.8
0
LINE
8
0
10
179.7
20
-130.8
11
179.7
21
-132.2
0
LINE
8
0
10
197.7
20
-183.8
11
222.3
21
-183.8
0
LINE
8
0
10
197.7
20
-167.2
11
222.3
21
-167.2
0
LINE
8
0
10
197.7
20
-167.2
11
197.7
21
-183.8
0
LINE
8
0
10
197.7
20
-165.8
11
222.3
21
-165.8
0
LINE
8
0
10
204.3
20
-149.2
11
215.7
21
-149.2
0
LINE
8
0
10
197.7
20
-161.8
11
197.7
21
-165.8
0
LINE
8
0
10
204.3
20
-147.8
11
215.7
21
-147.8
0
LINE
8
0
10
204.3
20
-131.2
11
215.7
21
-131.2
0
LINE
8
0
10
197.7
20
-143.8
11
197.7
21
-145.2
0
LINE
8
0
10
204.3
20
-129.8
11
215.7
21
-129.8
0
LINE
8
0
10
197.7
20
-125.8
11
197.7
21
-127.2
0
LINE
8
0
10
222.3
20
-161.8
11
223.7
21
-161.8
0
LINE
8
0
10
232.3
20
-159.7
11
232.3
21
-158.3
0
LINE
8
0
10
223.7
20
-145.2
11
222.3
21
-145.2
0
LINE
8
0
10
215.7
20
-147.8
11
215.7
21
-149.2
0
LINE
8
0
10
222.3
20
-143.8
11
223.7
21
-143.8
0
LINE
8
0
10
232.3
20
-141.7
11
232.3
21
-140.3
0
LINE
8
0
10
223.7
20
-127.2
11
222.3
21
-127.2
0
LINE
8
0
10
215.7
20
-129.8
11
215.7
21
-131.2
0
LINE
8
0
10
222.3
20
-125.8
11
223.7
21
-125.8
0
LINE
8
0
10
240.3
20
-166.8
11
241.7
21
-166.8
0
LINE
8
0
10
250.3
20
-163.7
11
250.3
21
-162.3
0
LINE
8
0
10
241.7
20
-150.2
11
240.3
21
-150.2
0
LINE
8
0
10
233.7
20
-158.3
11
233.7
21
-159.7
0
LINE
8
0
10
240.3
20
-148.8
11
241.7
21
-148.8
0
LINE
8
0
10
250.3
20
-145.7
11
250.3
21
-144.3
0
LINE
8
0
10
241.7
20
-132.2
11
240.3
21
-132.2
0
LINE
8
0
10
233.7
20
-140.3
11
233.7
21
-141.7
0
LINE
8
0
10
240.3
20
-130.8
11
241.7
21
-130.8
0
LINE
8
0
10
233.7
20
-114.2
11
233.7
21
-123.7
0
LINE
8
0
10
258.3
20
-168.8
11
268.3
21
-168.8
0
LINE
8
0
10
268.3
20
-168.8
11
268.3
21
-152.2
0
LINE
8
0
10
268.3
20
-152.2
11
258.3
21
-152.2
0
LINE
8
0
10
251.7
20
-162.3
11
251.7
21
-163.7
0
LINE
8
0
10
258.3
20
-150.8
11
268.3
21
-150.8
0
LINE
8
0
10
268.3
20
-150.8
11
268.3
21
-134.2
0
LINE
8
0
10
268.3
20
-134.2
11
258.3
21
-134.2
0
LINE
8
0
10
251.7
20
-144.3
11
251.7
21
-145.7
0
LINE
8
0
10
258.3
20
-132.8
11
268.3
21
-132.8
0
LINE
8
0
10
268.3
20
-132.8
11
268.3
21
-116.2
0
LINE
8
0
10
251.7
20
-116.2
11
251.7
21
-127.7
0
LINE
8
0
10
241.7
20
-180.3
11
258.3
21
-180.3
0
LINE
8
0
10
258.3
20
-180.3
11
258.3
21
-168.8
0
LINE
8
0
10
251.7
20
-163.7
11
250.3
21
-163.7
0
LINE
8
0
10
241.7
20
-166.8
11
241.7
21
-180.3
0
LINE
8
0
10
250.3
20
-162.3
11
251.7
21
-162.3
0
LINE
8
0
10
258.3
20
-152.2
11
258.3
21
-150.8
0
LINE
8
0
10
251.7
20
-145.7
11
250.3
21
-145.7
0
LINE
8
0
10
241.7
20
-148.8
11
241.7
21
-150.2
0
LINE
8
0
10
250.3
20
-144.3
11
251.7
21
-144.3
0
LINE
8
0
10
258.3
20
-134.2
11
258.3
21
-132.8
0
LINE
8
0
10
251.7
20
-127.7
11
250.3
21
-127.7
0
LINE
8
0
10
241.7
20
-130.8
11
241.7
21
-132.2
0
LINE
8
0
10
223.7
20
-176.3
11
240.3
21
-176.3
0
LINE
8
0
10
240.3
20
-176.3
11
240.3
21
-166.8
0
LINE
8
0
10
233.7
20
-159.7
11
232.3
21
-159.7
0
LINE
8
0
10
223.7
20
-161.8
11
223.7
21
-176.3
0
LINE
8
0
10
232.3
20
-158.3
11
233.7
21
-158.3
0
LINE
8
0
10
240.3
20
-150.2
11
240.3
21
-148.8
0
LINE
8
0
10
233.7
20
-141.7
11
232.3
21
-141.7
0
LINE
8
0
10
223.7
20
-143.8
11
223.7
21
-145.2
0
LINE
8
0
10
232.3
20
-140.3
11
233.7
21
-140.3
0
LINE
8
0
10
240.3
20
-132.2
11
240.3
21
-130.8
0
LINE
8
0
10
233.7
20
-123.7
11
232.3
21
-123.7
0
LINE
8
0
10
223.7
20
-125.8
11
223.7
21
-127.2
0
LINE
8
0
10
222.3
20
-183.8
11
222.3
21
-167.2
0
LINE
8
0
10
222.3
20
-165.8
11
222.3
21
-161.8
0
LINE
8
0
10
222.3
20
-145.2
11
222.3
21
-143.8
0
LINE
8
0
10
222.3
20
-127.2
11
222.3
21
-125.8
0
LINE
8
0
10
196.3
20
-161.8
11
197.7
21
-161.8
0
LINE
8
0
10
204.3
20
-149.2
11
204.3
21
-147.8
0
LINE
8
0
10
197.7
20
-145.2
11
196.3
21
-145.2
0
LINE
8
0
10
187.7
20
-158.3
11
187.7
21
-159.7
0
LINE
8
0
10
196.3
20
-143.8
11
197.7
21
-143.8
0
LINE
8
0
10
204.3
20
-131.2
11
204.3
21
-129.8
0
LINE
8
0
10
197.7
20
-127.2
11
196.3
21
-127.2
0
LINE
8
0
10
187.7
20
-140.3
11
187.7
21
-141.7
0
LINE
8
0
10
196.3
20
-125.8
11
197.7
21
-125.8
0
LINE
8
0
10
204.3
20
-113.2
11
204.3
21
-109.2
0
LINE
8
0
10
204.3
20
-109.2
11
187.7
21
-109.2
0
LINE
8
0
10
187.7
20
-109.2
11
187.7
21
-123.7
0
LINE
8
0
10
178.3
20
-166.8
11
179.7
21
-166.8
0
LINE
8
0
10
186.3
20
-159.7
11
186.3
21
-158.3
0
LINE
8
0
10
179.7
20
-150.2
11
178.3
21
-150.2
0
LINE
8
0
10
169.7
20
-162.3
11
169.7
21
-163.7
0
LINE
8
0
10
178.3
20
-148.8
11
179.7
21
-148.8
0
LINE
8
0
10
186.3
20
-141.7
11
186.3
21
-140.3
0
LINE
8
0
10
179.7
20
-132.2
11
178.3
21
-132.2
0
LINE
8
0
10
169.7
20
-144.3
11
169.7
21
-145.7
0
LINE
8
0
10
178.3
20
-130.8
11
179.7
21
-130.8
0
LINE
8
0
10
186.3
20
-123.7
11
186.3
21
-114.2
0
LINE
8
0
10
186.3
20
-114.2
11
169.7
21
-114.2
0
LINE
8
0
10
169.7
20
-114.2
11
169.7
21
-127.7
0
LINE
8
0
10
151.7
20
-168.8
11
161.7
21
-168.8
0
LINE
8
0
10
168.3
20
-163.7
11
168.3
21
-162.3
0
LINE
8
0
10
161.7
20
-152.2
11
151.7
21
-152.2
0
LINE
8
0
10
151.7
20
-152.2
11
151.7
21
-168.8
0
LINE
8
0
10
151.7
20
-150.8
11
161.7
21
-150.8
0
LINE
8
0
10
168.3
20
-145.7
11
168.3
21
-144.3
0
LINE
8
0
10
161.7
20
-134.2
11
151.7
21
-134.2
0
LINE
8
0
10
151.7
20
-134.2
11
151.7
21
-150.8
0
LINE
8
0
10
151.7
20
-132.8
11
161.7
21
-132.8
0
LINE
8
0
10
168.3
20
-127.7
11
168.3
21
-116.2
0
LINE
8
0
10
168.3
20
-116.2
11
151.7
21
-116.2
0
LINE
8
0
10
151.7
20
-116.2
11
151.7
21
-132.8
0
ENDSEC
0
EOF