0
SECTION
2
HEADER
9
$INSUNITS
70
4
0
ENDSEC
0
SECTION
2
TABLES
0
TABLE
2
LTYPE
0
LTYPE
72
65
70
64
2
CONTINUOUS
3
______
73
0
40
0
0
ENDTAB
0
TABLE
2
LAYER
0
ENDTAB
0
ENDSEC
0
SECTION
2
ENTITIES
0
LINE
8
0
10
51.6600889
20
3.9711546
11
50.3808063
21
7.1066511
0
LINE
8
0
10
48.9919556
20
8.04
11
-8.46
21
8.04
0
LINE
8
0
10
-9.96
20
9.54
11
-9.96
21
62.46
0
LINE
8
0
10
-8.46
20
63.96
11
6.5
21
63.96
0
LINE
8
0
10
8
20
65.46
11
8
21
66.46
0
LINE
8
0
10
9.5
20
67.96
11
24.5
21
67.96
0
LINE
8
0
10
26
20
69.46
11
26
21
80.46
0
LINE
8
0
10
27.5
20
81.96
11
42.5
21
81.96
0
LINE
8
0
10
44
20
83.46
11
44
21
84.46
0
LINE
8
0
10
45.5
20
85.96
11
62.5
21
85.96
0
LINE
8
0
10
64
20
84.46
11
64
21
82.46
0
LINE
8
0
10
65.5
20
80.96
11
80.5
21
80.96
0
LINE
8
0
10
82
20
79.46
11
82
21
78.46
0
LINE
8
0
10
83.5
20
76.96
11
118.38
21
76.96
0
LINE
8
0
10
119.88
20
75.46
11
119.88
21
17.8516246
0
LINE
8
0
10
120.3562721
20
16.7552757
11
130.4150271
21
7.3628016
0
LINE
8
0
10
130.6903373
20
5.5164527
11
122.0733212
21
-9.4086569
0
LINE
8
0
10
120.0298187
20
-9.9608753
11
105.1130343
21
-1.4331092
0
LINE
8
0
10
104.7567984
20
-1.2864389
11
89.0991884
21
2.9090051
0
LINE
8
0
10
88.7142273
20
2.9601127
11
53.0456723
21
3.0378094
0
ARC
8
0
10
48.9919556
20
6.54
40
1.5
50
22.1954593
51
90
0
ARC
8
0
10
-8.46
20
9.54
40
1.5
50
180
51
270
0
ARC
8
0
10
-8.46
20
62.46
40
1.5
50
90
51
180
0
ARC
8
0
10
6.5
20
65.46
40
1.5
50
270
51
0
0
ARC
8
0
10
9.5
20
66.46
40
1.5
50
90
51
180
0
ARC
8
0
10
24.5
20
69.46
40
1.5
50
270
51
0
0
ARC
8
0
10
27.5
20
80.46
40
1.5
50
90
51
180
0
ARC
8
0
10
42.5
20
83.46
40
1.5
50
270
51
0
0
ARC
8
0
10
45.5
20
84.46
40
1.5
50
90
51
180
0
ARC
8
0
10
62.5
20
84.46
40
1.5
50
0
51
90
0
ARC
8
0
10
65.5
20
82.46
40
1.5
50
180
51
270
0
ARC
8
0
10
80.5
20
79.46
40
1.5
50
0
51
90
0
ARC
8
0
10
83.5
20
78.46
40
1.5
50
180
51
270
0
ARC
8
0
10
118.38
20
75.46
40
1.5
50
0
51
90
0
ARC
8
0
10
121.38
20
17.8516246
40
1.5
50
180
51
226.9618395
0
ARC
8
0
10
129.3912992
20
6.2664527
40
1.5
50
329.9999999
51
46.9618395
0
ARC
8
0
10
120.7742831
20
-8.6586569
40
1.5
50
240.2438561
51
329.9999999
0
ARC
8
0
10
104.3685699
20
-2.7353276
40
1.5
50
60.2438561
51
75.0000021
0
ARC
8
0
10
88.7109598
20
1.4601163
40
1.5
50
75.0000021
51
89.8751925
0
ARC
8
0
10
53.0489397
20
4.5378057
40
1.5
50
202.1954593
51
269.8751925
0
LINE
8
0
10
-7
20
11
11
7
21
11
0
LINE
8
0
10
7
20
11
11
7
21
25
0
LINE
8
0
10
7
20
25
11
-7
21
25
0
LINE
8
0
10
-7
20
25
11
-7
21
11
0
LINE
8
0
10
-7
20
29
11
7
21
29
0
LINE
8
0
10
7
20
29
11
7
21
43
0
LINE
8
0
10
7
20
43
11
-7
21
43
0
LINE
8
0
10
-7
20
43
11
-7
21
29
0
LINE
8
0
10
-7
20
47
11
7
21
47
0
LINE
8
0
10
7
20
47
11
7
21
61
0
LINE
8
0
10
7
20
61
11
-7
21
61
0
LINE
8
0
10
-7
20
61
11
-7
21
47
0
LINE
8
0
10
11
20
15
11
25
21
15
0
LINE
8
0
10
25
20
15
11
25
21
29
0
LINE
8
0
10
25
20
29
11
11
21
29
0
LINE
8
0
10
11
20
29
11
11
21
15
0
LINE
8
0
10
11
20
33
11
25
21
33
0
LINE
8
0
10
25
20
33
11
25
21
47
0
LINE
8
0
10
25
20
47
11
11
21
47
0
LINE
8
0
10
11
20
47
11
11
21
33
0
LINE
8
0
10
11
20
51
11
25
21
51
0
LINE
8
0
10
25
20
51
11
25
21
65
0
LINE
8
0
10
25
20
65
11
11
21
65
0
LINE
8
0
10
11
20
65
11
11
21
51
0
LINE
8
0
10
29
20
11
11
43
21
11
0
LINE
8
0
10
43
20
11
11
43
21
25
0
LINE
8
0
10
43
20
25
11
29
21
25
0
LINE
8
0
10
29
20
25
11
29
21
11
0
LINE
8
0
10
29
20
29
11
43
21
29
0
LINE
8
0
10
43
20
29
11
43
21
43
0
LINE
8
0
10
43
20
43
11
29
21
43
0
LINE
8
0
10
29
20
43
11
29
21
29
0
LINE
8
0
10
29
20
47
11
43
21
47
0
LINE
8
0
10
43
20
47
11
43
21
61
0
LINE
8
0
10
43
20
61
11
29
21
61
0
LINE
8
0
10
29
20
61
11
29
21
47
0
LINE
8
0
10
29
20
65
11
43
21
65
0
LINE
8
0
10
43
20
65
11
43
21
79
0
LINE
8
0
10
43
20
79
11
29
21
79
0
LINE
8
0
10
29
20
79
11
29
21
65
0
LINE
8
0
10
47
20
33
11
61
21
33
0
LINE
8
0
10
61
20
33
11
61
21
47
0
LINE
8
0
10
61
20
47
11
47
21
47
0
LINE
8
0
10
47
20
47
11
47
21
33
0
LINE
8
0
10
47
20
51
11
61
21
51
0
LINE
8
0
10
61
20
51
11
61
21
65
0
LINE
8
0
10
61
20
65
11
47
21
65
0
LINE
8
0
10
47
20
65
11
47
21
51
0
LINE
8
0
10
47
20
69
11
61
21
69
0
LINE
8
0
10
61
20
69
11
61
21
83
0
LINE
8
0
10
61
20
83
11
47
21
83
0
LINE
8
0
10
47
20
83
11
47
21
69
0
LINE
8
0
10
65
20
28
11
79
21
28
0
LINE
8
0
10
79
20
28
11
79
21
42
0
LINE
8
0
10
79
20
42
11
65
21
42
0
LINE
8
0
10
65
20
42
11
65
21
28
0
LINE
8
0
10
65
20
46
11
79
21
46
0
LINE
8
0
10
79
20
46
11
79
21
60
0
LINE
8
0
10
79
20
60
11
65
21
60
0
LINE
8
0
10
65
20
60
11
65
21
46
0
LINE
8
0
10
65
20
64
11
79
21
64
0
LINE
8
0
10
79
20
64
11
79
21
78
0
LINE
8
0
10
79
20
78
11
65
21
78
0
LINE
8
0
10
65
20
78
11
65
21
64
0
LINE
8
0
10
83
20
24
11
97
21
24
0
LINE
8
0
10
97
20
24
11
97
21
38
0
LINE
8
0
10
97
20
38
11
83
21
38
0
LINE
8
0
10
83
20
38
11
83
21
24
0
LINE
8
0
10
83
20
42
11
97
21
42
0
LINE
8
0
10
97
20
42
11
97
21
56
0
LINE
8
0
10
97
20
56
11
83
21
56
0
LINE
8
0
10
83
20
56
11
83
21
42
0
LINE
8
0
10
83
20
60
11
97
21
60
0
LINE
8
0
10
97
20
60
11
97
21
74
0
LINE
8
0
10
97
20
74
11
83
21
74
0
LINE
8
0
10
83
20
74
11
83
21
60
0
LINE
8
0
10
101
20
21.2
11
115
21
21.2
0
LINE
8
0
10
115
20
21.2
11
115
21
35.2
0
LINE
8
0
10
115
20
35.2
11
101
21
35.2
0
LINE
8
0
10
101
20
35.2
11
101
21
21.2
0
LINE
8
0
10
55
20
6
11
69
21
6
0
LINE
8
0
10
69
20
6
11
69
21
20
0
LINE
8
0
10
69
20
20
11
55
21
20
0
LINE
8
0
10
55
20
20
11
55
21
6
0
LINE
8
0
10
73
20
6
11
87
21
6
0
LINE
8
0
10
87
20
6
11
87
21
20
0
LINE
8
0
10
87
20
20
11
73
21
20
0
LINE
8
0
10
73
20
20
11
73
21
6
0
LINE
8
0
10
90.9318517
20
5.4823619
11
104.4548133
21
1.8588953
0
LINE
8
0
10
104.4548133
20
1.8588953
11
108.0782799
21
15.3818569
0
LINE
8
0
10
108.0782799
20
15.3818569
11
94.5553183
21
19.0053235
0
LINE
8
0
10
94.5553183
20
19.0053235
11
90.9318517
21
5.4823619
0
LINE
8
0
10
108.1187157
20
0.3412573
11
120.2430713
21
-6.6587427
0
LINE
8
0
10
120.2430713
20
-6.6587427
11
127.2430713
21
5.4656129
0
LINE
8
0
10
127.2430713
20
5.4656129
11
115.1187157
21
12.4656129
0
LINE
8
0
10
115.1187157
20
12.4656129
11
108.1187157
21
0.3412573
0
LINE
8
0
10
-8.3
20
9.7
11
8.3
21
9.7
0
LINE
8
0
10
8.3
20
9.7
11
8.3
21
26.3
0
LINE
8
0
10
8.3
20
26.3
11
-8.3
21
26.3
0
LINE
8
0
10
-8.3
20
26.3
11
-8.3
21
9.7
0
LINE
8
0
10
-8.3
20
27.7
11
8.3
21
27.7
0
LINE
8
0
10
8.3
20
27.7
11
8.3
21
44.3
0
LINE
8
0
10
8.3
20
44.3
11
-8.3
21
44.3
0
LINE
8
0
10
-8.3
20
44.3
11
-8.3
21
27.7
0
LINE
8
0
10
-8.3
20
45.7
11
8.3
21
45.7
0
LINE
8
0
10
8.3
20
45.7
11
8.3
21
62.3
0
LINE
8
0
10
8.3
20
62.3
11
-8.3
21
62.3
0
LINE
8
0
10
-8.3
20
62.3
11
-8.3
21
45.7
0
LINE
8
0
10
9.7
20
13.7
11
26.3
21
13.7
0
LINE
8
0
10
26.3
20
13.7
11
26.3
21
30.3
0
LINE
8
0
10
26.3
20
30.3
11
9.7
21
30.3
0
LINE
8
0
10
9.7
20
30.3
11
9.7
21
13.7
0
LINE
8
0
10
9.7
20
31.7
11
26.3
21
31.7
0
LINE
8
0
10
26.3
20
31.7
11
26.3
21
48.3
0
LINE
8
0
10
26.3
20
48.3
11
9.7
21
48.3
0
LINE
8
0
10
9.7
20
48.3
11
9.7
21
31.7
0
LINE
8
0
10
9.7
20
49.7
11
26.3
21
49.7
0
LINE
8
0
10
26.3
20
49.7
11
26.3
21
66.3
0
LINE
8
0
10
26.3
20
66.3
11
9.7
21
66.3
0
LINE
8
0
10
9.7
20
66.3
11
9.7
21
49.7
0
LINE
8
0
10
27.7
20
9.7
11
44.3
21
9.7
0
LINE
8
0
10
44.3
20
9.7
11
44.3
21
26.3
0
LINE
8
0
10
44.3
20
26.3
11
27.7
21
26.3
0
LINE
8
0
10
27.7
20
26.3
11
27.7
21
9.7
0
LINE
8
0
10
27.7
20
27.7
11
44.3
21
27.7
0
LINE
8
0
10
44.3
20
27.7
11
44.3
21
44.3
0
LINE
8
0
10
44.3
20
44.3
11
27.7
21
44.3
0
LINE
8
0
10
27.7
20
44.3
11
27.7
21
27.7
0
LINE
8
0
10
27.7
20
45.7
11
44.3
21
45.7
0
LINE
8
0
10
44.3
20
45.7
11
44.3
21
62.3
0
LINE
8
0
10
44.3
20
62.3
11
27.7
21
62.3
0
LINE
8
0
10
27.7
20
62.3
11
27.7
21
45.7
0
LINE
8
0
10
27.7
20
63.7
11
44.3
21
63.7
0
LINE
8
0
10
44.3
20
63.7
11
44.3
21
80.3
0
LINE
8
0
10
44.3
20
80.3
11
27.7
21
80.3
0
LINE
8
0
10
27.7
20
80.3
11
27.7
21
63.7
0
LINE
8
0
10
45.7
20
31.7
11
62.3
21
31.7
0
LINE
8
0
10
62.3
20
31.7
11
62.3
21
48.3
0
LINE
8
0
10
62.3
20
48.3
11
45.7
21
48.3
0
LINE
8
0
10
45.7
20
48.3
11
45.7
21
31.7
0
LINE
8
0
10
45.7
20
49.7
11
62.3
21
49.7
0
LINE
8
0
10
62.3
20
49.7
11
62.3
21
66.3
0
LINE
8
0
10
62.3
20
66.3
11
45.7
21
66.3
0
LINE
8
0
10
45.7
20
66.3
11
45.7
21
49.7
0
LINE
8
0
10
45.7
20
67.7
11
62.3
21
67.7
0
LINE
8
0
10
62.3
20
67.7
11
62.3
21
84.3
0
LINE
8
0
10
62.3
20
84.3
11
45.7
21
84.3
0
LINE
8
0
10
45.7
20
84.3
11
45.7
21
67.7
0
LINE
8
0
10
63.7
20
26.7
11
80.3
21
26.7
0
LINE
8
0
10
80.3
20
26.7
11
80.3
21
43.3
0
LINE
8
0
10
80.3
20
43.3
11
63.7
21
43.3
0
LINE
8
0
10
63.7
20
43.3
11
63.7
21
26.7
0
LINE
8
0
10
63.7
20
44.7
11
80.3
21
44.7
0
LINE
8
0
10
80.3
20
44.7
11
80.3
21
61.3
0
LINE
8
0
10
80.3
20
61.3
11
63.7
21
61.3
0
LINE
8
0
10
63.7
20
61.3
11
63.7
21
44.7
0
LINE
8
0
10
63.7
20
62.7
11
80.3
21
62.7
0
LINE
8
0
10
80.3
20
62.7
11
80.3
21
79.3
0
LINE
8
0
10
80.3
20
79.3
11
63.7
21
79.3
0
LINE
8
0
10
63.7
20
79.3
11
63.7
21
62.7
0
LINE
8
0
10
81.7
20
22.7
11
98.3
21
22.7
0
LINE
8
0
10
98.3
20
22.7
11
98.3
21
39.3
0
LINE
8
0
10
98.3
20
39.3
11
81.7
21
39.3
0
LINE
8
0
10
81.7
20
39.3
11
81.7
21
22.7
0
LINE
8
0
10
81.7
20
40.7
11
98.3
21
40.7
0
LINE
8
0
10
98.3
20
40.7
11
98.3
21
57.3
0
LINE
8
0
10
98.3
20
57.3
11
81.7
21
57.3
0
LINE
8
0
10
81.7
20
57.3
11
81.7
21
40.7
0
LINE
8
0
10
81.7
20
58.7
11
98.3
21
58.7
0
LINE
8
0
10
98.3
20
58.7
11
98.3
21
75.3
0
LINE
8
0
10
98.3
20
75.3
11
81.7
21
75.3
0
LINE
8
0
10
81.7
20
75.3
11
81.7
21
58.7
0
LINE
8
0
10
99.7
20
19.9
11
116.3
21
19.9
0
LINE
8
0
10
116.3
20
19.9
11
116.3
21
36.5
0
LINE
8
0
10
116.3
20
36.5
11
99.7
21
36.5
0
LINE
8
0
10
99.7
20
36.5
11
99.7
21
19.9
0
LINE
8
0
10
53.7
20
4.7
11
70.3
21
4.7
0
LINE
8
0
10
70.3
20
4.7
11
70.3
21
21.3
0
LINE
8
0
10
70.3
20
21.3
11
53.7
21
21.3
0
LINE
8
0
10
53.7
20
21.3
11
53.7
21
4.7
0
LINE
8
0
10
71.7
20
4.7
11
88.3
21
4.7
0
LINE
8
0
10
88.3
20
4.7
11
88.3
21
21.3
0
LINE
8
0
10
88.3
20
21.3
11
71.7
21
21.3
0
LINE
8
0
10
71.7
20
21.3
11
71.7
21
4.7
0
LINE
8
0
10
89.3396834
20
4.5631231
11
105.3740521
21
0.266727
0
LINE
8
0
10
105.3740521
20
0.266727
11
109.6704482
21
16.3010957
0
LINE
8
0
10
109.6704482
20
16.3010957
11
93.6360795
21
20.5974918
0
LINE
8
0
10
93.6360795
20
20.5974918
11
89.3396834
21
4.5631231
0
LINE
8
0
10
106.3428826
20
-0.1345758
11
120.7189044
21
-8.4345758
0
LINE
8
0
10
120.7189044
20
-8.4345758
11
129.0189044
21
5.941446
0
LINE
8
0
10
129.0189044
20
5.941446
11
114.6428826
21
14.241446
0
LINE
8
0
10
114.6428826
20
14.241446
11
106.3428826
21
-0.1345758
0
LINE
8
0
10
99.71
20
42.3
11
117.49
21
42.3
0
LINE
8
0
10
117.49
20
42.3
11
117.49
21
75.3
0
LINE
8
0
10
117.49
20
75.3
11
99.71
21
75.3
0
LINE
8
0
10
99.71
20
75.3
11
99.71
21
42.3
0
ENDSEC
0
EOF