0
SECTION
2
HEADER
9
$INSUNITS
70
4
0
ENDSEC
0
SECTION
2
TABLES
0
TABLE
2
LTYPE
0
LTYPE
72
65
70
64
2
CONTINUOUS
3
______
73
0
40
0
0
ENDTAB
0
TABLE
2
LAYER
0
ENDTAB
0
ENDSEC
0
SECTION
2
ENTITIES
0
LINE
8
0
10
163
20
-179
11
177
21
-179
0
LINE
8
0
10
177
20
-179
11
177
21
-165
0
LINE
8
0
10
177
20
-165
11
163
21
-165
0
LINE
8
0
10
163
20
-165
11
163
21
-179
0
LINE
8
0
10
163
20
-161
11
177
21
-161
0
LINE
8
0
10
177
20
-161
11
177
21
-147
0
LINE
8
0
10
177
20
-147
11
163
21
-147
0
LINE
8
0
10
163
20
-147
11
163
21
-161
0
LINE
8
0
10
163
20
-143
11
177
21
-143
0
LINE
8
0
10
177
20
-143
11
177
21
-129
0
LINE
8
0
10
177
20
-129
11
163
21
-129
0
LINE
8
0
10
163
20
-129
11
163
21
-143
0
LINE
8
0
10
181
20
-175
11
195
21
-175
0
LINE
8
0
10
195
20
-175
11
195
21
-161
0
LINE
8
0
10
195
20
-161
11
181
21
-161
0
LINE
8
0
10
181
20
-161
11
181
21
-175
0
LINE
8
0
10
181
20
-157
11
195
21
-157
0
LINE
8
0
10
195
20
-157
11
195
21
-143
0
LINE
8
0
10
195
20
-143
11
181
21
-143
0
LINE
8
0
10
181
20
-143
11
181
21
-157
0
LINE
8
0
10
181
20
-139
11
195
21
-139
0
LINE
8
0
10
195
20
-139
11
195
21
-125
0
LINE
8
0
10
195
20
-125
11
181
21
-125
0
LINE
8
0
10
181
20
-125
11
181
21
-139
0
LINE
8
0
10
199
20
-182.5
11
213
21
-182.5
0
LINE
8
0
10
213
20
-182.5
11
213
21
-168.5
0
LINE
8
0
10
213
20
-168.5
11
199
21
-168.5
0
LINE
8
0
10
199
20
-168.5
11
199
21
-182.5
0
LINE
8
0
10
199
20
-164.5
11
213
21
-164.5
0
LINE
8
0
10
213
20
-164.5
11
213
21
-150.5
0
LINE
8
0
10
213
20
-150.5
11
199
21
-150.5
0
LINE
8
0
10
199
20
-150.5
11
199
21
-164.5
0
LINE
8
0
10
199
20
-146.5
11
213
21
-146.5
0
LINE
8
0
10
213
20
-146.5
11
213
21
-132.5
0
LINE
8
0
10
213
20
-132.5
11
199
21
-132.5
0
LINE
8
0
10
199
20
-132.5
11
199
21
-146.5
0
LINE
8
0
10
199
20
-128.5
11
213
21
-128.5
0
LINE
8
0
10
213
20
-128.5
11
213
21
-114.5
0
LINE
8
0
10
213
20
-114.5
11
199
21
-114.5
0
LINE
8
0
10
199
20
-114.5
11
199
21
-128.5
0
LINE
8
0
10
217
20
-160.5
11
231
21
-160.5
0
LINE
8
0
10
231
20
-160.5
11
231
21
-146.5
0
LINE
8
0
10
231
20
-146.5
11
217
21
-146.5
0
LINE
8
0
10
217
20
-146.5
11
217
21
-160.5
0
LINE
8
0
10
217
20
-142.5
11
231
21
-142.5
0
LINE
8
0
10
231
20
-142.5
11
231
21
-128.5
0
LINE
8
0
10
231
20
-128.5
11
217
21
-128.5
0
LINE
8
0
10
217
20
-128.5
11
217
21
-142.5
0
LINE
8
0
10
217
20
-124.5
11
231
21
-124.5
0
LINE
8
0
10
231
20
-124.5
11
231
21
-110.5
0
LINE
8
0
10
231
20
-110.5
11
217
21
-110.5
0
LINE
8
0
10
217
20
-110.5
11
217
21
-124.5
0
LINE
8
0
10
235
20
-165.5
11
249
21
-165.5
0
LINE
8
0
10
249
20
-165.5
11
249
21
-151.5
0
LINE
8
0
10
249
20
-151.5
11
235
21
-151.5
0
LINE
8
0
10
235
20
-151.5
11
235
21
-165.5
0
LINE
8
0
10
235
20
-147.5
11
249
21
-147.5
0
LINE
8
0
10
249
20
-147.5
11
249
21
-133.5
0
LINE
8
0
10
249
20
-133.5
11
235
21
-133.5
0
LINE
8
0
10
235
20
-133.5
11
235
21
-147.5
0
LINE
8
0
10
235
20
-129.5
11
249
21
-129.5
0
LINE
8
0
10
249
20
-129.5
11
249
21
-115.5
0
LINE
8
0
10
249
20
-115.5
11
235
21
-115.5
0
LINE
8
0
10
235
20
-115.5
11
235
21
-129.5
0
LINE
8
0
10
253
20
-167.5
11
267
21
-167.5
0
LINE
8
0
10
267
20
-167.5
11
267
21
-153.5
0
LINE
8
0
10
267
20
-153.5
11
253
21
-153.5
0
LINE
8
0
10
253
20
-153.5
11
253
21
-167.5
0
LINE
8
0
10
253
20
-149.5
11
267
21
-149.5
0
LINE
8
0
10
267
20
-149.5
11
267
21
-135.5
0
LINE
8
0
10
267
20
-135.5
11
253
21
-135.5
0
LINE
8
0
10
253
20
-135.5
11
253
21
-149.5
0
LINE
8
0
10
253
20
-131.5
11
267
21
-131.5
0
LINE
8
0
10
267
20
-131.5
11
267
21
-117.5
0
LINE
8
0
10
267
20
-117.5
11
253
21
-117.5
0
LINE
8
0
10
253
20
-117.5
11
253
21
-131.5
0
LINE
8
0
10
217
20
-185.5
11
231
21
-185.5
0
LINE
8
0
10
231
20
-185.5
11
231
21
-171.5
0
LINE
8
0
10
231
20
-171.5
11
217
21
-171.5
0
LINE
8
0
10
217
20
-171.5
11
217
21
-185.5
0
LINE
8
0
10
235
20
-185.5
11
249
21
-185.5
0
LINE
8
0
10
249
20
-185.5
11
249
21
-171.5
0
LINE
8
0
10
249
20
-171.5
11
235
21
-171.5
0
LINE
8
0
10
235
20
-171.5
11
235
21
-185.5
0
LINE
8
0
10
252.9318517
20
-186.0176381
11
266.4548133
21
-189.6411047
0
LINE
8
0
10
266.4548133
20
-189.6411047
11
270.0782799
21
-176.1181431
0
LINE
8
0
10
270.0782799
20
-176.1181431
11
256.5553183
21
-172.4946765
0
LINE
8
0
10
256.5553183
20
-172.4946765
11
252.9318517
21
-186.0176381
0
LINE
8
0
10
270.1187157
20
-191.1587427
11
282.2430713
21
-198.1587427
0
LINE
8
0
10
282.2430713
20
-198.1587427
11
289.2430713
21
-186.0343871
0
LINE
8
0
10
289.2430713
20
-186.0343871
11
277.1187157
21
-179.0343871
0
LINE
8
0
10
277.1187157
20
-179.0343871
11
270.1187157
21
-191.1587427
0
LINE
8
0
10
422.361787
20
-179
11
436.361787
21
-179
0
LINE
8
0
10
436.361787
20
-179
11
436.361787
21
-165
0
LINE
8
0
10
436.361787
20
-165
11
422.361787
21
-165
0
LINE
8
0
10
422.361787
20
-165
11
422.361787
21
-179
0
LINE
8
0
10
422.361787
20
-161
11
436.361787
21
-161
0
LINE
8
0
10
436.361787
20
-161
11
436.361787
21
-147
0
LINE
8
0
10
436.361787
20
-147
11
422.361787
21
-147
0
LINE
8
0
10
422.361787
20
-147
11
422.361787
21
-161
0
LINE
8
0
10
422.361787
20
-143
11
436.361787
21
-143
0
LINE
8
0
10
436.361787
20
-143
11
436.361787
21
-129
0
LINE
8
0
10
436.361787
20
-129
11
422.361787
21
-129
0
LINE
8
0
10
422.361787
20
-129
11
422.361787
21
-143
0
LINE
8
0
10
404.361787
20
-175
11
418.361787
21
-175
0
LINE
8
0
10
418.361787
20
-175
11
418.361787
21
-161
0
LINE
8
0
10
418.361787
20
-161
11
404.361787
21
-161
0
LINE
8
0
10
404.361787
20
-161
11
404.361787
21
-175
0
LINE
8
0
10
404.361787
20
-157
11
418.361787
21
-157
0
LINE
8
0
10
418.361787
20
-157
11
418.361787
21
-143
0
LINE
8
0
10
418.361787
20
-143
11
404.361787
21
-143
0
LINE
8
0
10
404.361787
20
-143
11
404.361787
21
-157
0
LINE
8
0
10
404.361787
20
-139
11
418.361787
21
-139
0
LINE
8
0
10
418.361787
20
-139
11
418.361787
21
-125
0
LINE
8
0
10
418.361787
20
-125
11
404.361787
21
-125
0
LINE
8
0
10
404.361787
20
-125
11
404.361787
21
-139
0
LINE
8
0
10
386.361787
20
-182.5
11
400.361787
21
-182.5
0
LINE
8
0
10
400.361787
20
-182.5
11
400.361787
21
-168.5
0
LINE
8
0
10
400.361787
20
-168.5
11
386.361787
21
-168.5
0
LINE
8
0
10
386.361787
20
-168.5
11
386.361787
21
-182.5
0
LINE
8
0
10
386.361787
20
-164.5
11
400.361787
21
-164.5
0
LINE
8
0
10
400.361787
20
-164.5
11
400.361787
21
-150.5
0
LINE
8
0
10
400.361787
20
-150.5
11
386.361787
21
-150.5
0
LINE
8
0
10
386.361787
20
-150.5
11
386.361787
21
-164.5
0
LINE
8
0
10
386.361787
20
-146.5
11
400.361787
21
-146.5
0
LINE
8
0
10
400.361787
20
-146.5
11
400.361787
21
-132.5
0
LINE
8
0
10
400.361787
20
-132.5
11
386.361787
21
-132.5
0
LINE
8
0
10
386.361787
20
-132.5
11
386.361787
21
-146.5
0
LINE
8
0
10
386.361787
20
-128.5
11
400.361787
21
-128.5
0
LINE
8
0
10
400.361787
20
-128.5
11
400.361787
21
-114.5
0
LINE
8
0
10
400.361787
20
-114.5
11
386.361787
21
-114.5
0
LINE
8
0
10
386.361787
20
-114.5
11
386.361787
21
-128.5
0
LINE
8
0
10
368.361787
20
-160.5
11
382.361787
21
-160.5
0
LINE
8
0
10
382.361787
20
-160.5
11
382.361787
21
-146.5
0
LINE
8
0
10
382.361787
20
-146.5
11
368.361787
21
-146.5
0
LINE
8
0
10
368.361787
20
-146.5
11
368.361787
21
-160.5
0
LINE
8
0
10
368.361787
20
-142.5
11
382.361787
21
-142.5
0
LINE
8
0
10
382.361787
20
-142.5
11
382.361787
21
-128.5
0
LINE
8
0
10
382.361787
20
-128.5
11
368.361787
21
-128.5
0
LINE
8
0
10
368.361787
20
-128.5
11
368.361787
21
-142.5
0
LINE
8
0
10
368.361787
20
-124.5
11
382.361787
21
-124.5
0
LINE
8
0
10
382.361787
20
-124.5
11
382.361787
21
-110.5
0
LINE
8
0
10
382.361787
20
-110.5
11
368.361787
21
-110.5
0
LINE
8
0
10
368.361787
20
-110.5
11
368.361787
21
-124.5
0
LINE
8
0
10
350.361787
20
-165.5
11
364.361787
21
-165.5
0
LINE
8
0
10
364.361787
20
-165.5
11
364.361787
21
-151.5
0
LINE
8
0
10
364.361787
20
-151.5
11
350.361787
21
-151.5
0
LINE
8
0
10
350.361787
20
-151.5
11
350.361787
21
-165.5
0
LINE
8
0
10
350.361787
20
-147.5
11
364.361787
21
-147.5
0
LINE
8
0
10
364.361787
20
-147.5
11
364.361787
21
-133.5
0
LINE
8
0
10
364.361787
20
-133.5
11
350.361787
21
-133.5
0
LINE
8
0
10
350.361787
20
-133.5
11
350.361787
21
-147.5
0
LINE
8
0
10
350.361787
20
-129.5
11
364.361787
21
-129.5
0
LINE
8
0
10
364.361787
20
-129.5
11
364.361787
21
-115.5
0
LINE
8
0
10
364.361787
20
-115.5
11
350.361787
21
-115.5
0
LINE
8
0
10
350.361787
20
-115.5
11
350.361787
21
-129.5
0
LINE
8
0
10
332.361787
20
-167.5
11
346.361787
21
-167.5
0
LINE
8
0
10
346.361787
20
-167.5
11
346.361787
21
-153.5
0
LINE
8
0
10
346.361787
20
-153.5
11
332.361787
21
-153.5
0
LINE
8
0
10
332.361787
20
-153.5
11
332.361787
21
-167.5
0
LINE
8
0
10
332.361787
20
-149.5
11
346.361787
21
-149.5
0
LINE
8
0
10
346.361787
20
-149.5
11
346.361787
21
-135.5
0
LINE
8
0
10
346.361787
20
-135.5
11
332.361787
21
-135.5
0
LINE
8
0
10
332.361787
20
-135.5
11
332.361787
21
-149.5
0
LINE
8
0
10
332.361787
20
-131.5
11
346.361787
21
-131.5
0
LINE
8
0
10
346.361787
20
-131.5
11
346.361787
21
-117.5
0
LINE
8
0
10
346.361787
20
-117.5
11
332.361787
21
-117.5
0
LINE
8
0
10
332.361787
20
-117.5
11
332.361787
21
-131.5
0
LINE
8
0
10
368.361787
20
-185.5
11
382.361787
21
-185.5
0
LINE
8
0
10
382.361787
20
-185.5
11
382.361787
21
-171.5
0
LINE
8
0
10
382.361787
20
-171.5
11
368.361787
21
-171.5
0
LINE
8
0
10
368.361787
20
-171.5
11
368.361787
21
-185.5
0
LINE
8
0
10
350.361787
20
-185.5
11
364.361787
21
-185.5
0
LINE
8
0
10
364.361787
20
-185.5
11
364.361787
21
-171.5
0
LINE
8
0
10
364.361787
20
-171.5
11
350.361787
21
-171.5
0
LINE
8
0
10
350.361787
20
-171.5
11
350.361787
21
-185.5
0
LINE
8
0
10
332.9069737
20
-189.6411047
11
346.4299353
21
-186.0176381
0
LINE
8
0
10
346.4299353
20
-186.0176381
11
342.8064687
21
-172.4946765
0
LINE
8
0
10
342.8064687
20
-172.4946765
11
329.2835071
21
-176.1181431
0
LINE
8
0
10
329.2835071
20
-176.1181431
11
332.9069737
21
-189.6411047
0
LINE
8
0
10
317.1187157
20
-198.1587427
11
329.2430713
21
-191.1587427
0
LINE
8
0
10
329.2430713
20
-191.1587427
11
322.2430713
21
-179.0343871
0
LINE
8
0
10
322.2430713
20
-179.0343871
11
310.1187157
21
-186.0343871
0
LINE
8
0
10
310.1187157
20
-186.0343871
11
317.1187157
21
-198.1587427
0
ENDSEC
0
EOF