0
SECTION
2
HEADER
9
$INSUNITS
70
4
0
ENDSEC
0
SECTION
2
TABLES
0
TABLE
2
LTYPE
0
LTYPE
72
65
70
64
2
CONTINUOUS
3
______
73
0
40
0
0
ENDTAB
0
TABLE
2
LAYER
0
ENDTAB
0
ENDSEC
0
SECTION
2
ENTITIES
0
LINE
8
0
10
-7
20
11
11
7
21
11
0
LINE
8
0
10
7
20
11
11
7
21
25
0
LINE
8
0
10
7
20
25
11
-7
21
25
0
LINE
8
0
10
-7
20
25
11
-7
21
11
0
LINE
8
0
10
-7
20
29
11
7
21
29
0
LINE
8
0
10
7
20
29
11
7
21
43
0
LINE
8
0
10
7
20
43
11
-7
21
43
0
LINE
8
0
10
-7
20
43
11
-7
21
29
0
LINE
8
0
10
-7
20
47
11
7
21
47
0
LINE
8
0
10
7
20
47
11
7
21
61
0
LINE
8
0
10
7
20
61
11
-7
21
61
0
LINE
8
0
10
-7
20
61
11
-7
21
47
0
LINE
8
0
10
11
20
15
11
25
21
15
0
LINE
8
0
10
25
20
15
11
25
21
29
0
LINE
8
0
10
25
20
29
11
11
21
29
0
LINE
8
0
10
11
20
29
11
11
21
15
0
LINE
8
0
10
11
20
33
11
25
21
33
0
LINE
8
0
10
25
20
33
11
25
21
47
0
LINE
8
0
10
25
20
47
11
11
21
47
0
LINE
8
0
10
11
20
47
11
11
21
33
0
LINE
8
0
10
11
20
51
11
25
21
51
0
LINE
8
0
10
25
20
51
11
25
21
65
0
LINE
8
0
10
25
20
65
11
11
21
65
0
LINE
8
0
10
11
20
65
11
11
21
51
0
LINE
8
0
10
29
20
11
11
43
21
11
0
LINE
8
0
10
43
20
11
11
43
21
25
0
LINE
8
0
10
43
20
25
11
29
21
25
0
LINE
8
0
10
29
20
25
11
29
21
11
0
LINE
8
0
10
29
20
29
11
43
21
29
0
LINE
8
0
10
43
20
29
11
43
21
43
0
LINE
8
0
10
43
20
43
11
29
21
43
0
LINE
8
0
10
29
20
43
11
29
21
29
0
LINE
8
0
10
29
20
47
11
43
21
47
0
LINE
8
0
10
43
20
47
11
43
21
61
0
LINE
8
0
10
43
20
61
11
29
21
61
0
LINE
8
0
10
29
20
61
11
29
21
47
0
LINE
8
0
10
29
20
65
11
43
21
65
0
LINE
8
0
10
43
20
65
11
43
21
79
0
LINE
8
0
10
43
20
79
11
29
21
79
0
LINE
8
0
10
29
20
79
11
29
21
65
0
LINE
8
0
10
47
20
33
11
61
21
33
0
LINE
8
0
10
61
20
33
11
61
21
47
0
LINE
8
0
10
61
20
47
11
47
21
47
0
LINE
8
0
10
47
20
47
11
47
21
33
0
LINE
8
0
10
47
20
51
11
61
21
51
0
LINE
8
0
10
61
20
51
11
61
21
65
0
LINE
8
0
10
61
20
65
11
47
21
65
0
LINE
8
0
10
47
20
65
11
47
21
51
0
LINE
8
0
10
47
20
69
11
61
21
69
0
LINE
8
0
10
61
20
69
11
61
21
83
0
LINE
8
0
10
61
20
83
11
47
21
83
0
LINE
8
0
10
47
20
83
11
47
21
69
0
LINE
8
0
10
65
20
28
11
79
21
28
0
LINE
8
0
10
79
20
28
11
79
21
42
0
LINE
8
0
10
79
20
42
11
65
21
42
0
LINE
8
0
10
65
20
42
11
65
21
28
0
LINE
8
0
10
65
20
46
11
79
21
46
0
LINE
8
0
10
79
20
46
11
79
21
60
0
LINE
8
0
10
79
20
60
11
65
21
60
0
LINE
8
0
10
65
20
60
11
65
21
46
0
LINE
8
0
10
65
20
64
11
79
21
64
0
LINE
8
0
10
79
20
64
11
79
21
78
0
LINE
8
0
10
79
20
78
11
65
21
78
0
LINE
8
0
10
65
20
78
11
65
21
64
0
LINE
8
0
10
83
20
24
11
97
21
24
0
LINE
8
0
10
97
20
24
11
97
21
38
0
LINE
8
0
10
97
20
38
11
83
21
38
0
LINE
8
0
10
83
20
38
11
83
21
24
0
LINE
8
0
10
83
20
42
11
97
21
42
0
LINE
8
0
10
97
20
42
11
97
21
56
0
LINE
8
0
10
97
20
56
11
83
21
56
0
LINE
8
0
10
83
20
56
11
83
21
42
0
LINE
8
0
10
83
20
60
11
97
21
60
0
LINE
8
0
10
97
20
60
11
97
21
74
0
LINE
8
0
10
97
20
74
11
83
21
74
0
LINE
8
0
10
83
20
74
11
83
21
60
0
LINE
8
0
10
101
20
21.2
11
115
21
21.2
0
LINE
8
0
10
115
20
21.2
11
115
21
35.2
0
LINE
8
0
10
115
20
35.2
11
101
21
35.2
0
LINE
8
0
10
101
20
35.2
11
101
21
21.2
0
LINE
8
0
10
55
20
6
11
69
21
6
0
LINE
8
0
10
69
20
6
11
69
21
20
0
LINE
8
0
10
69
20
20
11
55
21
20
0
LINE
8
0
10
55
20
20
11
55
21
6
0
LINE
8
0
10
73
20
6
11
87
21
6
0
LINE
8
0
10
87
20
6
11
87
21
20
0
LINE
8
0
10
87
20
20
11
73
21
20
0
LINE
8
0
10
73
20
20
11
73
21
6
0
LINE
8
0
10
90.9318517
20
5.4823619
11
104.4548133
21
1.8588953
0
LINE
8
0
10
104.4548133
20
1.8588953
11
108.0782799
21
15.3818569
0
LINE
8
0
10
108.0782799
20
15.3818569
11
94.5553183
21
19.0053235
0
LINE
8
0
10
94.5553183
20
19.0053235
11
90.9318517
21
5.4823619
0
LINE
8
0
10
108.1187157
20
0.3412573
11
120.2430713
21
-6.6587427
0
LINE
8
0
10
120.2430713
20
-6.6587427
11
127.2430713
21
5.4656129
0
LINE
8
0
10
127.2430713
20
5.4656129
11
115.1187157
21
12.4656129
0
LINE
8
0
10
115.1187157
20
12.4656129
11
108.1187157
21
0.3412573
0
ENDSEC
0
EOF