0
SECTION
2
HEADER
9
$INSUNITS
70
4
0
ENDSEC
0
SECTION
2
TABLES
0
TABLE
2
LTYPE
0
LTYPE
72
65
70
64
2
CONTINUOUS
3
______
73
0
40
0
0
ENDTAB
0
TABLE
2
LAYER
0
ENDTAB
0
ENDSEC
0
SECTION
2
ENTITIES
0
LINE
8
0
10
163
20
-179
11
177
21
-179
0
LINE
8
0
10
177
20
-179
11
177
21
-165
0
LINE
8
0
10
177
20
-165
11
167
21
-165
0
LINE
8
0
10
163
20
-166
11
163
21
-179
0
LINE
8
0
10
167
20
-161
11
171
21
-161
0
LINE
8
0
10
177
20
-148
11
177
21
-147
0
LINE
8
0
10
177
20
-147
11
167
21
-147
0
LINE
8
0
10
163
20
-148
11
163
21
-152
0
LINE
8
0
10
167
20
-143
11
171
21
-143
0
LINE
8
0
10
177
20
-130
11
177
21
-129
0
LINE
8
0
10
177
20
-129
11
167
21
-129
0
LINE
8
0
10
163
20
-130
11
163
21
-134
0
LINE
8
0
10
181
20
-175
11
195
21
-175
0
LINE
8
0
10
195
20
-175
11
195
21
-161
0
LINE
8
0
10
195
20
-161
11
185
21
-161
0
LINE
8
0
10
181
20
-162
11
181
21
-175
0
LINE
8
0
10
185
20
-157
11
199
21
-157
0
LINE
8
0
10
185
20
-143
11
199
21
-143
0
LINE
8
0
10
181
20
-144
11
181
21
-148
0
LINE
8
0
10
185
20
-139
11
199
21
-139
0
LINE
8
0
10
185
20
-125
11
199
21
-125
0
LINE
8
0
10
181
20
-126
11
181
21
-130
0
LINE
8
0
10
199
20
-179
11
221
21
-179
0
LINE
8
0
10
199
20
-165
11
221
21
-165
0
LINE
8
0
10
199
20
-165
11
199
21
-179
0
LINE
8
0
10
199
20
-161
11
221
21
-161
0
LINE
8
0
10
203
20
-147
11
217
21
-147
0
LINE
8
0
10
199
20
-157
11
199
21
-161
0
LINE
8
0
10
203
20
-143
11
217
21
-143
0
LINE
8
0
10
203
20
-129
11
217
21
-129
0
LINE
8
0
10
199
20
-139
11
199
21
-143
0
LINE
8
0
10
203
20
-125
11
217
21
-125
0
LINE
8
0
10
203
20
-111
11
217
21
-111
0
LINE
8
0
10
199
20
-121
11
199
21
-125
0
LINE
8
0
10
221
20
-157
11
235
21
-157
0
LINE
8
0
10
221
20
-143
11
235
21
-143
0
LINE
8
0
10
217
20
-143
11
217
21
-147
0
LINE
8
0
10
221
20
-139
11
235
21
-139
0
LINE
8
0
10
221
20
-125
11
235
21
-125
0
LINE
8
0
10
217
20
-125
11
217
21
-129
0
LINE
8
0
10
221
20
-121
11
231
21
-121
0
LINE
8
0
10
231
20
-121
11
231
21
-107
0
LINE
8
0
10
231
20
-107
11
217
21
-107
0
LINE
8
0
10
217
20
-107
11
217
21
-111
0
LINE
8
0
10
239
20
-162
11
249
21
-162
0
LINE
8
0
10
249
20
-162
11
249
21
-161
0
LINE
8
0
10
243
20
-148
11
239
21
-148
0
LINE
8
0
10
235
20
-157
11
235
21
-161
0
LINE
8
0
10
239
20
-144
11
249
21
-144
0
LINE
8
0
10
249
20
-144
11
249
21
-143
0
LINE
8
0
10
243
20
-130
11
239
21
-130
0
LINE
8
0
10
235
20
-139
11
235
21
-143
0
LINE
8
0
10
239
20
-126
11
249
21
-126
0
LINE
8
0
10
249
20
-126
11
249
21
-112
0
LINE
8
0
10
249
20
-112
11
235
21
-112
0
LINE
8
0
10
235
20
-112
11
235
21
-125
0
LINE
8
0
10
257
20
-166
11
267
21
-166
0
LINE
8
0
10
267
20
-166
11
267
21
-152
0
LINE
8
0
10
267
20
-152
11
257
21
-152
0
LINE
8
0
10
253
20
-161
11
253
21
-165
0
LINE
8
0
10
257
20
-148
11
267
21
-148
0
LINE
8
0
10
267
20
-148
11
267
21
-134
0
LINE
8
0
10
267
20
-134
11
257
21
-134
0
LINE
8
0
10
253
20
-143
11
253
21
-147
0
LINE
8
0
10
257
20
-130
11
267
21
-130
0
LINE
8
0
10
267
20
-130
11
267
21
-116
0
LINE
8
0
10
267
20
-116
11
253
21
-116
0
LINE
8
0
10
253
20
-116
11
253
21
-129
0
LINE
8
0
10
243
20
-179
11
257
21
-179
0
LINE
8
0
10
257
20
-179
11
257
21
-166
0
LINE
8
0
10
253
20
-165
11
243
21
-165
0
LINE
8
0
10
243
20
-165
11
243
21
-179
0
LINE
8
0
10
249
20
-161
11
253
21
-161
0
LINE
8
0
10
257
20
-152
11
257
21
-148
0
LINE
8
0
10
253
20
-147
11
243
21
-147
0
LINE
8
0
10
243
20
-147
11
243
21
-148
0
LINE
8
0
10
249
20
-143
11
253
21
-143
0
LINE
8
0
10
257
20
-134
11
257
21
-130
0
LINE
8
0
10
253
20
-129
11
243
21
-129
0
LINE
8
0
10
243
20
-129
11
243
21
-130
0
LINE
8
0
10
225
20
-175
11
239
21
-175
0
LINE
8
0
10
239
20
-175
11
239
21
-162
0
LINE
8
0
10
235
20
-161
11
225
21
-161
0
LINE
8
0
10
225
20
-161
11
225
21
-175
0
LINE
8
0
10
239
20
-148
11
239
21
-144
0
LINE
8
0
10
239
20
-130
11
239
21
-126
0
LINE
8
0
10
221
20
-179
11
221
21
-165
0
LINE
8
0
10
221
20
-161
11
221
21
-157
0
LINE
8
0
10
221
20
-143
11
221
21
-139
0
LINE
8
0
10
221
20
-125
11
221
21
-121
0
LINE
8
0
10
203
20
-147
11
203
21
-143
0
LINE
8
0
10
203
20
-129
11
203
21
-125
0
LINE
8
0
10
189
20
-121
11
199
21
-121
0
LINE
8
0
10
203
20
-111
11
203
21
-107
0
LINE
8
0
10
203
20
-107
11
189
21
-107
0
LINE
8
0
10
189
20
-107
11
189
21
-121
0
LINE
8
0
10
171
20
-162
11
181
21
-162
0
LINE
8
0
10
185
20
-161
11
185
21
-157
0
LINE
8
0
10
181
20
-148
11
177
21
-148
0
LINE
8
0
10
171
20
-161
11
171
21
-162
0
LINE
8
0
10
171
20
-144
11
181
21
-144
0
LINE
8
0
10
185
20
-143
11
185
21
-139
0
LINE
8
0
10
181
20
-130
11
177
21
-130
0
LINE
8
0
10
171
20
-143
11
171
21
-144
0
LINE
8
0
10
171
20
-126
11
181
21
-126
0
LINE
8
0
10
185
20
-125
11
185
21
-112
0
LINE
8
0
10
185
20
-112
11
171
21
-112
0
LINE
8
0
10
171
20
-112
11
171
21
-126
0
LINE
8
0
10
153
20
-166
11
163
21
-166
0
LINE
8
0
10
167
20
-165
11
167
21
-161
0
LINE
8
0
10
163
20
-152
11
153
21
-152
0
LINE
8
0
10
153
20
-152
11
153
21
-166
0
LINE
8
0
10
153
20
-148
11
163
21
-148
0
LINE
8
0
10
167
20
-147
11
167
21
-143
0
LINE
8
0
10
163
20
-134
11
153
21
-134
0
LINE
8
0
10
153
20
-134
11
153
21
-148
0
LINE
8
0
10
153
20
-130
11
163
21
-130
0
LINE
8
0
10
167
20
-129
11
167
21
-116
0
LINE
8
0
10
167
20
-116
11
153
21
-116
0
LINE
8
0
10
153
20
-116
11
153
21
-130
0
ENDSEC
0
EOF