0
SECTION
2
HEADER
9
$INSUNITS
70
4
0
ENDSEC
0
SECTION
2
TABLES
0
TABLE
2
LTYPE
0
LTYPE
72
65
70
64
2
CONTINUOUS
3
______
73
0
40
0
0
ENDTAB
0
TABLE
2
LAYER
0
ENDTAB
0
ENDSEC
0
SECTION
2
ENTITIES
0
LINE
8
0
10
43
20
-189
11
57
21
-189
0
LINE
8
0
10
57
20
-189
11
57
21
-175
0
LINE
8
0
10
57
20
-175
11
43
21
-175
0
LINE
8
0
10
43
20
-175
11
43
21
-189
0
LINE
8
0
10
43
20
-171
11
57
21
-171
0
LINE
8
0
10
57
20
-171
11
57
21
-157
0
LINE
8
0
10
57
20
-157
11
43
21
-157
0
LINE
8
0
10
43
20
-157
11
43
21
-171
0
LINE
8
0
10
43
20
-153
11
57
21
-153
0
LINE
8
0
10
57
20
-153
11
57
21
-139
0
LINE
8
0
10
57
20
-139
11
43
21
-139
0
LINE
8
0
10
43
20
-139
11
43
21
-153
0
LINE
8
0
10
61
20
-185
11
75
21
-185
0
LINE
8
0
10
75
20
-185
11
75
21
-171
0
LINE
8
0
10
75
20
-171
11
61
21
-171
0
LINE
8
0
10
61
20
-171
11
61
21
-185
0
LINE
8
0
10
61
20
-167
11
75
21
-167
0
LINE
8
0
10
75
20
-167
11
75
21
-153
0
LINE
8
0
10
75
20
-153
11
61
21
-153
0
LINE
8
0
10
61
20
-153
11
61
21
-167
0
LINE
8
0
10
61
20
-149
11
75
21
-149
0
LINE
8
0
10
75
20
-149
11
75
21
-135
0
LINE
8
0
10
75
20
-135
11
61
21
-135
0
LINE
8
0
10
61
20
-135
11
61
21
-149
0
LINE
8
0
10
79
20
-189
11
93
21
-189
0
LINE
8
0
10
93
20
-189
11
93
21
-175
0
LINE
8
0
10
93
20
-175
11
79
21
-175
0
LINE
8
0
10
79
20
-175
11
79
21
-189
0
LINE
8
0
10
79
20
-171
11
93
21
-171
0
LINE
8
0
10
93
20
-171
11
93
21
-157
0
LINE
8
0
10
93
20
-157
11
79
21
-157
0
LINE
8
0
10
79
20
-157
11
79
21
-171
0
LINE
8
0
10
79
20
-153
11
93
21
-153
0
LINE
8
0
10
93
20
-153
11
93
21
-139
0
LINE
8
0
10
93
20
-139
11
79
21
-139
0
LINE
8
0
10
79
20
-139
11
79
21
-153
0
LINE
8
0
10
79
20
-135
11
93
21
-135
0
LINE
8
0
10
93
20
-135
11
93
21
-121
0
LINE
8
0
10
93
20
-121
11
79
21
-121
0
LINE
8
0
10
79
20
-121
11
79
21
-135
0
LINE
8
0
10
97
20
-167
11
111
21
-167
0
LINE
8
0
10
111
20
-167
11
111
21
-153
0
LINE
8
0
10
111
20
-153
11
97
21
-153
0
LINE
8
0
10
97
20
-153
11
97
21
-167
0
LINE
8
0
10
97
20
-149
11
111
21
-149
0
LINE
8
0
10
111
20
-149
11
111
21
-135
0
LINE
8
0
10
111
20
-135
11
97
21
-135
0
LINE
8
0
10
97
20
-135
11
97
21
-149
0
LINE
8
0
10
97
20
-131
11
111
21
-131
0
LINE
8
0
10
111
20
-131
11
111
21
-117
0
LINE
8
0
10
111
20
-117
11
97
21
-117
0
LINE
8
0
10
97
20
-117
11
97
21
-131
0
LINE
8
0
10
115
20
-172
11
129
21
-172
0
LINE
8
0
10
129
20
-172
11
129
21
-158
0
LINE
8
0
10
129
20
-158
11
115
21
-158
0
LINE
8
0
10
115
20
-158
11
115
21
-172
0
LINE
8
0
10
115
20
-154
11
129
21
-154
0
LINE
8
0
10
129
20
-154
11
129
21
-140
0
LINE
8
0
10
129
20
-140
11
115
21
-140
0
LINE
8
0
10
115
20
-140
11
115
21
-154
0
LINE
8
0
10
115
20
-136
11
129
21
-136
0
LINE
8
0
10
129
20
-136
11
129
21
-122
0
LINE
8
0
10
129
20
-122
11
115
21
-122
0
LINE
8
0
10
115
20
-122
11
115
21
-136
0
LINE
8
0
10
133
20
-176
11
147
21
-176
0
LINE
8
0
10
147
20
-176
11
147
21
-162
0
LINE
8
0
10
147
20
-162
11
133
21
-162
0
LINE
8
0
10
133
20
-162
11
133
21
-176
0
LINE
8
0
10
133
20
-158
11
147
21
-158
0
LINE
8
0
10
147
20
-158
11
147
21
-144
0
LINE
8
0
10
147
20
-144
11
133
21
-144
0
LINE
8
0
10
133
20
-144
11
133
21
-158
0
LINE
8
0
10
133
20
-140
11
147
21
-140
0
LINE
8
0
10
147
20
-140
11
147
21
-126
0
LINE
8
0
10
147
20
-126
11
133
21
-126
0
LINE
8
0
10
133
20
-126
11
133
21
-140
0
LINE
8
0
10
323
20
-189
11
337
21
-189
0
LINE
8
0
10
337
20
-189
11
337
21
-175
0
LINE
8
0
10
337
20
-175
11
323
21
-175
0
LINE
8
0
10
323
20
-175
11
323
21
-189
0
LINE
8
0
10
323
20
-171
11
337
21
-171
0
LINE
8
0
10
337
20
-171
11
337
21
-157
0
LINE
8
0
10
337
20
-157
11
323
21
-157
0
LINE
8
0
10
323
20
-157
11
323
21
-171
0
LINE
8
0
10
323
20
-153
11
337
21
-153
0
LINE
8
0
10
337
20
-153
11
337
21
-139
0
LINE
8
0
10
337
20
-139
11
323
21
-139
0
LINE
8
0
10
323
20
-139
11
323
21
-153
0
LINE
8
0
10
305
20
-185
11
319
21
-185
0
LINE
8
0
10
319
20
-185
11
319
21
-171
0
LINE
8
0
10
319
20
-171
11
305
21
-171
0
LINE
8
0
10
305
20
-171
11
305
21
-185
0
LINE
8
0
10
305
20
-167
11
319
21
-167
0
LINE
8
0
10
319
20
-167
11
319
21
-153
0
LINE
8
0
10
319
20
-153
11
305
21
-153
0
LINE
8
0
10
305
20
-153
11
305
21
-167
0
LINE
8
0
10
305
20
-149
11
319
21
-149
0
LINE
8
0
10
319
20
-149
11
319
21
-135
0
LINE
8
0
10
319
20
-135
11
305
21
-135
0
LINE
8
0
10
305
20
-135
11
305
21
-149
0
LINE
8
0
10
287
20
-189
11
301
21
-189
0
LINE
8
0
10
301
20
-189
11
301
21
-175
0
LINE
8
0
10
301
20
-175
11
287
21
-175
0
LINE
8
0
10
287
20
-175
11
287
21
-189
0
LINE
8
0
10
287
20
-171
11
301
21
-171
0
LINE
8
0
10
301
20
-171
11
301
21
-157
0
LINE
8
0
10
301
20
-157
11
287
21
-157
0
LINE
8
0
10
287
20
-157
11
287
21
-171
0
LINE
8
0
10
287
20
-153
11
301
21
-153
0
LINE
8
0
10
301
20
-153
11
301
21
-139
0
LINE
8
0
10
301
20
-139
11
287
21
-139
0
LINE
8
0
10
287
20
-139
11
287
21
-153
0
LINE
8
0
10
287
20
-135
11
301
21
-135
0
LINE
8
0
10
301
20
-135
11
301
21
-121
0
LINE
8
0
10
301
20
-121
11
287
21
-121
0
LINE
8
0
10
287
20
-121
11
287
21
-135
0
LINE
8
0
10
269
20
-167
11
283
21
-167
0
LINE
8
0
10
283
20
-167
11
283
21
-153
0
LINE
8
0
10
283
20
-153
11
269
21
-153
0
LINE
8
0
10
269
20
-153
11
269
21
-167
0
LINE
8
0
10
269
20
-149
11
283
21
-149
0
LINE
8
0
10
283
20
-149
11
283
21
-135
0
LINE
8
0
10
283
20
-135
11
269
21
-135
0
LINE
8
0
10
269
20
-135
11
269
21
-149
0
LINE
8
0
10
269
20
-131
11
283
21
-131
0
LINE
8
0
10
283
20
-131
11
283
21
-117
0
LINE
8
0
10
283
20
-117
11
269
21
-117
0
LINE
8
0
10
269
20
-117
11
269
21
-131
0
LINE
8
0
10
251
20
-172
11
265
21
-172
0
LINE
8
0
10
265
20
-172
11
265
21
-158
0
LINE
8
0
10
265
20
-158
11
251
21
-158
0
LINE
8
0
10
251
20
-158
11
251
21
-172
0
LINE
8
0
10
251
20
-154
11
265
21
-154
0
LINE
8
0
10
265
20
-154
11
265
21
-140
0
LINE
8
0
10
265
20
-140
11
251
21
-140
0
LINE
8
0
10
251
20
-140
11
251
21
-154
0
LINE
8
0
10
251
20
-136
11
265
21
-136
0
LINE
8
0
10
265
20
-136
11
265
21
-122
0
LINE
8
0
10
265
20
-122
11
251
21
-122
0
LINE
8
0
10
251
20
-122
11
251
21
-136
0
LINE
8
0
10
233
20
-176
11
247
21
-176
0
LINE
8
0
10
247
20
-176
11
247
21
-162
0
LINE
8
0
10
247
20
-162
11
233
21
-162
0
LINE
8
0
10
233
20
-162
11
233
21
-176
0
LINE
8
0
10
233
20
-158
11
247
21
-158
0
LINE
8
0
10
247
20
-158
11
247
21
-144
0
LINE
8
0
10
247
20
-144
11
233
21
-144
0
LINE
8
0
10
233
20
-144
11
233
21
-158
0
LINE
8
0
10
233
20
-140
11
247
21
-140
0
LINE
8
0
10
247
20
-140
11
247
21
-126
0
LINE
8
0
10
247
20
-126
11
233
21
-126
0
LINE
8
0
10
233
20
-126
11
233
21
-140
0
ENDSEC
0
EOF