0
SECTION
2
HEADER
9
$INSUNITS
70
4
0
ENDSEC
0
SECTION
2
TABLES
0
TABLE
2
LTYPE
0
LTYPE
72
65
70
64
2
CONTINUOUS
3
______
73
0
40
0
0
ENDTAB
0
TABLE
2
LAYER
0
ENDTAB
0
ENDSEC
0
SECTION
2
ENTITIES
0
LINE
8
0
10
163
20
-179
11
177
21
-179
0
LINE
8
0
10
177
20
-179
11
177
21
-165.5
0
LINE
8
0
10
171
20
-165
11
167
21
-165
0
LINE
8
0
10
163
20
-167.5
11
163
21
-179
0
LINE
8
0
10
167
20
-161
11
171
21
-161
0
LINE
8
0
10
177
20
-151.5
11
177
21
-147.5
0
LINE
8
0
10
171
20
-147
11
167
21
-147
0
LINE
8
0
10
163
20
-149.5
11
163
21
-153.5
0
LINE
8
0
10
167
20
-143
11
171
21
-143
0
LINE
8
0
10
177
20
-133.5
11
177
21
-129.5
0
LINE
8
0
10
171
20
-129
11
167
21
-129
0
LINE
8
0
10
163
20
-131.5
11
163
21
-135.5
0
LINE
8
0
10
181
20
-175
11
195
21
-175
0
LINE
8
0
10
195
20
-175
11
195
21
-161
0
LINE
8
0
10
195
20
-161
11
185
21
-161
0
LINE
8
0
10
181
20
-165.5
11
181
21
-175
0
LINE
8
0
10
185
20
-157
11
189
21
-157
0
LINE
8
0
10
195
20
-146.5
11
195
21
-143
0
LINE
8
0
10
195
20
-143
11
185
21
-143
0
LINE
8
0
10
181
20
-147.5
11
181
21
-151.5
0
LINE
8
0
10
185
20
-139
11
189
21
-139
0
LINE
8
0
10
195
20
-128.5
11
195
21
-125
0
LINE
8
0
10
195
20
-125
11
185
21
-125
0
LINE
8
0
10
181
20
-129.5
11
181
21
-133.5
0
LINE
8
0
10
199
20
-182.5
11
221
21
-182.5
0
LINE
8
0
10
199
20
-168.5
11
221
21
-168.5
0
LINE
8
0
10
199
20
-168.5
11
199
21
-182.5
0
LINE
8
0
10
199
20
-164.5
11
221
21
-164.5
0
LINE
8
0
10
203
20
-150.5
11
217
21
-150.5
0
LINE
8
0
10
199
20
-160.5
11
199
21
-164.5
0
LINE
8
0
10
203
20
-146.5
11
217
21
-146.5
0
LINE
8
0
10
203
20
-132.5
11
217
21
-132.5
0
LINE
8
0
10
199
20
-142.5
11
199
21
-146.5
0
LINE
8
0
10
203
20
-128.5
11
217
21
-128.5
0
LINE
8
0
10
203
20
-114.5
11
217
21
-114.5
0
LINE
8
0
10
199
20
-124.5
11
199
21
-128.5
0
LINE
8
0
10
221
20
-160.5
11
231
21
-160.5
0
LINE
8
0
10
231
20
-160.5
11
231
21
-157
0
LINE
8
0
10
225
20
-146.5
11
221
21
-146.5
0
LINE
8
0
10
217
20
-146.5
11
217
21
-150.5
0
LINE
8
0
10
221
20
-142.5
11
231
21
-142.5
0
LINE
8
0
10
231
20
-142.5
11
231
21
-139
0
LINE
8
0
10
225
20
-128.5
11
221
21
-128.5
0
LINE
8
0
10
217
20
-128.5
11
217
21
-132.5
0
LINE
8
0
10
221
20
-124.5
11
231
21
-124.5
0
LINE
8
0
10
231
20
-124.5
11
231
21
-110.5
0
LINE
8
0
10
231
20
-110.5
11
217
21
-110.5
0
LINE
8
0
10
217
20
-110.5
11
217
21
-114.5
0
LINE
8
0
10
239
20
-165.5
11
243
21
-165.5
0
LINE
8
0
10
249
20
-165
11
249
21
-161
0
LINE
8
0
10
243
20
-151.5
11
239
21
-151.5
0
LINE
8
0
10
235
20
-157
11
235
21
-161
0
LINE
8
0
10
239
20
-147.5
11
243
21
-147.5
0
LINE
8
0
10
249
20
-147
11
249
21
-143
0
LINE
8
0
10
243
20
-133.5
11
239
21
-133.5
0
LINE
8
0
10
235
20
-139
11
235
21
-143
0
LINE
8
0
10
239
20
-129.5
11
243
21
-129.5
0
LINE
8
0
10
249
20
-129
11
249
21
-115.5
0
LINE
8
0
10
249
20
-115.5
11
235
21
-115.5
0
LINE
8
0
10
235
20
-115.5
11
235
21
-125
0
LINE
8
0
10
257
20
-167.5
11
267
21
-167.5
0
LINE
8
0
10
267
20
-167.5
11
267
21
-153.5
0
LINE
8
0
10
267
20
-153.5
11
257
21
-153.5
0
LINE
8
0
10
253
20
-161
11
253
21
-165
0
LINE
8
0
10
257
20
-149.5
11
267
21
-149.5
0
LINE
8
0
10
267
20
-149.5
11
267
21
-135.5
0
LINE
8
0
10
267
20
-135.5
11
257
21
-135.5
0
LINE
8
0
10
253
20
-143
11
253
21
-147
0
LINE
8
0
10
257
20
-131.5
11
267
21
-131.5
0
LINE
8
0
10
267
20
-131.5
11
267
21
-117.5
0
LINE
8
0
10
267
20
-117.5
11
253
21
-117.5
0
LINE
8
0
10
253
20
-117.5
11
253
21
-129
0
LINE
8
0
10
243
20
-179
11
257
21
-179
0
LINE
8
0
10
257
20
-179
11
257
21
-167.5
0
LINE
8
0
10
253
20
-165
11
249
21
-165
0
LINE
8
0
10
243
20
-165.5
11
243
21
-179
0
LINE
8
0
10
249
20
-161
11
253
21
-161
0
LINE
8
0
10
257
20
-153.5
11
257
21
-149.5
0
LINE
8
0
10
253
20
-147
11
249
21
-147
0
LINE
8
0
10
243
20
-147.5
11
243
21
-151.5
0
LINE
8
0
10
249
20
-143
11
253
21
-143
0
LINE
8
0
10
257
20
-135.5
11
257
21
-131.5
0
LINE
8
0
10
253
20
-129
11
249
21
-129
0
LINE
8
0
10
243
20
-129.5
11
243
21
-133.5
0
LINE
8
0
10
225
20
-175
11
239
21
-175
0
LINE
8
0
10
239
20
-175
11
239
21
-165.5
0
LINE
8
0
10
235
20
-161
11
225
21
-161
0
LINE
8
0
10
225
20
-161
11
225
21
-175
0
LINE
8
0
10
231
20
-157
11
235
21
-157
0
LINE
8
0
10
239
20
-151.5
11
239
21
-147.5
0
LINE
8
0
10
235
20
-143
11
225
21
-143
0
LINE
8
0
10
225
20
-143
11
225
21
-146.5
0
LINE
8
0
10
231
20
-139
11
235
21
-139
0
LINE
8
0
10
239
20
-133.5
11
239
21
-129.5
0
LINE
8
0
10
235
20
-125
11
225
21
-125
0
LINE
8
0
10
225
20
-125
11
225
21
-128.5
0
LINE
8
0
10
221
20
-182.5
11
221
21
-168.5
0
LINE
8
0
10
221
20
-164.5
11
221
21
-160.5
0
LINE
8
0
10
221
20
-146.5
11
221
21
-142.5
0
LINE
8
0
10
221
20
-128.5
11
221
21
-124.5
0
LINE
8
0
10
189
20
-160.5
11
199
21
-160.5
0
LINE
8
0
10
203
20
-150.5
11
203
21
-146.5
0
LINE
8
0
10
199
20
-146.5
11
195
21
-146.5
0
LINE
8
0
10
189
20
-157
11
189
21
-160.5
0
LINE
8
0
10
189
20
-142.5
11
199
21
-142.5
0
LINE
8
0
10
203
20
-132.5
11
203
21
-128.5
0
LINE
8
0
10
199
20
-128.5
11
195
21
-128.5
0
LINE
8
0
10
189
20
-139
11
189
21
-142.5
0
LINE
8
0
10
189
20
-124.5
11
199
21
-124.5
0
LINE
8
0
10
203
20
-114.5
11
203
21
-110.5
0
LINE
8
0
10
203
20
-110.5
11
189
21
-110.5
0
LINE
8
0
10
189
20
-110.5
11
189
21
-124.5
0
LINE
8
0
10
177
20
-165.5
11
181
21
-165.5
0
LINE
8
0
10
185
20
-161
11
185
21
-157
0
LINE
8
0
10
181
20
-151.5
11
177
21
-151.5
0
LINE
8
0
10
171
20
-161
11
171
21
-165
0
LINE
8
0
10
177
20
-147.5
11
181
21
-147.5
0
LINE
8
0
10
185
20
-143
11
185
21
-139
0
LINE
8
0
10
181
20
-133.5
11
177
21
-133.5
0
LINE
8
0
10
171
20
-143
11
171
21
-147
0
LINE
8
0
10
177
20
-129.5
11
181
21
-129.5
0
LINE
8
0
10
185
20
-125
11
185
21
-115.5
0
LINE
8
0
10
185
20
-115.5
11
171
21
-115.5
0
LINE
8
0
10
171
20
-115.5
11
171
21
-129
0
LINE
8
0
10
153
20
-167.5
11
163
21
-167.5
0
LINE
8
0
10
167
20
-165
11
167
21
-161
0
LINE
8
0
10
163
20
-153.5
11
153
21
-153.5
0
LINE
8
0
10
153
20
-153.5
11
153
21
-167.5
0
LINE
8
0
10
153
20
-149.5
11
163
21
-149.5
0
LINE
8
0
10
167
20
-147
11
167
21
-143
0
LINE
8
0
10
163
20
-135.5
11
153
21
-135.5
0
LINE
8
0
10
153
20
-135.5
11
153
21
-149.5
0
LINE
8
0
10
153
20
-131.5
11
163
21
-131.5
0
LINE
8
0
10
167
20
-129
11
167
21
-117.5
0
LINE
8
0
10
167
20
-117.5
11
153
21
-117.5
0
LINE
8
0
10
153
20
-117.5
11
153
21
-131.5
0
ENDSEC
0
EOF