0
SECTION
2
HEADER
9
$INSUNITS
70
4
0
ENDSEC
0
SECTION
2
TABLES
0
TABLE
2
LTYPE
0
LTYPE
72
65
70
64
2
CONTINUOUS
3
______
73
0
40
0
0
ENDTAB
0
TABLE
2
LAYER
0
ENDTAB
0
ENDSEC
0
SECTION
2
ENTITIES
0
LINE
8
0
10
41.7
20
-190.3
11
58.3
21
-190.3
0
LINE
8
0
10
58.3
20
-190.3
11
58.3
21
-173.7
0
LINE
8
0
10
58.3
20
-173.7
11
41.7
21
-173.7
0
LINE
8
0
10
41.7
20
-173.7
11
41.7
21
-190.3
0
LINE
8
0
10
41.7
20
-172.3
11
58.3
21
-172.3
0
LINE
8
0
10
58.3
20
-172.3
11
58.3
21
-155.7
0
LINE
8
0
10
58.3
20
-155.7
11
41.7
21
-155.7
0
LINE
8
0
10
41.7
20
-155.7
11
41.7
21
-172.3
0
LINE
8
0
10
41.7
20
-154.3
11
58.3
21
-154.3
0
LINE
8
0
10
58.3
20
-154.3
11
58.3
21
-137.7
0
LINE
8
0
10
58.3
20
-137.7
11
41.7
21
-137.7
0
LINE
8
0
10
41.7
20
-137.7
11
41.7
21
-154.3
0
LINE
8
0
10
59.7
20
-186.3
11
76.3
21
-186.3
0
LINE
8
0
10
76.3
20
-186.3
11
76.3
21
-169.7
0
LINE
8
0
10
76.3
20
-169.7
11
59.7
21
-169.7
0
LINE
8
0
10
59.7
20
-169.7
11
59.7
21
-186.3
0
LINE
8
0
10
59.7
20
-168.3
11
76.3
21
-168.3
0
LINE
8
0
10
76.3
20
-168.3
11
76.3
21
-151.7
0
LINE
8
0
10
76.3
20
-151.7
11
59.7
21
-151.7
0
LINE
8
0
10
59.7
20
-151.7
11
59.7
21
-168.3
0
LINE
8
0
10
59.7
20
-150.3
11
76.3
21
-150.3
0
LINE
8
0
10
76.3
20
-150.3
11
76.3
21
-133.7
0
LINE
8
0
10
76.3
20
-133.7
11
59.7
21
-133.7
0
LINE
8
0
10
59.7
20
-133.7
11
59.7
21
-150.3
0
LINE
8
0
10
77.7
20
-190.3
11
94.3
21
-190.3
0
LINE
8
0
10
94.3
20
-190.3
11
94.3
21
-173.7
0
LINE
8
0
10
94.3
20
-173.7
11
77.7
21
-173.7
0
LINE
8
0
10
77.7
20
-173.7
11
77.7
21
-190.3
0
LINE
8
0
10
77.7
20
-172.3
11
94.3
21
-172.3
0
LINE
8
0
10
94.3
20
-172.3
11
94.3
21
-155.7
0
LINE
8
0
10
94.3
20
-155.7
11
77.7
21
-155.7
0
LINE
8
0
10
77.7
20
-155.7
11
77.7
21
-172.3
0
LINE
8
0
10
77.7
20
-154.3
11
94.3
21
-154.3
0
LINE
8
0
10
94.3
20
-154.3
11
94.3
21
-137.7
0
LINE
8
0
10
94.3
20
-137.7
11
77.7
21
-137.7
0
LINE
8
0
10
77.7
20
-137.7
11
77.7
21
-154.3
0
LINE
8
0
10
77.7
20
-136.3
11
94.3
21
-136.3
0
LINE
8
0
10
94.3
20
-136.3
11
94.3
21
-119.7
0
LINE
8
0
10
94.3
20
-119.7
11
77.7
21
-119.7
0
LINE
8
0
10
77.7
20
-119.7
11
77.7
21
-136.3
0
LINE
8
0
10
95.7
20
-168.3
11
112.3
21
-168.3
0
LINE
8
0
10
112.3
20
-168.3
11
112.3
21
-151.7
0
LINE
8
0
10
112.3
20
-151.7
11
95.7
21
-151.7
0
LINE
8
0
10
95.7
20
-151.7
11
95.7
21
-168.3
0
LINE
8
0
10
95.7
20
-150.3
11
112.3
21
-150.3
0
LINE
8
0
10
112.3
20
-150.3
11
112.3
21
-133.7
0
LINE
8
0
10
112.3
20
-133.7
11
95.7
21
-133.7
0
LINE
8
0
10
95.7
20
-133.7
11
95.7
21
-150.3
0
LINE
8
0
10
95.7
20
-132.3
11
112.3
21
-132.3
0
LINE
8
0
10
112.3
20
-132.3
11
112.3
21
-115.7
0
LINE
8
0
10
112.3
20
-115.7
11
95.7
21
-115.7
0
LINE
8
0
10
95.7
20
-115.7
11
95.7
21
-132.3
0
LINE
8
0
10
113.7
20
-173.3
11
130.3
21
-173.3
0
LINE
8
0
10
130.3
20
-173.3
11
130.3
21
-156.7
0
LINE
8
0
10
130.3
20
-156.7
11
113.7
21
-156.7
0
LINE
8
0
10
113.7
20
-156.7
11
113.7
21
-173.3
0
LINE
8
0
10
113.7
20
-155.3
11
130.3
21
-155.3
0
LINE
8
0
10
130.3
20
-155.3
11
130.3
21
-138.7
0
LINE
8
0
10
130.3
20
-138.7
11
113.7
21
-138.7
0
LINE
8
0
10
113.7
20
-138.7
11
113.7
21
-155.3
0
LINE
8
0
10
113.7
20
-137.3
11
130.3
21
-137.3
0
LINE
8
0
10
130.3
20
-137.3
11
130.3
21
-120.7
0
LINE
8
0
10
130.3
20
-120.7
11
113.7
21
-120.7
0
LINE
8
0
10
113.7
20
-120.7
11
113.7
21
-137.3
0
LINE
8
0
10
131.7
20
-177.3
11
148.3
21
-177.3
0
LINE
8
0
10
148.3
20
-177.3
11
148.3
21
-160.7
0
LINE
8
0
10
148.3
20
-160.7
11
131.7
21
-160.7
0
LINE
8
0
10
131.7
20
-160.7
11
131.7
21
-177.3
0
LINE
8
0
10
131.7
20
-159.3
11
148.3
21
-159.3
0
LINE
8
0
10
148.3
20
-159.3
11
148.3
21
-142.7
0
LINE
8
0
10
148.3
20
-142.7
11
131.7
21
-142.7
0
LINE
8
0
10
131.7
20
-142.7
11
131.7
21
-159.3
0
LINE
8
0
10
131.7
20
-141.3
11
148.3
21
-141.3
0
LINE
8
0
10
148.3
20
-141.3
11
148.3
21
-124.7
0
LINE
8
0
10
148.3
20
-124.7
11
131.7
21
-124.7
0
LINE
8
0
10
131.7
20
-124.7
11
131.7
21
-141.3
0
LINE
8
0
10
321.7
20
-190.3
11
338.3
21
-190.3
0
LINE
8
0
10
338.3
20
-190.3
11
338.3
21
-173.7
0
LINE
8
0
10
338.3
20
-173.7
11
321.7
21
-173.7
0
LINE
8
0
10
321.7
20
-173.7
11
321.7
21
-190.3
0
LINE
8
0
10
321.7
20
-172.3
11
338.3
21
-172.3
0
LINE
8
0
10
338.3
20
-172.3
11
338.3
21
-155.7
0
LINE
8
0
10
338.3
20
-155.7
11
321.7
21
-155.7
0
LINE
8
0
10
321.7
20
-155.7
11
321.7
21
-172.3
0
LINE
8
0
10
321.7
20
-154.3
11
338.3
21
-154.3
0
LINE
8
0
10
338.3
20
-154.3
11
338.3
21
-137.7
0
LINE
8
0
10
338.3
20
-137.7
11
321.7
21
-137.7
0
LINE
8
0
10
321.7
20
-137.7
11
321.7
21
-154.3
0
LINE
8
0
10
303.7
20
-186.3
11
320.3
21
-186.3
0
LINE
8
0
10
320.3
20
-186.3
11
320.3
21
-169.7
0
LINE
8
0
10
320.3
20
-169.7
11
303.7
21
-169.7
0
LINE
8
0
10
303.7
20
-169.7
11
303.7
21
-186.3
0
LINE
8
0
10
303.7
20
-168.3
11
320.3
21
-168.3
0
LINE
8
0
10
320.3
20
-168.3
11
320.3
21
-151.7
0
LINE
8
0
10
320.3
20
-151.7
11
303.7
21
-151.7
0
LINE
8
0
10
303.7
20
-151.7
11
303.7
21
-168.3
0
LINE
8
0
10
303.7
20
-150.3
11
320.3
21
-150.3
0
LINE
8
0
10
320.3
20
-150.3
11
320.3
21
-133.7
0
LINE
8
0
10
320.3
20
-133.7
11
303.7
21
-133.7
0
LINE
8
0
10
303.7
20
-133.7
11
303.7
21
-150.3
0
LINE
8
0
10
285.7
20
-190.3
11
302.3
21
-190.3
0
LINE
8
0
10
302.3
20
-190.3
11
302.3
21
-173.7
0
LINE
8
0
10
302.3
20
-173.7
11
285.7
21
-173.7
0
LINE
8
0
10
285.7
20
-173.7
11
285.7
21
-190.3
0
LINE
8
0
10
285.7
20
-172.3
11
302.3
21
-172.3
0
LINE
8
0
10
302.3
20
-172.3
11
302.3
21
-155.7
0
LINE
8
0
10
302.3
20
-155.7
11
285.7
21
-155.7
0
LINE
8
0
10
285.7
20
-155.7
11
285.7
21
-172.3
0
LINE
8
0
10
285.7
20
-154.3
11
302.3
21
-154.3
0
LINE
8
0
10
302.3
20
-154.3
11
302.3
21
-137.7
0
LINE
8
0
10
302.3
20
-137.7
11
285.7
21
-137.7
0
LINE
8
0
10
285.7
20
-137.7
11
285.7
21
-154.3
0
LINE
8
0
10
285.7
20
-136.3
11
302.3
21
-136.3
0
LINE
8
0
10
302.3
20
-136.3
11
302.3
21
-119.7
0
LINE
8
0
10
302.3
20
-119.7
11
285.7
21
-119.7
0
LINE
8
0
10
285.7
20
-119.7
11
285.7
21
-136.3
0
LINE
8
0
10
267.7
20
-168.3
11
284.3
21
-168.3
0
LINE
8
0
10
284.3
20
-168.3
11
284.3
21
-151.7
0
LINE
8
0
10
284.3
20
-151.7
11
267.7
21
-151.7
0
LINE
8
0
10
267.7
20
-151.7
11
267.7
21
-168.3
0
LINE
8
0
10
267.7
20
-150.3
11
284.3
21
-150.3
0
LINE
8
0
10
284.3
20
-150.3
11
284.3
21
-133.7
0
LINE
8
0
10
284.3
20
-133.7
11
267.7
21
-133.7
0
LINE
8
0
10
267.7
20
-133.7
11
267.7
21
-150.3
0
LINE
8
0
10
267.7
20
-132.3
11
284.3
21
-132.3
0
LINE
8
0
10
284.3
20
-132.3
11
284.3
21
-115.7
0
LINE
8
0
10
284.3
20
-115.7
11
267.7
21
-115.7
0
LINE
8
0
10
267.7
20
-115.7
11
267.7
21
-132.3
0
LINE
8
0
10
249.7
20
-173.3
11
266.3
21
-173.3
0
LINE
8
0
10
266.3
20
-173.3
11
266.3
21
-156.7
0
LINE
8
0
10
266.3
20
-156.7
11
249.7
21
-156.7
0
LINE
8
0
10
249.7
20
-156.7
11
249.7
21
-173.3
0
LINE
8
0
10
249.7
20
-155.3
11
266.3
21
-155.3
0
LINE
8
0
10
266.3
20
-155.3
11
266.3
21
-138.7
0
LINE
8
0
10
266.3
20
-138.7
11
249.7
21
-138.7
0
LINE
8
0
10
249.7
20
-138.7
11
249.7
21
-155.3
0
LINE
8
0
10
249.7
20
-137.3
11
266.3
21
-137.3
0
LINE
8
0
10
266.3
20
-137.3
11
266.3
21
-120.7
0
LINE
8
0
10
266.3
20
-120.7
11
249.7
21
-120.7
0
LINE
8
0
10
249.7
20
-120.7
11
249.7
21
-137.3
0
LINE
8
0
10
231.7
20
-177.3
11
248.3
21
-177.3
0
LINE
8
0
10
248.3
20
-177.3
11
248.3
21
-160.7
0
LINE
8
0
10
248.3
20
-160.7
11
231.7
21
-160.7
0
LINE
8
0
10
231.7
20
-160.7
11
231.7
21
-177.3
0
LINE
8
0
10
231.7
20
-159.3
11
248.3
21
-159.3
0
LINE
8
0
10
248.3
20
-159.3
11
248.3
21
-142.7
0
LINE
8
0
10
248.3
20
-142.7
11
231.7
21
-142.7
0
LINE
8
0
10
231.7
20
-142.7
11
231.7
21
-159.3
0
LINE
8
0
10
231.7
20
-141.3
11
248.3
21
-141.3
0
LINE
8
0
10
248.3
20
-141.3
11
248.3
21
-124.7
0
LINE
8
0
10
248.3
20
-124.7
11
231.7
21
-124.7
0
LINE
8
0
10
231.7
20
-124.7
11
231.7
21
-141.3
0
ENDSEC
0
EOF