0
SECTION
2
HEADER
9
$INSUNITS
70
4
0
ENDSEC
0
SECTION
2
TABLES
0
TABLE
2
LTYPE
0
LTYPE
72
65
70
64
2
CONTINUOUS
3
______
73
0
40
0
0
ENDTAB
0
TABLE
2
LAYER
0
ENDTAB
0
ENDSEC
0
SECTION
2
ENTITIES
0
LINE
8
0
10
161.7
20
-180.3
11
178.3
21
-180.3
0
LINE
8
0
10
178.3
20
-180.3
11
178.3
21
-163.7
0
LINE
8
0
10
178.3
20
-163.7
11
161.7
21
-163.7
0
LINE
8
0
10
161.7
20
-163.7
11
161.7
21
-180.3
0
LINE
8
0
10
161.7
20
-162.3
11
178.3
21
-162.3
0
LINE
8
0
10
178.3
20
-162.3
11
178.3
21
-145.7
0
LINE
8
0
10
178.3
20
-145.7
11
161.7
21
-145.7
0
LINE
8
0
10
161.7
20
-145.7
11
161.7
21
-162.3
0
LINE
8
0
10
161.7
20
-144.3
11
178.3
21
-144.3
0
LINE
8
0
10
178.3
20
-144.3
11
178.3
21
-127.7
0
LINE
8
0
10
178.3
20
-127.7
11
161.7
21
-127.7
0
LINE
8
0
10
161.7
20
-127.7
11
161.7
21
-144.3
0
LINE
8
0
10
179.7
20
-176.3
11
196.3
21
-176.3
0
LINE
8
0
10
196.3
20
-176.3
11
196.3
21
-159.7
0
LINE
8
0
10
196.3
20
-159.7
11
179.7
21
-159.7
0
LINE
8
0
10
179.7
20
-159.7
11
179.7
21
-176.3
0
LINE
8
0
10
179.7
20
-158.3
11
196.3
21
-158.3
0
LINE
8
0
10
196.3
20
-158.3
11
196.3
21
-141.7
0
LINE
8
0
10
196.3
20
-141.7
11
179.7
21
-141.7
0
LINE
8
0
10
179.7
20
-141.7
11
179.7
21
-158.3
0
LINE
8
0
10
179.7
20
-140.3
11
196.3
21
-140.3
0
LINE
8
0
10
196.3
20
-140.3
11
196.3
21
-123.7
0
LINE
8
0
10
196.3
20
-123.7
11
179.7
21
-123.7
0
LINE
8
0
10
179.7
20
-123.7
11
179.7
21
-140.3
0
LINE
8
0
10
197.7
20
-183.8
11
214.3
21
-183.8
0
LINE
8
0
10
214.3
20
-183.8
11
214.3
21
-167.2
0
LINE
8
0
10
214.3
20
-167.2
11
197.7
21
-167.2
0
LINE
8
0
10
197.7
20
-167.2
11
197.7
21
-183.8
0
LINE
8
0
10
197.7
20
-165.8
11
214.3
21
-165.8
0
LINE
8
0
10
214.3
20
-165.8
11
214.3
21
-149.2
0
LINE
8
0
10
214.3
20
-149.2
11
197.7
21
-149.2
0
LINE
8
0
10
197.7
20
-149.2
11
197.7
21
-165.8
0
LINE
8
0
10
197.7
20
-147.8
11
214.3
21
-147.8
0
LINE
8
0
10
214.3
20
-147.8
11
214.3
21
-131.2
0
LINE
8
0
10
214.3
20
-131.2
11
197.7
21
-131.2
0
LINE
8
0
10
197.7
20
-131.2
11
197.7
21
-147.8
0
LINE
8
0
10
197.7
20
-129.8
11
214.3
21
-129.8
0
LINE
8
0
10
214.3
20
-129.8
11
214.3
21
-113.2
0
LINE
8
0
10
214.3
20
-113.2
11
197.7
21
-113.2
0
LINE
8
0
10
197.7
20
-113.2
11
197.7
21
-129.8
0
LINE
8
0
10
215.7
20
-161.8
11
232.3
21
-161.8
0
LINE
8
0
10
232.3
20
-161.8
11
232.3
21
-145.2
0
LINE
8
0
10
232.3
20
-145.2
11
215.7
21
-145.2
0
LINE
8
0
10
215.7
20
-145.2
11
215.7
21
-161.8
0
LINE
8
0
10
215.7
20
-143.8
11
232.3
21
-143.8
0
LINE
8
0
10
232.3
20
-143.8
11
232.3
21
-127.2
0
LINE
8
0
10
232.3
20
-127.2
11
215.7
21
-127.2
0
LINE
8
0
10
215.7
20
-127.2
11
215.7
21
-143.8
0
LINE
8
0
10
215.7
20
-125.8
11
232.3
21
-125.8
0
LINE
8
0
10
232.3
20
-125.8
11
232.3
21
-109.2
0
LINE
8
0
10
232.3
20
-109.2
11
215.7
21
-109.2
0
LINE
8
0
10
215.7
20
-109.2
11
215.7
21
-125.8
0
LINE
8
0
10
233.7
20
-166.8
11
250.3
21
-166.8
0
LINE
8
0
10
250.3
20
-166.8
11
250.3
21
-150.2
0
LINE
8
0
10
250.3
20
-150.2
11
233.7
21
-150.2
0
LINE
8
0
10
233.7
20
-150.2
11
233.7
21
-166.8
0
LINE
8
0
10
233.7
20
-148.8
11
250.3
21
-148.8
0
LINE
8
0
10
250.3
20
-148.8
11
250.3
21
-132.2
0
LINE
8
0
10
250.3
20
-132.2
11
233.7
21
-132.2
0
LINE
8
0
10
233.7
20
-132.2
11
233.7
21
-148.8
0
LINE
8
0
10
233.7
20
-130.8
11
250.3
21
-130.8
0
LINE
8
0
10
250.3
20
-130.8
11
250.3
21
-114.2
0
LINE
8
0
10
250.3
20
-114.2
11
233.7
21
-114.2
0
LINE
8
0
10
233.7
20
-114.2
11
233.7
21
-130.8
0
LINE
8
0
10
251.7
20
-168.8
11
268.3
21
-168.8
0
LINE
8
0
10
268.3
20
-168.8
11
268.3
21
-152.2
0
LINE
8
0
10
268.3
20
-152.2
11
251.7
21
-152.2
0
LINE
8
0
10
251.7
20
-152.2
11
251.7
21
-168.8
0
LINE
8
0
10
251.7
20
-150.8
11
268.3
21
-150.8
0
LINE
8
0
10
268.3
20
-150.8
11
268.3
21
-134.2
0
LINE
8
0
10
268.3
20
-134.2
11
251.7
21
-134.2
0
LINE
8
0
10
251.7
20
-134.2
11
251.7
21
-150.8
0
LINE
8
0
10
251.7
20
-132.8
11
268.3
21
-132.8
0
LINE
8
0
10
268.3
20
-132.8
11
268.3
21
-116.2
0
LINE
8
0
10
268.3
20
-116.2
11
251.7
21
-116.2
0
LINE
8
0
10
251.7
20
-116.2
11
251.7
21
-132.8
0
LINE
8
0
10
215.7
20
-186.8
11
232.3
21
-186.8
0
LINE
8
0
10
232.3
20
-186.8
11
232.3
21
-170.2
0
LINE
8
0
10
232.3
20
-170.2
11
215.7
21
-170.2
0
LINE
8
0
10
215.7
20
-170.2
11
215.7
21
-186.8
0
LINE
8
0
10
233.7
20
-186.8
11
250.3
21
-186.8
0
LINE
8
0
10
250.3
20
-186.8
11
250.3
21
-170.2
0
LINE
8
0
10
250.3
20
-170.2
11
233.7
21
-170.2
0
LINE
8
0
10
233.7
20
-170.2
11
233.7
21
-186.8
0
LINE
8
0
10
251.3396834
20
-186.9368769
11
267.3740521
21
-191.233273
0
LINE
8
0
10
267.3740521
20
-191.233273
11
271.6704482
21
-175.1989043
0
LINE
8
0
10
271.6704482
20
-175.1989043
11
255.6360795
21
-170.9025082
0
LINE
8
0
10
255.6360795
20
-170.9025082
11
251.3396834
21
-186.9368769
0
LINE
8
0
10
268.3428826
20
-191.6345758
11
282.7189044
21
-199.9345758
0
LINE
8
0
10
282.7189044
20
-199.9345758
11
291.0189044
21
-185.558554
0
LINE
8
0
10
291.0189044
20
-185.558554
11
276.6428826
21
-177.258554
0
LINE
8
0
10
276.6428826
20
-177.258554
11
268.3428826
21
-191.6345758
0
LINE
8
0
10
421.061787
20
-180.3
11
437.661787
21
-180.3
0
LINE
8
0
10
437.661787
20
-180.3
11
437.661787
21
-163.7
0
LINE
8
0
10
437.661787
20
-163.7
11
421.061787
21
-163.7
0
LINE
8
0
10
421.061787
20
-163.7
11
421.061787
21
-180.3
0
LINE
8
0
10
421.061787
20
-162.3
11
437.661787
21
-162.3
0
LINE
8
0
10
437.661787
20
-162.3
11
437.661787
21
-145.7
0
LINE
8
0
10
437.661787
20
-145.7
11
421.061787
21
-145.7
0
LINE
8
0
10
421.061787
20
-145.7
11
421.061787
21
-162.3
0
LINE
8
0
10
421.061787
20
-144.3
11
437.661787
21
-144.3
0
LINE
8
0
10
437.661787
20
-144.3
11
437.661787
21
-127.7
0
LINE
8
0
10
437.661787
20
-127.7
11
421.061787
21
-127.7
0
LINE
8
0
10
421.061787
20
-127.7
11
421.061787
21
-144.3
0
LINE
8
0
10
403.061787
20
-176.3
11
419.661787
21
-176.3
0
LINE
8
0
10
419.661787
20
-176.3
11
419.661787
21
-159.7
0
LINE
8
0
10
419.661787
20
-159.7
11
403.061787
21
-159.7
0
LINE
8
0
10
403.061787
20
-159.7
11
403.061787
21
-176.3
0
LINE
8
0
10
403.061787
20
-158.3
11
419.661787
21
-158.3
0
LINE
8
0
10
419.661787
20
-158.3
11
419.661787
21
-141.7
0
LINE
8
0
10
419.661787
20
-141.7
11
403.061787
21
-141.7
0
LINE
8
0
10
403.061787
20
-141.7
11
403.061787
21
-158.3
0
LINE
8
0
10
403.061787
20
-140.3
11
419.661787
21
-140.3
0
LINE
8
0
10
419.661787
20
-140.3
11
419.661787
21
-123.7
0
LINE
8
0
10
419.661787
20
-127.3
11
403.061787
21
-123.7
0
LINE
8
0
10
403.061787
20
-123.7
11
403.061787
21
-140.3
0
LINE
8
0
10
385.061787
20
-183.8
11
401.661787
21
-183.8
0
LINE
8
0
10
401.661787
20
-183.8
11
401.661787
21
-167.2
0
LINE
8
0
10
401.661787
20
-167.2
11
385.061787
21
-167.2
0
LINE
8
0
10
385.061787
20
-167.2
11
385.061787
21
-183.8
0
LINE
8
0
10
385.061787
20
-165.8
11
401.661787
21
-165.8
0
LINE
8
0
10
401.661787
20
-165.8
11
401.661787
21
-149.2
0
LINE
8
0
10
401.661787
20
-149.2
11
385.061787
21
-149.2
0
LINE
8
0
10
385.061787
20
-149.2
11
385.061787
21
-165.8
0
LINE
8
0
10
385.061787
20
-147.8
11
401.661787
21
-147.8
0
LINE
8
0
10
401.661787
20
-147.8
11
401.661787
21
-131.2
0
LINE
8
0
10
401.661787
20
-131.2
11
385.061787
21
-131.2
0
LINE
8
0
10
385.061787
20
-131.2
11
385.061787
21
-147.8
0
LINE
8
0
10
385.061787
20
-129.8
11
401.661787
21
-129.8
0
LINE
8
0
10
401.661787
20
-129.8
11
401.661787
21
-113.2
0
LINE
8
0
10
401.661787
20
-113.2
11
385.061787
21
-113.2
0
LINE
8
0
10
385.061787
20
-113.2
11
385.061787
21
-129.8
0
LINE
8
0
10
367.061787
20
-161.8
11
383.661787
21
-161.8
0
LINE
8
0
10
383.661787
20
-161.8
11
383.661787
21
-145.2
0
LINE
8
0
10
383.661787
20
-145.2
11
367.061787
21
-145.2
0
LINE
8
0
10
367.061787
20
-145.2
11
367.061787
21
-161.8
0
LINE
8
0
10
367.061787
20
-143.8
11
383.661787
21
-143.8
0
LINE
8
0
10
383.661787
20
-143.8
11
383.661787
21
-127.2
0
LINE
8
0
10
383.661787
20
-127.2
11
367.061787
21
-127.2
0
LINE
8
0
10
367.061787
20
-127.2
11
367.061787
21
-143.8
0
LINE
8
0
10
367.061787
20
-125.8
11
383.661787
21
-125.8
0
LINE
8
0
10
383.661787
20
-125.8
11
383.661787
21
-109.2
0
LINE
8
0
10
383.661787
20
-109.2
11
367.061787
21
-109.2
0
LINE
8
0
10
367.061787
20
-109.2
11
367.061787
21
-125.8
0
LINE
8
0
10
349.061787
20
-166.8
11
365.661787
21
-166.8
0
LINE
8
0
10
365.661787
20
-166.8
11
365.661787
21
-150.2
0
LINE
8
0
10
365.661787
20
-150.2
11
349.061787
21
-150.2
0
LINE
8
0
10
349.061787
20
-150.2
11
349.061787
21
-166.8
0
LINE
8
0
10
349.061787
20
-148.8
11
365.661787
21
-148.8
0
LINE
8
0
10
365.661787
20
-148.8
11
365.661787
21
-132.2
0
LINE
8
0
10
365.661787
20
-132.2
11
349.061787
21
-132.2
0
LINE
8
0
10
349.061787
20
-132.2
11
349.061787
21
-148.8
0
LINE
8
0
10
349.061787
20
-130.8
11
365.661787
21
-130.8
0
LINE
8
0
10
365.661787
20
-130.8
11
365.661787
21
-114.2
0
LINE
8
0
10
365.661787
20
-114.2
11
349.061787
21
-114.2
0
LINE
8
0
10
349.061787
20
-114.2
11
349.061787
21
-130.8
0
LINE
8
0
10
331.061787
20
-168.8
11
347.661787
21
-168.8
0
LINE
8
0
10
347.661787
20
-168.8
11
347.661787
21
-152.2
0
LINE
8
0
10
347.661787
20
-152.2
11
331.061787
21
-152.2
0
LINE
8
0
10
331.061787
20
-152.2
11
331.061787
21
-168.8
0
LINE
8
0
10
331.061787
20
-150.8
11
347.661787
21
-150.8
0
LINE
8
0
10
347.661787
20
-150.8
11
347.661787
21
-134.2
0
LINE
8
0
10
347.661787
20
-134.2
11
331.061787
21
-134.2
0
LINE
8
0
10
331.061787
20
-134.2
11
331.061787
21
-150.8
0
LINE
8
0
10
331.061787
20
-132.8
11
347.661787
21
-132.8
0
LINE
8
0
10
347.661787
20
-132.8
11
347.661787
21
-116.2
0
LINE
8
0
10
347.661787
20
-116.2
11
331.061787
21
-116.2
0
LINE
8
0
10
331.061787
20
-116.2
11
331.061787
21
-132.8
0
LINE
8
0
10
367.061787
20
-186.8
11
383.661787
21
-186.8
0
LINE
8
0
10
383.661787
20
-186.8
11
383.661787
21
-170.2
0
LINE
8
0
10
383.661787
20
-170.2
11
367.061787
21
-170.2
0
LINE
8
0
10
367.061787
20
-170.2
11
367.061787
21
-186.8
0
LINE
8
0
10
349.061787
20
-186.8
11
365.661787
21
-186.8
0
LINE
8
0
10
365.661787
20
-186.8
11
365.661787
21
-170.2
0
LINE
8
0
10
365.661787
20
-170.2
11
349.061787
21
-170.2
0
LINE
8
0
10
349.061787
20
-170.2
11
349.061787
21
-186.8
0
LINE
8
0
10
331.9877349
20
-191.233273
11
348.0221036
21
-186.9368769
0
LINE
8
0
10
348.0221036
20
-186.9368769
11
343.7257075
21
-170.9025082
0
LINE
8
0
10
343.7257075
20
-170.9025082
11
327.6913388
21
-175.1989043
0
LINE
8
0
10
327.6913388
20
-175.1989043
11
331.9877349
21
-191.233273
0
LINE
8
0
10
316.6428826
20
-199.9345758
11
331.0189044
21
-191.6345758
0
LINE
8
0
10
331.0189044
20
-191.6345758
11
322.7189044
21
-177.258554
0
LINE
8
0
10
322.7189044
20
-177.258554
11
308.3428826
21
-185.558554
0
LINE
8
0
10
308.3428826
20
-185.558554
11
316.6428826
21
-199.9345758
0
ENDSEC
0
EOF
