0
SECTION
2
HEADER
9
$INSUNITS
70
4
0
ENDSEC
0
SECTION
2
TABLES
0
TABLE
2
LTYPE
0
LTYPE
72
65
70
64
2
CONTINUOUS
3
______
73
0
40
0
0
ENDTAB
0
TABLE
2
LAYER
0
ENDTAB
0
ENDSEC
0
SECTION
2
ENTITIES
0
LINE
8
0
10
161.7
20
-180.3
11
178.3
21
-180.3
0
LINE
8
0
10
178.3
20
-180.3
11
178.3
21
-163.7
0
LINE
8
0
10
178.3
20
-163.7
11
161.7
21
-163.7
0
LINE
8
0
10
161.7
20
-163.7
11
161.7
21
-180.3
0
LINE
8
0
10
161.7
20
-162.3
11
178.3
21
-162.3
0
LINE
8
0
10
178.3
20
-162.3
11
178.3
21
-145.7
0
LINE
8
0
10
178.3
20
-145.7
11
161.7
21
-145.7
0
LINE
8
0
10
161.7
20
-145.7
11
161.7
21
-162.3
0
LINE
8
0
10
161.7
20
-144.3
11
178.3
21
-144.3
0
LINE
8
0
10
178.3
20
-144.3
11
178.3
21
-127.7
0
LINE
8
0
10
178.3
20
-127.7
11
161.7
21
-127.7
0
LINE
8
0
10
161.7
20
-127.7
11
161.7
21
-144.3
0
LINE
8
0
10
179.7
20
-176.3
11
196.3
21
-176.3
0
LINE
8
0
10
196.3
20
-176.3
11
196.3
21
-159.7
0
LINE
8
0
10
196.3
20
-159.7
11
179.7
21
-159.7
0
LINE
8
0
10
179.7
20
-159.7
11
179.7
21
-176.3
0
LINE
8
0
10
179.7
20
-158.3
11
196.3
21
-158.3
0
LINE
8
0
10
196.3
20
-158.3
11
196.3
21
-141.7
0
LINE
8
0
10
196.3
20
-141.7
11
179.7
21
-141.7
0
LINE
8
0
10
179.7
20
-141.7
11
179.7
21
-158.3
0
LINE
8
0
10
179.7
20
-140.3
11
196.3
21
-140.3
0
LINE
8
0
10
196.3
20
-140.3
11
196.3
21
-123.7
0
LINE
8
0
10
196.3
20
-123.7
11
179.7
21
-123.7
0
LINE
8
0
10
179.7
20
-123.7
11
179.7
21
-140.3
0
LINE
8
0
10
197.7
20
-180.3
11
214.3
21
-180.3
0
LINE
8
0
10
214.3
20
-180.3
11
214.3
21
-163.7
0
LINE
8
0
10
214.3
20
-163.7
11
197.7
21
-163.7
0
LINE
8
0
10
197.7
20
-163.7
11
197.7
21
-180.3
0
LINE
8
0
10
197.7
20
-162.3
11
214.3
21
-162.3
0
LINE
8
0
10
214.3
20
-162.3
11
214.3
21
-145.7
0
LINE
8
0
10
214.3
20
-145.7
11
197.7
21
-145.7
0
LINE
8
0
10
197.7
20
-145.7
11
197.7
21
-162.3
0
LINE
8
0
10
197.7
20
-144.3
11
214.3
21
-144.3
0
LINE
8
0
10
214.3
20
-144.3
11
214.3
21
-127.7
0
LINE
8
0
10
214.3
20
-127.7
11
197.7
21
-127.7
0
LINE
8
0
10
197.7
20
-127.7
11
197.7
21
-144.3
0
LINE
8
0
10
197.7
20
-126.3
11
214.3
21
-126.3
0
LINE
8
0
10
214.3
20
-126.3
11
214.3
21
-109.7
0
LINE
8
0
10
214.3
20
-109.7
11
197.7
21
-109.7
0
LINE
8
0
10
197.7
20
-109.7
11
197.7
21
-126.3
0
LINE
8
0
10
215.7
20
-158.3
11
232.3
21
-158.3
0
LINE
8
0
10
232.3
20
-158.3
11
232.3
21
-141.7
0
LINE
8
0
10
232.3
20
-141.7
11
215.7
21
-141.7
0
LINE
8
0
10
215.7
20
-141.7
11
215.7
21
-158.3
0
LINE
8
0
10
215.7
20
-140.3
11
232.3
21
-140.3
0
LINE
8
0
10
232.3
20
-140.3
11
232.3
21
-123.7
0
LINE
8
0
10
232.3
20
-123.7
11
215.7
21
-123.7
0
LINE
8
0
10
215.7
20
-123.7
11
215.7
21
-140.3
0
LINE
8
0
10
215.7
20
-122.3
11
232.3
21
-122.3
0
LINE
8
0
10
232.3
20
-122.3
11
232.3
21
-105.7
0
LINE
8
0
10
232.3
20
-105.7
11
215.7
21
-105.7
0
LINE
8
0
10
215.7
20
-105.7
11
215.7
21
-122.3
0
LINE
8
0
10
233.7
20
-163.3
11
250.3
21
-163.3
0
LINE
8
0
10
250.3
20
-163.3
11
250.3
21
-146.7
0
LINE
8
0
10
250.3
20
-146.7
11
233.7
21
-146.7
0
LINE
8
0
10
233.7
20
-146.7
11
233.7
21
-163.3
0
LINE
8
0
10
233.7
20
-145.3
11
250.3
21
-145.3
0
LINE
8
0
10
250.3
20
-145.3
11
250.3
21
-128.7
0
LINE
8
0
10
250.3
20
-128.7
11
233.7
21
-128.7
0
LINE
8
0
10
233.7
20
-128.7
11
233.7
21
-145.3
0
LINE
8
0
10
233.7
20
-127.3
11
250.3
21
-127.3
0
LINE
8
0
10
250.3
20
-127.3
11
250.3
21
-110.7
0
LINE
8
0
10
250.3
20
-110.7
11
233.7
21
-110.7
0
LINE
8
0
10
233.7
20
-110.7
11
233.7
21
-127.3
0
LINE
8
0
10
251.7
20
-167.3
11
268.3
21
-167.3
0
LINE
8
0
10
268.3
20
-167.3
11
268.3
21
-150.7
0
LINE
8
0
10
268.3
20
-150.7
11
251.7
21
-150.7
0
LINE
8
0
10
251.7
20
-150.7
11
251.7
21
-167.3
0
LINE
8
0
10
251.7
20
-149.3
11
268.3
21
-149.3
0
LINE
8
0
10
268.3
20
-149.3
11
268.3
21
-132.7
0
LINE
8
0
10
268.3
20
-132.7
11
251.7
21
-132.7
0
LINE
8
0
10
251.7
20
-132.7
11
251.7
21
-149.3
0
LINE
8
0
10
251.7
20
-131.3
11
268.3
21
-131.3
0
LINE
8
0
10
268.3
20
-131.3
11
268.3
21
-114.7
0
LINE
8
0
10
268.3
20
-114.7
11
251.7
21
-114.7
0
LINE
8
0
10
251.7
20
-114.7
11
251.7
21
-131.3
0
LINE
8
0
10
441.7
20
-180.3
11
458.3
21
-180.3
0
LINE
8
0
10
458.3
20
-180.3
11
458.3
21
-163.7
0
LINE
8
0
10
458.3
20
-163.7
11
441.7
21
-163.7
0
LINE
8
0
10
441.7
20
-163.7
11
441.7
21
-180.3
0
LINE
8
0
10
441.7
20
-162.3
11
458.3
21
-162.3
0
LINE
8
0
10
458.3
20
-162.3
11
458.3
21
-145.7
0
LINE
8
0
10
458.3
20
-145.7
11
441.7
21
-145.7
0
LINE
8
0
10
441.7
20
-145.7
11
441.7
21
-162.3
0
LINE
8
0
10
441.7
20
-144.3
11
458.3
21
-144.3
0
LINE
8
0
10
458.3
20
-144.3
11
458.3
21
-127.7
0
LINE
8
0
10
458.3
20
-127.7
11
441.7
21
-127.7
0
LINE
8
0
10
441.7
20
-127.7
11
441.7
21
-144.3
0
LINE
8
0
10
423.7
20
-176.3
11
440.3
21
-176.3
0
LINE
8
0
10
440.3
20
-176.3
11
440.3
21
-159.7
0
LINE
8
0
10
440.3
20
-159.7
11
423.7
21
-159.7
0
LINE
8
0
10
423.7
20
-159.7
11
423.7
21
-176.3
0
LINE
8
0
10
423.7
20
-158.3
11
440.3
21
-158.3
0
LINE
8
0
10
440.3
20
-158.3
11
440.3
21
-141.7
0
LINE
8
0
10
440.3
20
-141.7
11
423.7
21
-141.7
0
LINE
8
0
10
423.7
20
-141.7
11
423.7
21
-158.3
0
LINE
8
0
10
423.7
20
-140.3
11
440.3
21
-140.3
0
LINE
8
0
10
440.3
20
-140.3
11
440.3
21
-123.7
0
LINE
8
0
10
440.3
20
-123.7
11
423.7
21
-123.7
0
LINE
8
0
10
423.7
20
-123.7
11
423.7
21
-140.3
0
LINE
8
0
10
405.7
20
-180.3
11
422.3
21
-180.3
0
LINE
8
0
10
422.3
20
-180.3
11
422.3
21
-163.7
0
LINE
8
0
10
422.3
20
-163.7
11
405.7
21
-163.7
0
LINE
8
0
10
405.7
20
-163.7
11
405.7
21
-180.3
0
LINE
8
0
10
405.7
20
-162.3
11
422.3
21
-162.3
0
LINE
8
0
10
422.3
20
-162.3
11
422.3
21
-145.7
0
LINE
8
0
10
422.3
20
-145.7
11
405.7
21
-145.7
0
LINE
8
0
10
405.7
20
-145.7
11
405.7
21
-162.3
0
LINE
8
0
10
405.7
20
-144.3
11
422.3
21
-144.3
0
LINE
8
0
10
422.3
20
-144.3
11
422.3
21
-127.7
0
LINE
8
0
10
422.3
20
-127.7
11
405.7
21
-127.7
0
LINE
8
0
10
405.7
20
-127.7
11
405.7
21
-144.3
0
LINE
8
0
10
405.7
20
-126.3
11
422.3
21
-126.3
0
LINE
8
0
10
422.3
20
-126.3
11
422.3
21
-109.7
0
LINE
8
0
10
422.3
20
-109.7
11
405.7
21
-109.7
0
LINE
8
0
10
405.7
20
-109.7
11
405.7
21
-126.3
0
LINE
8
0
10
387.7
20
-158.3
11
404.3
21
-158.3
0
LINE
8
0
10
404.3
20
-158.3
11
404.3
21
-141.7
0
LINE
8
0
10
404.3
20
-141.7
11
387.7
21
-141.7
0
LINE
8
0
10
387.7
20
-141.7
11
387.7
21
-158.3
0
LINE
8
0
10
387.7
20
-140.3
11
404.3
21
-140.3
0
LINE
8
0
10
404.3
20
-140.3
11
404.3
21
-123.7
0
LINE
8
0
10
404.3
20
-123.7
11
387.7
21
-123.7
0
LINE
8
0
10
387.7
20
-123.7
11
387.7
21
-140.3
0
LINE
8
0
10
387.7
20
-122.3
11
404.3
21
-122.3
0
LINE
8
0
10
404.3
20
-122.3
11
404.3
21
-105.7
0
LINE
8
0
10
404.3
20
-105.7
11
387.7
21
-105.7
0
LINE
8
0
10
387.7
20
-105.7
11
387.7
21
-122.3
0
LINE
8
0
10
369.7
20
-163.3
11
386.3
21
-163.3
0
LINE
8
0
10
386.3
20
-163.3
11
386.3
21
-146.7
0
LINE
8
0
10
386.3
20
-146.7
11
369.7
21
-146.7
0
LINE
8
0
10
369.7
20
-146.7
11
369.7
21
-163.3
0
LINE
8
0
10
369.7
20
-145.3
11
386.3
21
-145.3
0
LINE
8
0
10
386.3
20
-145.3
11
386.3
21
-128.7
0
LINE
8
0
10
386.3
20
-128.7
11
369.7
21
-128.7
0
LINE
8
0
10
369.7
20
-128.7
11
369.7
21
-145.3
0
LINE
8
0
10
369.7
20
-127.3
11
386.3
21
-127.3
0
LINE
8
0
10
386.3
20
-127.3
11
386.3
21
-110.7
0
LINE
8
0
10
386.3
20
-110.7
11
369.7
21
-110.7
0
LINE
8
0
10
369.7
20
-110.7
11
369.7
21
-127.3
0
LINE
8
0
10
351.7
20
-167.3
11
368.3
21
-167.3
0
LINE
8
0
10
368.3
20
-167.3
11
368.3
21
-150.7
0
LINE
8
0
10
368.3
20
-150.7
11
351.7
21
-150.7
0
LINE
8
0
10
351.7
20
-150.7
11
351.7
21
-167.3
0
LINE
8
0
10
351.7
20
-149.3
11
368.3
21
-149.3
0
LINE
8
0
10
368.3
20
-149.3
11
368.3
21
-132.7
0
LINE
8
0
10
368.3
20
-132.7
11
351.7
21
-132.7
0
LINE
8
0
10
351.7
20
-132.7
11
351.7
21
-149.3
0
LINE
8
0
10
351.7
20
-131.3
11
368.3
21
-131.3
0
LINE
8
0
10
368.3
20
-131.3
11
368.3
21
-114.7
0
LINE
8
0
10
368.3
20
-114.7
11
351.7
21
-114.7
0
LINE
8
0
10
351.7
20
-114.7
11
351.7
21
-131.3
0
ENDSEC
0
EOF