0
SECTION
2
HEADER
9
$INSUNITS
70
4
0
ENDSEC
0
SECTION
2
TABLES
0
TABLE
2
LTYPE
0
LTYPE
72
65
70
64
2
CONTINUOUS
3
______
73
0
40
0
0
ENDTAB
0
TABLE
2
LAYER
0
ENDTAB
0
ENDSEC
0
SECTION
2
ENTITIES
0
LINE
8
0
10
161.7
20
-180.3
11
178.3
21
-180.3
0
LINE
8
0
10
178.3
20
-180.3
11
178.3
21
-166.8
0
LINE
8
0
10
169.7
20
-163.7
11
168.3
21
-163.7
0
LINE
8
0
10
161.7
20
-168.8
11
161.7
21
-180.3
0
LINE
8
0
10
168.3
20
-162.3
11
169.7
21
-162.3
0
LINE
8
0
10
178.3
20
-150.2
11
178.3
21
-148.8
0
LINE
8
0
10
169.7
20
-145.7
11
168.3
21
-145.7
0
LINE
8
0
10
161.7
20
-150.8
11
161.7
21
-152.2
0
LINE
8
0
10
168.3
20
-144.3
11
169.7
21
-144.3
0
LINE
8
0
10
178.3
20
-132.2
11
178.3
21
-130.8
0
LINE
8
0
10
169.7
20
-127.7
11
168.3
21
-127.7
0
LINE
8
0
10
161.7
20
-132.8
11
161.7
21
-134.2
0
LINE
8
0
10
179.7
20
-176.3
11
196.3
21
-176.3
0
LINE
8
0
10
196.3
20
-176.3
11
196.3
21
-161.8
0
LINE
8
0
10
187.7
20
-159.7
11
186.3
21
-159.7
0
LINE
8
0
10
179.7
20
-166.8
11
179.7
21
-176.3
0
LINE
8
0
10
186.3
20
-158.3
11
187.7
21
-158.3
0
LINE
8
0
10
196.3
20
-145.2
11
196.3
21
-143.8
0
LINE
8
0
10
187.7
20
-141.7
11
186.3
21
-141.7
0
LINE
8
0
10
179.7
20
-148.8
11
179.7
21
-150.2
0
LINE
8
0
10
186.3
20
-140.3
11
187.7
21
-140.3
0
LINE
8
0
10
196.3
20
-127.2
11
196.3
21
-125.8
0
LINE
8
0
10
187.7
20
-123.7
11
186.3
21
-123.7
0
LINE
8
0
10
179.7
20
-130.8
11
179.7
21
-132.2
0
LINE
8
0
10
197.7
20
-183.8
11
222.3
21
-183.8
0
LINE
8
0
10
197.7
20
-167.2
11
222.3
21
-167.2
0
LINE
8
0
10
197.7
20
-167.2
11
197.7
21
-183.8
0
LINE
8
0
10
197.7
20
-165.8
11
222.3
21
-165.8
0
LINE
8
0
10
204.3
20
-149.2
11
215.7
21
-149.2
0
LINE
8
0
10
197.7
20
-161.8
11
197.7
21
-165.8
0
LINE
8
0
10
204.3
20
-147.8
11
215.7
21
-147.8
0
LINE
8
0
10
204.3
20
-131.2
11
215.7
21
-131.2
0
LINE
8
0
10
197.7
20
-143.8
11
197.7
21
-145.2
0
LINE
8
0
10
204.3
20
-129.8
11
215.7
21
-129.8
0
LINE
8
0
10
204.3
20
-113.2
11
215.7
21
-113.2
0
LINE
8
0
10
197.7
20
-125.8
11
197.7
21
-127.2
0
LINE
8
0
10
222.3
20
-161.8
11
223.7
21
-161.8
0
LINE
8
0
10
232.3
20
-159.7
11
232.3
21
-158.3
0
LINE
8
0
10
223.7
20
-145.2
11
222.3
21
-145.2
0
LINE
8
0
10
215.7
20
-147.8
11
215.7
21
-149.2
0
LINE
8
0
10
222.3
20
-143.8
11
223.7
21
-143.8
0
LINE
8
0
10
232.3
20
-141.7
11
232.3
21
-140.3
0
LINE
8
0
10
223.7
20
-127.2
11
222.3
21
-127.2
0
LINE
8
0
10
215.7
20
-129.8
11
215.7
21
-131.2
0
LINE
8
0
10
222.3
20
-125.8
11
223.7
21
-125.8
0
LINE
8
0
10
232.3
20
-123.7
11
232.3
21
-109.2
0
LINE
8
0
10
232.3
20
-109.2
11
215.7
21
-109.2
0
LINE
8
0
10
215.7
20
-109.2
11
215.7
21
-113.2
0
LINE
8
0
10
240.3
20
-166.8
11
241.7
21
-166.8
0
LINE
8
0
10
250.3
20
-163.7
11
250.3
21
-162.3
0
LINE
8
0
10
241.7
20
-150.2
11
240.3
21
-150.2
0
LINE
8
0
10
233.7
20
-158.3
11
233.7
21
-159.7
0
LINE
8
0
10
240.3
20
-148.8
11
241.7
21
-148.8
0
LINE
8
0
10
250.3
20
-145.7
11
250.3
21
-144.3
0
LINE
8
0
10
241.7
20
-132.2
11
240.3
21
-132.2
0
LINE
8
0
10
233.7
20
-140.3
11
233.7
21
-141.7
0
LINE
8
0
10
240.3
20
-130.8
11
241.7
21
-130.8
0
LINE
8
0
10
250.3
20
-127.7
11
250.3
21
-114.2
0
LINE
8
0
10
250.3
20
-114.2
11
233.7
21
-114.2
0
LINE
8
0
10
233.7
20
-114.2
11
233.7
21
-123.7
0
LINE
8
0
10
258.3
20
-168.8
11
268.3
21
-168.8
0
LINE
8
0
10
268.3
20
-168.8
11
268.3
21
-152.2
0
LINE
8
0
10
268.3
20
-152.2
11
258.3
21
-152.2
0
LINE
8
0
10
251.7
20
-162.3
11
251.7
21
-163.7
0
LINE
8
0
10
258.3
20
-150.8
11
268.3
21
-150.8
0
LINE
8
0
10
268.3
20
-150.8
11
268.3
21
-134.2
0
LINE
8
0
10
268.3
20
-134.2
11
258.3
21
-134.2
0
LINE
8
0
10
251.7
20
-144.3
11
251.7
21
-145.7
0
LINE
8
0
10
258.3
20
-132.8
11
268.3
21
-132.8
0
LINE
8
0
10
268.3
20
-132.8
11
268.3
21
-116.2
0
LINE
8
0
10
268.3
20
-116.2
11
251.7
21
-116.2
0
LINE
8
0
10
251.7
20
-116.2
11
251.7
21
-127.7
0
LINE
8
0
10
241.7
20
-180.3
11
258.3
21
-180.3
0
LINE
8
0
10
258.3
20
-180.3
11
258.3
21
-168.8
0
LINE
8
0
10
251.7
20
-163.7
11
250.3
21
-163.7
0
LINE
8
0
10
241.7
20
-166.8
11
241.7
21
-180.3
0
LINE
8
0
10
250.3
20
-162.3
11
251.7
21
-162.3
0
LINE
8
0
10
258.3
20
-152.2
11
258.3
21
-150.8
0
LINE
8
0
10
251.7
20
-145.7
11
250.3
21
-145.7
0
LINE
8
0
10
241.7
20
-148.8
11
241.7
21
-150.2
0
LINE
8
0
10
250.3
20
-144.3
11
251.7
21
-144.3
0
LINE
8
0
10
258.3
20
-134.2
11
258.3
21
-132.8
0
LINE
8
0
10
251.7
20
-127.7
11
250.3
21
-127.7
0
LINE
8
0
10
241.7
20
-130.8
11
241.7
21
-132.2
0
LINE
8
0
10
223.7
20
-176.3
11
240.3
21
-176.3
0
LINE
8
0
10
240.3
20
-176.3
11
240.3
21
-166.8
0
LINE
8
0
10
233.7
20
-159.7
11
232.3
21
-159.7
0
LINE
8
0
10
223.7
20
-161.8
11
223.7
21
-176.3
0
LINE
8
0
10
232.3
20
-158.3
11
233.7
21
-158.3
0
LINE
8
0
10
240.3
20
-150.2
11
240.3
21
-148.8
0
LINE
8
0
10
233.7
20
-141.7
11
232.3
21
-141.7
0
LINE
8
0
10
223.7
20
-143.8
11
223.7
21
-145.2
0
LINE
8
0
10
232.3
20
-140.3
11
233.7
21
-140.3
0
LINE
8
0
10
240.3
20
-132.2
11
240.3
21
-130.8
0
LINE
8
0
10
233.7
20
-123.7
11
232.3
21
-123.7
0
LINE
8
0
10
223.7
20
-125.8
11
223.7
21
-127.2
0
LINE
8
0
10
222.3
20
-183.8
11
222.3
21
-167.2
0
LINE
8
0
10
222.3
20
-165.8
11
222.3
21
-161.8
0
LINE
8
0
10
222.3
20
-145.2
11
222.3
21
-143.8
0
LINE
8
0
10
222.3
20
-127.2
11
222.3
21
-125.8
0
LINE
8
0
10
196.3
20
-161.8
11
197.7
21
-161.8
0
LINE
8
0
10
204.3
20
-149.2
11
204.3
21
-147.8
0
LINE
8
0
10
197.7
20
-145.2
11
196.3
21
-145.2
0
LINE
8
0
10
187.7
20
-158.3
11
187.7
21
-159.7
0
LINE
8
0
10
196.3
20
-143.8
11
197.7
21
-143.8
0
LINE
8
0
10
204.3
20
-131.2
11
204.3
21
-129.8
0
LINE
8
0
10
197.7
20
-127.2
11
196.3
21
-127.2
0
LINE
8
0
10
187.7
20
-140.3
11
187.7
21
-141.7
0
LINE
8
0
10
196.3
20
-125.8
11
197.7
21
-125.8
0
LINE
8
0
10
204.3
20
-113.2
11
204.3
21
-109.2
0
LINE
8
0
10
204.3
20
-109.2
11
187.7
21
-109.2
0
LINE
8
0
10
187.7
20
-109.2
11
187.7
21
-123.7
0
LINE
8
0
10
178.3
20
-166.8
11
179.7
21
-166.8
0
LINE
8
0
10
186.3
20
-159.7
11
186.3
21
-158.3
0
LINE
8
0
10
179.7
20
-150.2
11
178.3
21
-150.2
0
LINE
8
0
10
169.7
20
-162.3
11
169.7
21
-163.7
0
LINE
8
0
10
178.3
20
-148.8
11
179.7
21
-148.8
0
LINE
8
0
10
186.3
20
-141.7
11
186.3
21
-140.3
0
LINE
8
0
10
179.7
20
-132.2
11
178.3
21
-132.2
0
LINE
8
0
10
169.7
20
-144.3
11
169.7
21
-145.7
0
LINE
8
0
10
178.3
20
-130.8
11
179.7
21
-130.8
0
LINE
8
0
10
186.3
20
-123.7
11
186.3
21
-114.2
0
LINE
8
0
10
186.3
20
-114.2
11
169.7
21
-114.2
0
LINE
8
0
10
169.7
20
-114.2
11
169.7
21
-127.7
0
LINE
8
0
10
151.7
20
-168.8
11
161.7
21
-168.8
0
LINE
8
0
10
168.3
20
-163.7
11
168.3
21
-162.3
0
LINE
8
0
10
161.7
20
-152.2
11
151.7
21
-152.2
0
LINE
8
0
10
151.7
20
-152.2
11
151.7
21
-168.8
0
LINE
8
0
10
151.7
20
-150.8
11
161.7
21
-150.8
0
LINE
8
0
10
168.3
20
-145.7
11
168.3
21
-144.3
0
LINE
8
0
10
161.7
20
-134.2
11
151.7
21
-134.2
0
LINE
8
0
10
151.7
20
-134.2
11
151.7
21
-150.8
0
LINE
8
0
10
151.7
20
-132.8
11
161.7
21
-132.8
0
LINE
8
0
10
168.3
20
-127.7
11
168.3
21
-116.2
0
LINE
8
0
10
168.3
20
-116.2
11
151.7
21
-116.2
0
LINE
8
0
10
151.7
20
-116.2
11
151.7
21
-132.8
0
ENDSEC
0
EOF