0
SECTION
2
HEADER
9
$INSUNITS
70
4
0
ENDSEC
0
SECTION
2
TABLES
0
TABLE
2
LTYPE
0
LTYPE
72
65
70
64
2
CONTINUOUS
3
______
73
0
40
0
0
ENDTAB
0
TABLE
2
LAYER
0
ENDTAB
0
ENDSEC
0
SECTION
2
ENTITIES
0
LINE
8
0
10
-8.3
20
9.7
11
8.3
21
9.7
0
LINE
8
0
10
8.3
20
9.7
11
8.3
21
26.3
0
LINE
8
0
10
8.3
20
26.3
11
-8.3
21
26.3
0
LINE
8
0
10
-8.3
20
26.3
11
-8.3
21
9.7
0
LINE
8
0
10
-8.3
20
27.7
11
8.3
21
27.7
0
LINE
8
0
10
8.3
20
27.7
11
8.3
21
44.3
0
LINE
8
0
10
8.3
20
44.3
11
-8.3
21
44.3
0
LINE
8
0
10
-8.3
20
44.3
11
-8.3
21
27.7
0
LINE
8
0
10
-8.3
20
45.7
11
8.3
21
45.7
0
LINE
8
0
10
8.3
20
45.7
11
8.3
21
62.3
0
LINE
8
0
10
8.3
20
62.3
11
-8.3
21
62.3
0
LINE
8
0
10
-8.3
20
62.3
11
-8.3
21
45.7
0
LINE
8
0
10
9.7
20
13.7
11
26.3
21
13.7
0
LINE
8
0
10
26.3
20
13.7
11
26.3
21
30.3
0
LINE
8
0
10
26.3
20
30.3
11
9.7
21
30.3
0
LINE
8
0
10
9.7
20
30.3
11
9.7
21
13.7
0
LINE
8
0
10
9.7
20
31.7
11
26.3
21
31.7
0
LINE
8
0
10
26.3
20
31.7
11
26.3
21
48.3
0
LINE
8
0
10
26.3
20
48.3
11
9.7
21
48.3
0
LINE
8
0
10
9.7
20
48.3
11
9.7
21
31.7
0
LINE
8
0
10
9.7
20
49.7
11
26.3
21
49.7
0
LINE
8
0
10
26.3
20
49.7
11
26.3
21
66.3
0
LINE
8
0
10
26.3
20
66.3
11
9.7
21
66.3
0
LINE
8
0
10
9.7
20
66.3
11
9.7
21
49.7
0
LINE
8
0
10
27.7
20
9.7
11
44.3
21
9.7
0
LINE
8
0
10
44.3
20
9.7
11
44.3
21
26.3
0
LINE
8
0
10
44.3
20
26.3
11
27.7
21
26.3
0
LINE
8
0
10
27.7
20
26.3
11
27.7
21
9.7
0
LINE
8
0
10
27.7
20
27.7
11
44.3
21
27.7
0
LINE
8
0
10
44.3
20
27.7
11
44.3
21
44.3
0
LINE
8
0
10
44.3
20
44.3
11
27.7
21
44.3
0
LINE
8
0
10
27.7
20
44.3
11
27.7
21
27.7
0
LINE
8
0
10
27.7
20
45.7
11
44.3
21
45.7
0
LINE
8
0
10
44.3
20
45.7
11
44.3
21
62.3
0
LINE
8
0
10
44.3
20
62.3
11
27.7
21
62.3
0
LINE
8
0
10
27.7
20
62.3
11
27.7
21
45.7
0
LINE
8
0
10
27.7
20
63.7
11
44.3
21
63.7
0
LINE
8
0
10
44.3
20
63.7
11
44.3
21
80.3
0
LINE
8
0
10
44.3
20
80.3
11
27.7
21
80.3
0
LINE
8
0
10
27.7
20
80.3
11
27.7
21
63.7
0
LINE
8
0
10
45.7
20
31.7
11
62.3
21
31.7
0
LINE
8
0
10
62.3
20
31.7
11
62.3
21
48.3
0
LINE
8
0
10
62.3
20
48.3
11
45.7
21
48.3
0
LINE
8
0
10
45.7
20
48.3
11
45.7
21
31.7
0
LINE
8
0
10
45.7
20
49.7
11
62.3
21
49.7
0
LINE
8
0
10
62.3
20
49.7
11
62.3
21
66.3
0
LINE
8
0
10
62.3
20
66.3
11
45.7
21
66.3
0
LINE
8
0
10
45.7
20
66.3
11
45.7
21
49.7
0
LINE
8
0
10
45.7
20
67.7
11
62.3
21
67.7
0
LINE
8
0
10
62.3
20
67.7
11
62.3
21
84.3
0
LINE
8
0
10
62.3
20
84.3
11
45.7
21
84.3
0
LINE
8
0
10
45.7
20
84.3
11
45.7
21
67.7
0
LINE
8
0
10
63.7
20
26.7
11
80.3
21
26.7
0
LINE
8
0
10
80.3
20
26.7
11
80.3
21
43.3
0
LINE
8
0
10
80.3
20
43.3
11
63.7
21
43.3
0
LINE
8
0
10
63.7
20
43.3
11
63.7
21
26.7
0
LINE
8
0
10
63.7
20
44.7
11
80.3
21
44.7
0
LINE
8
0
10
80.3
20
44.7
11
80.3
21
61.3
0
LINE
8
0
10
80.3
20
61.3
11
63.7
21
61.3
0
LINE
8
0
10
63.7
20
61.3
11
63.7
21
44.7
0
LINE
8
0
10
63.7
20
62.7
11
80.3
21
62.7
0
LINE
8
0
10
80.3
20
62.7
11
80.3
21
79.3
0
LINE
8
0
10
80.3
20
79.3
11
63.7
21
79.3
0
LINE
8
0
10
63.7
20
79.3
11
63.7
21
62.7
0
LINE
8
0
10
81.7
20
22.7
11
98.3
21
22.7
0
LINE
8
0
10
98.3
20
22.7
11
98.3
21
39.3
0
LINE
8
0
10
98.3
20
39.3
11
81.7
21
39.3
0
LINE
8
0
10
81.7
20
39.3
11
81.7
21
22.7
0
LINE
8
0
10
81.7
20
40.7
11
98.3
21
40.7
0
LINE
8
0
10
98.3
20
40.7
11
98.3
21
57.3
0
LINE
8
0
10
98.3
20
57.3
11
81.7
21
57.3
0
LINE
8
0
10
81.7
20
57.3
11
81.7
21
40.7
0
LINE
8
0
10
81.7
20
58.7
11
98.3
21
58.7
0
LINE
8
0
10
98.3
20
58.7
11
98.3
21
75.3
0
LINE
8
0
10
98.3
20
75.3
11
81.7
21
75.3
0
LINE
8
0
10
81.7
20
75.3
11
81.7
21
58.7
0
LINE
8
0
10
99.7
20
19.9
11
116.3
21
19.9
0
LINE
8
0
10
116.3
20
19.9
11
116.3
21
36.5
0
LINE
8
0
10
116.3
20
36.5
11
99.7
21
36.5
0
LINE
8
0
10
99.7
20
36.5
11
99.7
21
19.9
0
LINE
8
0
10
53.7
20
4.7
11
70.3
21
4.7
0
LINE
8
0
10
70.3
20
4.7
11
70.3
21
21.3
0
LINE
8
0
10
70.3
20
21.3
11
53.7
21
21.3
0
LINE
8
0
10
53.7
20
21.3
11
53.7
21
4.7
0
LINE
8
0
10
71.7
20
4.7
11
88.3
21
4.7
0
LINE
8
0
10
88.3
20
4.7
11
88.3
21
21.3
0
LINE
8
0
10
88.3
20
21.3
11
71.7
21
21.3
0
LINE
8
0
10
71.7
20
21.3
11
71.7
21
4.7
0
LINE
8
0
10
89.3396834
20
4.5631231
11
105.3740521
21
0.266727
0
LINE
8
0
10
105.3740521
20
0.266727
11
109.6704482
21
16.3010957
0
LINE
8
0
10
109.6704482
20
16.3010957
11
93.6360795
21
20.5974918
0
LINE
8
0
10
93.6360795
20
20.5974918
11
89.3396834
21
4.5631231
0
LINE
8
0
10
106.3428826
20
-0.1345758
11
120.7189044
21
-8.4345758
0
LINE
8
0
10
120.7189044
20
-8.4345758
11
129.0189044
21
5.941446
0
LINE
8
0
10
129.0189044
20
5.941446
11
114.6428826
21
14.241446
0
LINE
8
0
10
114.6428826
20
14.241446
11
106.3428826
21
-0.1345758
0
ENDSEC
0
EOF