0
SECTION
2
HEADER
9
$INSUNITS
70
4
0
ENDSEC
0
SECTION
2
TABLES
0
TABLE
2
LTYPE
0
LTYPE
72
65
70
64
2
CONTINUOUS
3
______
73
0
40
0
0
ENDTAB
0
TABLE
2
LAYER
0
ENDTAB
0
ENDSEC
0
SECTION
2
ENTITIES
0
LINE
8
0
10
51.6600889
20
3.9711546
11
50.3808063
21
7.1066511
0
LINE
8
0
10
48.9919556
20
8.04
11
-8.46
21
8.04
0
LINE
8
0
10
-9.96
20
9.54
11
-9.96
21
62.46
0
LINE
8
0
10
-8.46
20
63.96
11
6.5
21
63.96
0
LINE
8
0
10
8
20
65.46
11
8
21
66.46
0
LINE
8
0
10
9.5
20
67.96
11
24.5
21
67.96
0
LINE
8
0
10
26
20
69.46
11
26
21
80.46
0
LINE
8
0
10
27.5
20
81.96
11
42.5
21
81.96
0
LINE
8
0
10
44
20
83.46
11
44
21
84.46
0
LINE
8
0
10
45.5
20
85.96
11
62.5
21
85.96
0
LINE
8
0
10
64
20
84.46
11
64
21
82.46
0
LINE
8
0
10
65.5
20
80.96
11
80.5
21
80.96
0
LINE
8
0
10
82
20
79.46
11
82
21
78.46
0
LINE
8
0
10
83.5
20
76.96
11
118.38
21
76.96
0
LINE
8
0
10
119.88
20
75.46
11
119.88
21
17.8516246
0
LINE
8
0
10
120.3562721
20
16.7552757
11
130.4150271
21
7.3628016
0
LINE
8
0
10
130.6903373
20
5.5164527
11
122.0733212
21
-9.4086569
0
LINE
8
0
10
120.0298187
20
-9.9608753
11
105.1130343
21
-1.4331092
0
LINE
8
0
10
104.7567984
20
-1.2864389
11
89.0991884
21
2.9090051
0
LINE
8
0
10
88.7142273
20
2.9601127
11
53.0456723
21
3.0378094
0
ARC
8
0
10
48.9919556
20
6.54
40
1.5
50
22.1954593
51
90
0
ARC
8
0
10
-8.46
20
9.54
40
1.5
50
180
51
270
0
ARC
8
0
10
-8.46
20
62.46
40
1.5
50
90
51
180
0
ARC
8
0
10
6.5
20
65.46
40
1.5
50
270
51
0
0
ARC
8
0
10
9.5
20
66.46
40
1.5
50
90
51
180
0
ARC
8
0
10
24.5
20
69.46
40
1.5
50
270
51
0
0
ARC
8
0
10
27.5
20
80.46
40
1.5
50
90
51
180
0
ARC
8
0
10
42.5
20
83.46
40
1.5
50
270
51
0
0
ARC
8
0
10
45.5
20
84.46
40
1.5
50
90
51
180
0
ARC
8
0
10
62.5
20
84.46
40
1.5
50
0
51
90
0
ARC
8
0
10
65.5
20
82.46
40
1.5
50
180
51
270
0
ARC
8
0
10
80.5
20
79.46
40
1.5
50
0
51
90
0
ARC
8
0
10
83.5
20
78.46
40
1.5
50
180
51
270
0
ARC
8
0
10
118.38
20
75.46
40
1.5
50
0
51
90
0
ARC
8
0
10
121.38
20
17.8516246
40
1.5
50
180
51
226.9618395
0
ARC
8
0
10
129.3912992
20
6.2664527
40
1.5
50
329.9999999
51
46.9618395
0
ARC
8
0
10
120.7742831
20
-8.6586569
40
1.5
50
240.2438561
51
329.9999999
0
ARC
8
0
10
104.3685699
20
-2.7353276
40
1.5
50
60.2438561
51
75.0000021
0
ARC
8
0
10
88.7109598
20
1.4601163
40
1.5
50
75.0000021
51
89.8751925
0
ARC
8
0
10
53.0489397
20
4.5378057
40
1.5
50
202.1954593
51
269.8751925
0
ENDSEC
0
EOF