0
SECTION
2
HEADER
9
$INSUNITS
70
4
0
ENDSEC
0
SECTION
2
TABLES
0
TABLE
2
LTYPE
0
LTYPE
72
65
70
64
2
CONTINUOUS
3
______
73
0
40
0
0
ENDTAB
0
TABLE
2
LAYER
0
ENDTAB
0
ENDSEC
0
SECTION
2
ENTITIES
0
LINE
8
0
10
101.6600889
20
-196.0288454
11
100.3808063
21
-192.8933489
0
LINE
8
0
10
98.9919556
20
-191.96
11
41.54
21
-191.96
0
LINE
8
0
10
40.04
20
-190.46
11
40.04
21
-137.54
0
LINE
8
0
10
41.54
20
-136.04
11
56.5
21
-136.04
0
LINE
8
0
10
58
20
-134.54
11
58
21
-133.54
0
LINE
8
0
10
59.5
20
-132.04
11
74.5
21
-132.04
0
LINE
8
0
10
76
20
-130.54
11
76
21
-119.54
0
LINE
8
0
10
77.5
20
-118.04
11
92.5
21
-118.04
0
LINE
8
0
10
94
20
-116.54
11
94
21
-115.54
0
LINE
8
0
10
95.5
20
-114.04
11
112.5
21
-114.04
0
LINE
8
0
10
114
20
-115.54
11
114
21
-117.54
0
LINE
8
0
10
115.5
20
-119.04
11
130.5
21
-119.04
0
LINE
8
0
10
132
20
-120.54
11
132
21
-121.54
0
LINE
8
0
10
133.5
20
-123.04
11
168.38
21
-123.04
0
LINE
8
0
10
169.88
20
-124.54
11
169.88
21
-182.1483754
0
LINE
8
0
10
170.3562721
20
-183.2447243
11
180.4150271
21
-192.6371984
0
LINE
8
0
10
180.6903373
20
-194.4835473
11
172.0733212
21
-209.4086569
0
LINE
8
0
10
170.0298187
20
-209.9608753
11
155.1130343
21
-201.4331092
0
LINE
8
0
10
154.7567984
20
-201.2864389
11
139.0991884
21
-197.0909949
0
LINE
8
0
10
138.7142273
20
-197.0398873
11
103.0456723
21
-196.9621906
0
ARC
8
0
10
98.9919556
20
-193.46
40
1.5
50
22.1954593
51
90
0
ARC
8
0
10
41.54
20
-190.46
40
1.5
50
180
51
270
0
ARC
8
0
10
41.54
20
-137.54
40
1.5
50
90
51
180
0
ARC
8
0
10
56.5
20
-134.54
40
1.5
50
270
51
0
0
ARC
8
0
10
59.5
20
-133.54
40
1.5
50
90
51
180
0
ARC
8
0
10
74.5
20
-130.54
40
1.5
50
270
51
0
0
ARC
8
0
10
77.5
20
-119.54
40
1.5
50
90
51
180
0
ARC
8
0
10
92.5
20
-116.54
40
1.5
50
270
51
0
0
ARC
8
0
10
95.5
20
-115.54
40
1.5
50
90
51
180
0
ARC
8
0
10
112.5
20
-115.54
40
1.5
50
0
51
90
0
ARC
8
0
10
115.5
20
-117.54
40
1.5
50
180
51
270
0
ARC
8
0
10
130.5
20
-120.54
40
1.5
50
0
51
90
0
ARC
8
0
10
133.5
20
-121.54
40
1.5
50
180
51
270
0
ARC
8
0
10
168.38
20
-124.54
40
1.5
50
0
51
90
0
ARC
8
0
10
171.38
20
-182.1483754
40
1.5
50
180
51
226.9618395
0
ARC
8
0
10
179.3912992
20
-193.7335473
40
1.5
50
329.9999999
51
46.9618395
0
ARC
8
0
10
170.7742831
20
-208.6586569
40
1.5
50
240.2438561
51
329.9999999
0
ARC
8
0
10
154.3685699
20
-202.7353276
40
1.5
50
60.2438561
51
75.0000021
0
ARC
8
0
10
138.7109598
20
-198.5398837
40
1.5
50
75.0000021
51
89.8751925
0
ARC
8
0
10
103.0489397
20
-195.4621943
40
1.5
50
202.1954593
51
269.8751925
0
ENDSEC
0
EOF