0
SECTION
2
HEADER
9
$INSUNITS
70
4
0
ENDSEC
0
SECTION
2
TABLES
0
TABLE
2
LTYPE
0
LTYPE
72
65
70
64
2
CONTINUOUS
3
______
73
0
40
0
0
ENDTAB
0
TABLE
2
LAYER
0
ENDTAB
0
ENDSEC
0
SECTION
2
ENTITIES
0
LINE
8
0
10
223.5017047
20
-186.9039844
11
206.1999729
21
-182.0164895
0
LINE
8
0
10
205.7922015
20
-181.96
11
161.54
21
-181.96
0
LINE
8
0
10
160.04
20
-180.46
11
160.04
21
-127.54
0
LINE
8
0
10
161.54
20
-126.04
11
176.5
21
-126.04
0
LINE
8
0
10
178
20
-124.54
11
178
21
-123.54
0
LINE
8
0
10
179.5
20
-122.04
11
194.5
21
-122.04
0
LINE
8
0
10
196
20
-120.54
11
196
21
-109.54
0
LINE
8
0
10
197.5
20
-108.04
11
212.5
21
-108.04
0
LINE
8
0
10
214
20
-106.54
11
214
21
-105.54
0
LINE
8
0
10
215.5
20
-104.04
11
232.5
21
-104.04
0
LINE
8
0
10
234
20
-105.54
11
234
21
-107.54
0
LINE
8
0
10
235.5
20
-109.04
11
250.5
21
-109.04
0
LINE
8
0
10
252
20
-110.54
11
252
21
-111.54
0
LINE
8
0
10
253.5
20
-113.04
11
288.38
21
-113.04
0
LINE
8
0
10
289.88
20
-114.54
11
289.88
21
-172.1483754
0
LINE
8
0
10
290.3562721
20
-173.2447243
11
300.4150271
21
-182.6371984
0
LINE
8
0
10
300.6903373
20
-184.4835473
11
292.0733212
21
-199.4086569
0
LINE
8
0
10
290.0298187
20
-199.9608753
11
275.1130343
21
-191.4331092
0
LINE
8
0
10
274.7567984
20
-191.2864389
11
259.0991128
21
-187.0909747
0
LINE
8
0
10
258.7143058
20
-187.0398673
11
223.9060546
21
-186.96047
0
ARC
8
0
10
205.7922015
20
-183.46
40
1.5
50
74.2257603
51
90
0
ARC
8
0
10
161.54
20
-180.46
40
1.5
50
180
51
270
0
ARC
8
0
10
161.54
20
-127.54
40
1.5
50
90
51
180
0
ARC
8
0
10
176.5
20
-124.54
40
1.5
50
270
51
0
0
ARC
8
0
10
179.5
20
-123.54
40
1.5
50
90
51
180
0
ARC
8
0
10
194.5
20
-120.54
40
1.5
50
270
51
0
0
ARC
8
0
10
197.5
20
-109.54
40
1.5
50
90
51
180
0
ARC
8
0
10
212.5
20
-106.54
40
1.5
50
270
51
0
0
ARC
8
0
10
215.5
20
-105.54
40
1.5
50
90
51
180
0
ARC
8
0
10
232.5
20
-105.54
40
1.5
50
0
51
90
0
ARC
8
0
10
235.5
20
-107.54
40
1.5
50
180
51
270
0
ARC
8
0
10
250.5
20
-110.54
40
1.5
50
0
51
90
0
ARC
8
0
10
253.5
20
-111.54
40
1.5
50
180
51
270
0
ARC
8
0
10
288.38
20
-114.54
40
1.5
50
0
51
90
0
ARC
8
0
10
291.38
20
-172.1483754
40
1.5
50
180
51
226.9618395
0
ARC
8
0
10
299.3912992
20
-183.7335473
40
1.5
50
329.9999999
51
46.9618395
0
ARC
8
0
10
290.7742831
20
-198.6586569
40
1.5
50
240.2438561
51
329.9999999
0
ARC
8
0
10
274.3685699
20
-192.7353276
40
1.5
50
60.2438561
51
75.0000021
0
ARC
8
0
10
258.7108843
20
-188.5398634
40
1.5
50
75.0000021
51
89.8693082
0
ARC
8
0
10
223.9094761
20
-185.4604739
40
1.5
50
254.2257603
51
269.8693082
0
ENDSEC
0
EOF