0
SECTION
2
HEADER
9
$INSUNITS
70
4
0
ENDSEC
0
SECTION
2
TABLES
0
TABLE
2
LTYPE
0
LTYPE
72
65
70
64
2
CONTINUOUS
3
______
73
0
40
0
0
ENDTAB
0
TABLE
2
LAYER
0
ENDTAB
0
ENDSEC
0
SECTION
2
ENTITIES
0
LINE
8
0
10
215.6593186
20
-186.7952226
11
160.9683569
21
-180.3726164
0
LINE
8
0
10
160.35
20
-179.6773938
11
160.35
21
-128.4
0
LINE
8
0
10
161.05
20
-127.7
11
179
21
-127.7
0
LINE
8
0
10
179.7
20
-127
11
179.7
21
-124.4
0
LINE
8
0
10
180.4
20
-123.7
11
197
21
-123.7
0
LINE
8
0
10
197.7
20
-123
11
197.7
21
-113.9
0
LINE
8
0
10
198.4
20
-113.2
11
215
21
-113.2
0
LINE
8
0
10
215.7
20
-112.5
11
215.7
21
-109.9
0
LINE
8
0
10
216.4
20
-109.2
11
231.6
21
-109.2
0
LINE
8
0
10
232.3
20
-109.9
11
232.3
21
-113.5
0
LINE
8
0
10
233
20
-114.2
11
249.6
21
-114.2
0
LINE
8
0
10
250.3
20
-114.9
11
250.3
21
-115.5
0
LINE
8
0
10
251
20
-116.2
11
287.4
21
-116.2
0
LINE
8
0
10
288.1
20
-116.9
11
288.1
21
-174.2107344
0
LINE
8
0
10
288.1224025
20
-174.3864091
11
290.9469721
21
-185.2811029
0
LINE
8
0
10
290.8755925
20
-185.8067776
11
283.068884
21
-199.3283933
0
LINE
8
0
10
282.1127015
20
-199.5846314
11
267.9609755
21
-191.4152265
0
LINE
8
0
10
267.792146
20
-191.3453063
11
250.9139985
21
-186.8238417
0
LINE
8
0
10
250.7328633
20
-186.8
11
215.7409617
21
-186.8
0
ARC
8
0
10
161.05
20
-179.6773938
40
0.7
50
180
51
263.3021772
0
ARC
8
0
10
161.05
20
-128.4
40
0.7
50
90
51
180
0
ARC
8
0
10
179
20
-127
40
0.7
50
270
51
0
0
ARC
8
0
10
180.4
20
-124.4
40
0.7
50
90
51
180
0
ARC
8
0
10
197
20
-123
40
0.7
50
270
51
0
0
ARC
8
0
10
198.4
20
-113.9
40
0.7
50
90
51
180
0
ARC
8
0
10
215
20
-112.5
40
0.7
50
270
51
0
0
ARC
8
0
10
216.4
20
-109.9
40
0.7
50
90
51
180
0
ARC
8
0
10
231.6
20
-109.9
40
0.7
50
0
51
90
0
ARC
8
0
10
233
20
-113.5
40
0.7
50
180
51
270
0
ARC
8
0
10
249.6
20
-114.9
40
0.7
50
0
51
90
0
ARC
8
0
10
251
20
-115.5
40
0.7
50
180
51
270
0
ARC
8
0
10
287.4
20
-116.9
40
0.7
50
0
51
90
0
ARC
8
0
10
288.8
20
-174.2107344
40
0.7
50
180
51
194.5345518
0
ARC
8
0
10
290.2693747
20
-185.4567776
40
0.7
50
329.9999999
51
14.5345518
0
ARC
8
0
10
282.4626662
20
-198.9783933
40
0.7
50
240.0033344
51
329.9999999
0
ARC
8
0
10
267.6110108
20
-192.0214646
40
0.7
50
60.0033344
51
75.0032348
0
ARC
8
0
10
250.7328633
20
-187.5
40
0.7
50
75.0032348
51
90
0
ARC
8
0
10
215.7409617
20
-186.1
40
0.7
50
263.3021772
51
270
0
ENDSEC
0
EOF