0
SECTION
2
HEADER
9
$INSUNITS
70
4
0
ENDSEC
0
SECTION
2
TABLES
0
TABLE
2
LTYPE
0
LTYPE
72
65
70
64
2
CONTINUOUS
3
______
73
0
40
0
0
ENDTAB
0
TABLE
2
LAYER
0
ENDTAB
0
ENDSEC
0
SECTION
2
ENTITIES
0
LINE
8
0
10
198.3399111
20
-186.0288454
11
199.6191937
21
-182.8933489
0
LINE
8
0
10
201.0080444
20
-181.96
11
258.46
21
-181.96
0
LINE
8
0
10
259.96
20
-180.46
11
259.96
21
-127.54
0
LINE
8
0
10
258.46
20
-126.04
11
243.5
21
-126.04
0
LINE
8
0
10
242
20
-124.54
11
242
21
-123.54
0
LINE
8
0
10
240.5
20
-122.04
11
225.5
21
-122.04
0
LINE
8
0
10
224
20
-120.54
11
224
21
-109.54
0
LINE
8
0
10
222.5
20
-108.04
11
207.5
21
-108.04
0
LINE
8
0
10
206
20
-106.54
11
206
21
-105.54
0
LINE
8
0
10
204.5
20
-104.04
11
187.5
21
-104.04
0
LINE
8
0
10
186
20
-105.54
11
186
21
-107.54
0
LINE
8
0
10
184.5
20
-109.04
11
169.5
21
-109.04
0
LINE
8
0
10
168
20
-110.54
11
168
21
-111.54
0
LINE
8
0
10
166.5
20
-113.04
11
131.62
21
-113.04
0
LINE
8
0
10
130.12
20
-114.54
11
130.12
21
-172.1483754
0
LINE
8
0
10
129.6437279
20
-173.2447243
11
119.5849729
21
-182.6371984
0
LINE
8
0
10
119.3096627
20
-184.4835473
11
127.9266788
21
-199.4086569
0
LINE
8
0
10
129.9701813
20
-199.9608753
11
144.8869657
21
-191.4331092
0
LINE
8
0
10
145.2432016
20
-191.2864389
11
160.9008116
21
-187.0909949
0
LINE
8
0
10
161.2857727
20
-187.0398873
11
196.9543277
21
-186.9621906
0
ARC
8
0
10
201.0080444
20
-183.46
40
1.5
50
90
51
157.8045407
0
ARC
8
0
10
258.46
20
-180.46
40
1.5
50
270
51
0
0
ARC
8
0
10
258.46
20
-127.54
40
1.5
50
0
51
90
0
ARC
8
0
10
243.5
20
-124.54
40
1.5
50
180
51
270
0
ARC
8
0
10
240.5
20
-123.54
40
1.5
50
0
51
90
0
ARC
8
0
10
225.5
20
-120.54
40
1.5
50
180
51
270
0
ARC
8
0
10
222.5
20
-109.54
40
1.5
50
0
51
90
0
ARC
8
0
10
207.5
20
-106.54
40
1.5
50
180
51
270
0
ARC
8
0
10
204.5
20
-105.54
40
1.5
50
0
51
90
0
ARC
8
0
10
187.5
20
-105.54
40
1.5
50
90
51
180
0
ARC
8
0
10
184.5
20
-107.54
40
1.5
50
270
51
0
0
ARC
8
0
10
169.5
20
-110.54
40
1.5
50
90
51
180
0
ARC
8
0
10
166.5
20
-111.54
40
1.5
50
270
51
0
0
ARC
8
0
10
131.62
20
-114.54
40
1.5
50
90
51
180
0
ARC
8
0
10
128.62
20
-172.1483754
40
1.5
50
313.0381605
51
0
0
ARC
8
0
10
120.6087008
20
-183.7335473
40
1.5
50
133.0381605
51
210.0000001
0
ARC
8
0
10
129.2257169
20
-198.6586569
40
1.5
50
210.0000001
51
299.7561439
0
ARC
8
0
10
145.6314301
20
-192.7353276
40
1.5
50
104.9999979
51
119.7561439
0
ARC
8
0
10
161.2890402
20
-188.5398837
40
1.5
50
90.1248075
51
104.9999979
0
ARC
8
0
10
196.9510603
20
-185.4621943
40
1.5
50
270.1248075
51
337.8045407
0
ENDSEC
0
EOF