0
SECTION
2
HEADER
9
$INSUNITS
70
4
0
ENDSEC
0
SECTION
2
TABLES
0
TABLE
2
LTYPE
0
LTYPE
72
65
70
64
2
CONTINUOUS
3
______
73
0
40
0
0
ENDTAB
0
TABLE
2
LAYER
0
ENDTAB
0
ENDSEC
0
SECTION
2
ENTITIES
0
LINE
8
0
10
204.3406814
20
-186.7952226
11
259.0316431
21
-180.3726164
0
LINE
8
0
10
259.65
20
-179.6773938
11
259.65
21
-128.4
0
LINE
8
0
10
258.95
20
-127.7
11
241
21
-127.7
0
LINE
8
0
10
240.3
20
-127
11
240.3
21
-124.4
0
LINE
8
0
10
239.6
20
-123.7
11
223
21
-123.7
0
LINE
8
0
10
222.3
20
-123
11
222.3
21
-113.9
0
LINE
8
0
10
221.6
20
-113.2
11
205
21
-113.2
0
LINE
8
0
10
204.3
20
-112.5
11
204.3
21
-109.9
0
LINE
8
0
10
203.6
20
-109.2
11
188.4
21
-109.2
0
LINE
8
0
10
187.7
20
-109.9
11
187.7
21
-113.5
0
LINE
8
0
10
187
20
-114.2
11
170.4
21
-114.2
0
LINE
8
0
10
169.7
20
-114.9
11
169.7
21
-115.5
0
LINE
8
0
10
169
20
-116.2
11
132.6
21
-116.2
0
LINE
8
0
10
131.9
20
-116.9
11
131.9
21
-174.2107344
0
LINE
8
0
10
131.8775975
20
-174.3864091
11
129.0530279
21
-185.2811029
0
LINE
8
0
10
129.1244075
20
-185.8067776
11
136.931116
21
-199.3283933
0
LINE
8
0
10
137.8872985
20
-199.5846314
11
152.0390245
21
-191.4152265
0
LINE
8
0
10
152.207854
20
-191.3453063
11
169.0860015
21
-186.8238417
0
LINE
8
0
10
169.2671367
20
-186.8
11
204.2590383
21
-186.8
0
ARC
8
0
10
258.95
20
-179.6773938
40
0.7
50
276.6978228
51
0
0
ARC
8
0
10
258.95
20
-128.4
40
0.7
50
0
51
90
0
ARC
8
0
10
241
20
-127
40
0.7
50
180
51
270
0
ARC
8
0
10
239.6
20
-124.4
40
0.7
50
0
51
90
0
ARC
8
0
10
223
20
-123
40
0.7
50
180
51
270
0
ARC
8
0
10
221.6
20
-113.9
40
0.7
50
0
51
90
0
ARC
8
0
10
205
20
-112.5
40
0.7
50
180
51
270
0
ARC
8
0
10
203.6
20
-109.9
40
0.7
50
0
51
90
0
ARC
8
0
10
188.4
20
-109.9
40
0.7
50
90
51
180
0
ARC
8
0
10
187
20
-113.5
40
0.7
50
270
51
0
0
ARC
8
0
10
170.4
20
-114.9
40
0.7
50
90
51
180
0
ARC
8
0
10
169
20
-115.5
40
0.7
50
270
51
0
0
ARC
8
0
10
132.6
20
-116.9
40
0.7
50
90
51
180
0
ARC
8
0
10
131.2
20
-174.2107344
40
0.7
50
345.4654482
51
0
0
ARC
8
0
10
129.7306253
20
-185.4567776
40
0.7
50
165.4654482
51
210.0000001
0
ARC
8
0
10
137.5373338
20
-198.9783933
40
0.7
50
210.0000001
51
299.9966656
0
ARC
8
0
10
152.3889892
20
-192.0214646
40
0.7
50
104.9967652
51
119.9966656
0
ARC
8
0
10
169.2671367
20
-187.5
40
0.7
50
90
51
104.9967652
0
ARC
8
0
10
204.2590383
20
-186.1
40
0.7
50
270
51
276.6978228
0
ENDSEC
0
EOF