0
SECTION
2
HEADER
9
$INSUNITS
70
4
0
ENDSEC
0
SECTION
2
TABLES
0
TABLE
2
LTYPE
0
LTYPE
72
65
70
64
2
CONTINUOUS
3
______
73
0
40
0
0
ENDTAB
0
TABLE
2
LAYER
0
ENDTAB
0
ENDSEC
0
SECTION
2
ENTITIES
0
LINE
8
0
10
383.7024684
20
-186.7952226
11
438.3934301
21
-180.3726164
0
LINE
8
0
10
439.011787
20
-179.6773938
11
439.011787
21
-128.4
0
LINE
8
0
10
438.311787
20
-127.7
11
420.361787
21
-127.7
0
LINE
8
0
10
419.661787
20
-127
11
419.661787
21
-124.4
0
LINE
8
0
10
418.961787
20
-123.7
11
402.361787
21
-123.7
0
LINE
8
0
10
401.661787
20
-123
11
401.661787
21
-113.9
0
LINE
8
0
10
400.961787
20
-113.2
11
384.361787
21
-113.2
0
LINE
8
0
10
383.661787
20
-112.5
11
383.661787
21
-109.9
0
LINE
8
0
10
382.961787
20
-109.2
11
367.761787
21
-109.2
0
LINE
8
0
10
367.061787
20
-109.9
11
367.061787
21
-113.5
0
LINE
8
0
10
366.361787
20
-114.2
11
349.761787
21
-114.2
0
LINE
8
0
10
349.061787
20
-114.9
11
349.061787
21
-115.5
0
LINE
8
0
10
348.361787
20
-116.2
11
311.961787
21
-116.2
0
LINE
8
0
10
311.261787
20
-116.9
11
311.261787
21
-174.2107344
0
LINE
8
0
10
311.2393845
20
-174.3864091
11
308.4148149
21
-185.2811029
0
LINE
8
0
10
308.4861945
20
-185.8067776
11
316.292903
21
-199.3283933
0
LINE
8
0
10
317.2490855
20
-199.5846314
11
331.4008115
21
-191.4152265
0
LINE
8
0
10
331.569641
20
-191.3453063
11
348.4477885
21
-186.8238417
0
LINE
8
0
10
348.6289237
20
-186.8
11
383.6208253
21
-186.8
0
ARC
8
0
10
438.311787
20
-179.6773938
40
0.7
50
276.6978228
51
0
0
ARC
8
0
10
438.311787
20
-128.4
40
0.7
50
0
51
90
0
ARC
8
0
10
420.361787
20
-127
40
0.7
50
180
51
270
0
ARC
8
0
10
418.961787
20
-124.4
40
0.7
50
0
51
90
0
ARC
8
0
10
402.361787
20
-123
40
0.7
50
180
51
270
0
ARC
8
0
10
400.961787
20
-113.9
40
0.7
50
0
51
90
0
ARC
8
0
10
384.361787
20
-112.5
40
0.7
50
180
51
270
0
ARC
8
0
10
382.961787
20
-109.9
40
0.7
50
0
51
90
0
ARC
8
0
10
367.761787
20
-109.9
40
0.7
50
90
51
180
0
ARC
8
0
10
366.361787
20
-113.5
40
0.7
50
270
51
0
0
ARC
8
0
10
349.761787
20
-114.9
40
0.7
50
90
51
180
0
ARC
8
0
10
348.361787
20
-115.5
40
0.7
50
270
51
0
0
ARC
8
0
10
311.961787
20
-116.9
40
0.7
50
90
51
180
0
ARC
8
0
10
310.561787
20
-174.2107344
40
0.7
50
345.4654482
51
0
0
ARC
8
0
10
309.0924123
20
-185.4567776
40
0.7
50
165.4654482
51
210.0000001
0
ARC
8
0
10
316.8991208
20
-198.9783933
40
0.7
50
210.0000001
51
299.9966656
0
ARC
8
0
10
331.7507762
20
-192.0214646
40
0.7
50
104.9967652
51
119.9966656
0
ARC
8
0
10
348.6289237
20
-187.5
40
0.7
50
90
51
104.9967652
0
ARC
8
0
10
383.6208253
20
-186.1
40
0.7
50
270
51
276.6978228
0
ENDSEC
0
EOF
