0
SECTION
2
HEADER
9
$INSUNITS
70
4
0
ENDSEC
0
SECTION
2
TABLES
0
TABLE
2
LTYPE
0
LTYPE
72
65
70
64
2
CONTINUOUS
3
______
73
0
40
0
0
ENDTAB
0
TABLE
2
LAYER
0
ENDTAB
0
ENDSEC
0
SECTION
2
ENTITIES
0
LINE
8
0
10
202.886413
20
-183.6562942
11
201.4207538
21
-181.9520393
0
LINE
8
0
10
202.178939
20
-180.3
11
257.3
21
-180.3
0
LINE
8
0
10
258.3
20
-179.3
11
258.3
21
-128.7
0
LINE
8
0
10
257.3
20
-127.7
11
243
21
-127.7
0
LINE
8
0
10
242
20
-126.7
11
242
21
-124.7
0
LINE
8
0
10
241
20
-123.7
11
225
21
-123.7
0
LINE
8
0
10
224
20
-122.7
11
224
21
-110.7
0
LINE
8
0
10
223
20
-109.7
11
207
21
-109.7
0
LINE
8
0
10
206
20
-108.7
11
206
21
-106.7
0
LINE
8
0
10
205
20
-105.7
11
187
21
-105.7
0
LINE
8
0
10
186
20
-106.7
11
186
21
-109.7
0
LINE
8
0
10
185
20
-110.7
11
169
21
-110.7
0
LINE
8
0
10
168
20
-111.7
11
168
21
-113.7
0
LINE
8
0
10
167
20
-114.7
11
131.12
21
-114.7
0
LINE
8
0
10
130.12
20
-115.7
11
130.12
21
-172.7495488
0
LINE
8
0
10
130.1149224
20
-172.8501942
11
129.0135802
21
-183.7374298
0
LINE
8
0
10
129.1424772
20
-184.3380752
11
136.7849604
21
-197.5752444
0
LINE
8
0
10
138.1442509
20
-197.9451234
11
152.5148578
21
-189.7962666
0
LINE
8
0
10
152.7493039
20
-189.7002198
11
168.5350366
21
-185.4704456
0
LINE
8
0
10
168.7900151
20
-185.4363788
11
202.1320683
21
-185.3083261
0
ARC
8
0
10
202.178939
20
-181.3
40
1
50
90
51
220.6955323
0
ARC
8
0
10
257.3
20
-179.3
40
1
50
270
51
0
0
ARC
8
0
10
257.3
20
-128.7
40
1
50
0
51
90
0
ARC
8
0
10
243
20
-126.7
40
1
50
180
51
270
0
ARC
8
0
10
241
20
-124.7
40
1
50
0
51
90
0
ARC
8
0
10
225
20
-122.7
40
1
50
180
51
270
0
ARC
8
0
10
223
20
-110.7
40
1
50
0
51
90
0
ARC
8
0
10
207
20
-108.7
40
1
50
180
51
270
0
ARC
8
0
10
205
20
-106.7
40
1
50
0
51
90
0
ARC
8
0
10
187
20
-106.7
40
1
50
90
51
180
0
ARC
8
0
10
185
20
-109.7
40
1
50
270
51
0
0
ARC
8
0
10
169
20
-111.7
40
1
50
90
51
180
0
ARC
8
0
10
167
20
-113.7
40
1
50
270
51
0
0
ARC
8
0
10
131.12
20
-115.7
40
1
50
90
51
180
0
ARC
8
0
10
129.12
20
-172.7495488
40
1
50
354.2236635
51
0
0
ARC
8
0
10
130.0085026
20
-183.8380752
40
1
50
174.2236635
51
210.0000001
0
ARC
8
0
10
137.6509858
20
-197.0752444
40
1
50
210.0000001
51
299.5554151
0
ARC
8
0
10
153.0081229
20
-190.6661456
40
1
50
104.9999979
51
119.5554151
0
ARC
8
0
10
168.7938556
20
-186.4363714
40
1
50
90.220045
51
104.9999979
0
ARC
8
0
10
202.1282278
20
-184.3083335
40
1
50
270.220045
51
40.6955323
0
ENDSEC
0
EOF