0
SECTION
2
HEADER
9
$INSUNITS
70
4
0
ENDSEC
0
SECTION
2
TABLES
0
TABLE
2
LTYPE
0
LTYPE
72
65
70
64
2
CONTINUOUS
3
______
73
0
40
0
0
ENDTAB
0
TABLE
2
LAYER
0
ENDTAB
0
ENDSEC
0
SECTION
2
ENTITIES
0
LINE
8
0
10
278.3399111
20
-196.0288454
11
279.6191937
21
-192.8933489
0
LINE
8
0
10
281.0080444
20
-191.96
11
338.46
21
-191.96
0
LINE
8
0
10
339.96
20
-190.46
11
339.96
21
-137.54
0
LINE
8
0
10
338.46
20
-136.04
11
323.5
21
-136.04
0
LINE
8
0
10
322
20
-134.54
11
322
21
-133.54
0
LINE
8
0
10
320.5
20
-132.04
11
305.5
21
-132.04
0
LINE
8
0
10
304
20
-130.54
11
304
21
-119.54
0
LINE
8
0
10
302.5
20
-118.04
11
287.5
21
-118.04
0
LINE
8
0
10
286
20
-116.54
11
286
21
-115.54
0
LINE
8
0
10
284.5
20
-114.04
11
267.5
21
-114.04
0
LINE
8
0
10
266
20
-115.54
11
266
21
-117.54
0
LINE
8
0
10
264.5
20
-119.04
11
249.5
21
-119.04
0
LINE
8
0
10
248
20
-120.54
11
248
21
-121.54
0
LINE
8
0
10
246.5
20
-123.04
11
211.62
21
-123.04
0
LINE
8
0
10
210.12
20
-124.54
11
210.12
21
-182.1483754
0
LINE
8
0
10
209.6437279
20
-183.2447243
11
199.5849729
21
-192.6371984
0
LINE
8
0
10
199.3096627
20
-194.4835473
11
207.9266788
21
-209.4086569
0
LINE
8
0
10
209.9701813
20
-209.9608753
11
224.8869657
21
-201.4331092
0
LINE
8
0
10
225.2432016
20
-201.2864389
11
240.9008116
21
-197.0909949
0
LINE
8
0
10
241.2857727
20
-197.0398873
11
276.9543277
21
-196.9621906
0
ARC
8
0
10
281.0080444
20
-193.46
40
1.5
50
90
51
157.8045407
0
ARC
8
0
10
338.46
20
-190.46
40
1.5
50
270
51
0
0
ARC
8
0
10
338.46
20
-137.54
40
1.5
50
0
51
90
0
ARC
8
0
10
323.5
20
-134.54
40
1.5
50
180
51
270
0
ARC
8
0
10
320.5
20
-133.54
40
1.5
50
0
51
90
0
ARC
8
0
10
305.5
20
-130.54
40
1.5
50
180
51
270
0
ARC
8
0
10
302.5
20
-119.54
40
1.5
50
0
51
90
0
ARC
8
0
10
287.5
20
-116.54
40
1.5
50
180
51
270
0
ARC
8
0
10
284.5
20
-115.54
40
1.5
50
0
51
90
0
ARC
8
0
10
267.5
20
-115.54
40
1.5
50
90
51
180
0
ARC
8
0
10
264.5
20
-117.54
40
1.5
50
270
51
0
0
ARC
8
0
10
249.5
20
-120.54
40
1.5
50
90
51
180
0
ARC
8
0
10
246.5
20
-121.54
40
1.5
50
270
51
0
0
ARC
8
0
10
211.62
20
-124.54
40
1.5
50
90
51
180
0
ARC
8
0
10
208.62
20
-182.1483754
40
1.5
50
313.0381605
51
0
0
ARC
8
0
10
200.6087008
20
-193.7335473
40
1.5
50
133.0381605
51
210.0000001
0
ARC
8
0
10
209.2257169
20
-208.6586569
40
1.5
50
210.0000001
51
299.7561439
0
ARC
8
0
10
225.6314301
20
-202.7353276
40
1.5
50
104.9999979
51
119.7561439
0
ARC
8
0
10
241.2890402
20
-198.5398837
40
1.5
50
90.1248075
51
104.9999979
0
ARC
8
0
10
276.9510603
20
-195.4621943
40
1.5
50
270.1248075
51
337.8045407
0
ENDSEC
0
EOF