0
SECTION
2
HEADER
9
$INSUNITS
70
4
0
ENDSEC
0
SECTION
2
TABLES
0
TABLE
2
LTYPE
0
LTYPE
72
65
70
64
2
CONTINUOUS
3
______
73
0
40
0
0
ENDTAB
0
TABLE
2
LAYER
0
ENDTAB
0
ENDSEC
0
SECTION
2
ENTITIES
0
LINE
8
0
10
215.4861978
20
-185.1897927
11
206.2156087
21
-180.4111385
0
LINE
8
0
10
205.7574327
20
-180.3
11
162.7
21
-180.3
0
LINE
8
0
10
161.7
20
-179.3
11
161.7
21
-128.7
0
LINE
8
0
10
162.7
20
-127.7
11
177
21
-127.7
0
LINE
8
0
10
178
20
-126.7
11
178
21
-124.7
0
LINE
8
0
10
179
20
-123.7
11
195
21
-123.7
0
LINE
8
0
10
196
20
-122.7
11
196
21
-110.7
0
LINE
8
0
10
197
20
-109.7
11
213
21
-109.7
0
LINE
8
0
10
214
20
-108.7
11
214
21
-106.7
0
LINE
8
0
10
215
20
-105.7
11
233
21
-105.7
0
LINE
8
0
10
234
20
-106.7
11
234
21
-109.7
0
LINE
8
0
10
235
20
-110.7
11
251
21
-110.7
0
LINE
8
0
10
252
20
-111.7
11
252
21
-113.7
0
LINE
8
0
10
253
20
-114.7
11
288.88
21
-114.7
0
LINE
8
0
10
289.88
20
-115.7
11
289.88
21
-172.7495488
0
LINE
8
0
10
289.8850776
20
-172.8501942
11
290.9864198
21
-183.7374298
0
LINE
8
0
10
290.8575228
20
-184.3380752
11
283.2150396
21
-197.5752444
0
LINE
8
0
10
281.8557491
20
-197.9451234
11
267.4851422
21
-189.7962666
0
LINE
8
0
10
267.2506961
20
-189.7002198
11
251.4649634
21
-185.4704456
0
LINE
8
0
10
251.2099849
20
-185.4363788
11
215.9405333
21
-185.3009238
0
ARC
8
0
10
205.7574327
20
-181.3
40
1
50
62.7305296
51
90
0
ARC
8
0
10
162.7
20
-179.3
40
1
50
180
51
270
0
ARC
8
0
10
162.7
20
-128.7
40
1
50
90
51
180
0
ARC
8
0
10
177
20
-126.7
40
1
50
270
51
0
0
ARC
8
0
10
179
20
-124.7
40
1
50
90
51
180
0
ARC
8
0
10
195
20
-122.7
40
1
50
270
51
0
0
ARC
8
0
10
197
20
-110.7
40
1
50
90
51
180
0
ARC
8
0
10
213
20
-108.7
40
1
50
270
51
0
0
ARC
8
0
10
215
20
-106.7
40
1
50
90
51
180
0
ARC
8
0
10
233
20
-106.7
40
1
50
0
51
90
0
ARC
8
0
10
235
20
-109.7
40
1
50
180
51
270
0
ARC
8
0
10
251
20
-111.7
40
1
50
0
51
90
0
ARC
8
0
10
253
20
-113.7
40
1
50
180
51
270
0
ARC
8
0
10
288.88
20
-115.7
40
1
50
0
51
90
0
ARC
8
0
10
290.88
20
-172.7495488
40
1
50
180
51
185.7763365
0
ARC
8
0
10
289.9914974
20
-183.8380752
40
1
50
329.9999999
51
5.7763365
0
ARC
8
0
10
282.3490142
20
-197.0752444
40
1
50
240.4445849
51
329.9999999
0
ARC
8
0
10
266.9918771
20
-190.6661456
40
1
50
60.4445849
51
75.0000021
0
ARC
8
0
10
251.2061444
20
-186.4363714
40
1
50
75.0000021
51
89.779955
0
ARC
8
0
10
215.9443738
20
-184.3009312
40
1
50
242.7305296
51
269.779955
0
ENDSEC
0
EOF