0
SECTION
2
HEADER
9
$INSUNITS
70
4
0
ENDSEC
0
SECTION
2
TABLES
0
TABLE
2
LTYPE
0
LTYPE
72
65
70
64
2
CONTINUOUS
3
______
73
0
40
0
0
ENDTAB
0
TABLE
2
LAYER
0
ENDTAB
0
ENDSEC
0
SECTION
2
ENTITIES
0
LINE
8
0
10
396.4982953
20
-186.9039844
11
413.8000271
21
-182.0164895
0
LINE
8
0
10
414.2077985
20
-181.96
11
458.46
21
-181.96
0
LINE
8
0
10
459.96
20
-180.46
11
459.96
21
-127.54
0
LINE
8
0
10
458.46
20
-126.04
11
443.5
21
-126.04
0
LINE
8
0
10
442
20
-124.54
11
442
21
-123.54
0
LINE
8
0
10
440.5
20
-122.04
11
425.5
21
-122.04
0
LINE
8
0
10
424
20
-120.54
11
424
21
-109.54
0
LINE
8
0
10
422.5
20
-108.04
11
407.5
21
-108.04
0
LINE
8
0
10
406
20
-106.54
11
406
21
-105.54
0
LINE
8
0
10
404.5
20
-104.04
11
387.5
21
-104.04
0
LINE
8
0
10
386
20
-105.54
11
386
21
-107.54
0
LINE
8
0
10
384.5
20
-109.04
11
369.5
21
-109.04
0
LINE
8
0
10
368
20
-110.54
11
368
21
-111.54
0
LINE
8
0
10
366.5
20
-113.04
11
353.2
21
-113.04
0
LINE
8
0
10
351.7
20
-114.54
11
351.7
21
-169.1918616
0
LINE
8
0
10
350.6284427
20
-170.6293722
11
340.4036759
21
-173.676812
0
LINE
8
0
10
340.2580935
20
-173.7285033
11
335.4479489
21
-175.7209304
0
LINE
8
0
10
335.271974
20
-175.8077116
11
320.8425316
21
-184.138554
0
LINE
8
0
10
320.2934935
20
-186.1875921
11
327.9266788
21
-199.4086569
0
LINE
8
0
10
329.9701813
20
-199.9608753
11
344.8869657
21
-191.4331092
0
LINE
8
0
10
345.2432016
20
-191.2864389
11
360.9008872
21
-187.0909747
0
LINE
8
0
10
361.2856942
20
-187.0398673
11
396.0939454
21
-186.96047
0
ARC
8
0
10
414.2077985
20
-183.46
40
1.5
50
90
51
105.7742397
0
ARC
8
0
10
458.46
20
-180.46
40
1.5
50
270
51
0
0
ARC
8
0
10
458.46
20
-127.54
40
1.5
50
0
51
90
0
ARC
8
0
10
443.5
20
-124.54
40
1.5
50
180
51
270
0
ARC
8
0
10
440.5
20
-123.54
40
1.5
50
0
51
90
0
ARC
8
0
10
425.5
20
-120.54
40
1.5
50
180
51
270
0
ARC
8
0
10
422.5
20
-109.54
40
1.5
50
0
51
90
0
ARC
8
0
10
407.5
20
-106.54
40
1.5
50
180
51
270
0
ARC
8
0
10
404.5
20
-105.54
40
1.5
50
0
51
90
0
ARC
8
0
10
387.5
20
-105.54
40
1.5
50
90
51
180
0
ARC
8
0
10
384.5
20
-107.54
40
1.5
50
270
51
0
0
ARC
8
0
10
369.5
20
-110.54
40
1.5
50
90
51
180
0
ARC
8
0
10
366.5
20
-111.54
40
1.5
50
270
51
0
0
ARC
8
0
10
353.2
20
-114.54
40
1.5
50
90
51
180
0
ARC
8
0
10
350.2
20
-169.1918616
40
1.5
50
286.596421
51
0
0
ARC
8
0
10
340.8321187
20
-175.1143226
40
1.5
50
106.596421
51
112.499999
0
ARC
8
0
10
336.021974
20
-177.1067497
40
1.5
50
112.499999
51
120.0000001
0
ARC
8
0
10
321.5925316
20
-185.4375921
40
1.5
50
120.0000001
51
210.0000001
0
ARC
8
0
10
329.2257169
20
-198.6586569
40
1.5
50
210.0000001
51
299.7561439
0
ARC
8
0
10
345.6314301
20
-192.7353276
40
1.5
50
104.9999979
51
119.7561439
0
ARC
8
0
10
361.2891157
20
-188.5398634
40
1.5
50
90.1306918
51
104.9999979
0
ARC
8
0
10
396.0905239
20
-185.4604739
40
1.5
50
270.1306918
51
285.7742397
0
ENDSEC
0
EOF