0
SECTION
2
HEADER
9
$INSUNITS
70
4
0
ENDSEC
0
SECTION
2
TABLES
0
TABLE
2
LTYPE
0
LTYPE
72
65
70
64
2
CONTINUOUS
3
______
73
0
40
0
0
ENDTAB
0
TABLE
2
LAYER
0
ENDTAB
0
ENDSEC
0
SECTION
2
ENTITIES
0
LINE
8
0
10
223.5017047
20
-186.9039844
11
206.1999729
21
-182.0164895
0
LINE
8
0
10
205.7922015
20
-181.96
11
161.54
21
-181.96
0
LINE
8
0
10
160.04
20
-180.46
11
160.04
21
-127.54
0
LINE
8
0
10
161.54
20
-126.04
11
176.5
21
-126.04
0
LINE
8
0
10
178
20
-124.54
11
178
21
-123.54
0
LINE
8
0
10
179.5
20
-122.04
11
194.5
21
-122.04
0
LINE
8
0
10
196
20
-120.54
11
196
21
-109.54
0
LINE
8
0
10
197.5
20
-108.04
11
212.5
21
-108.04
0
LINE
8
0
10
214
20
-106.54
11
214
21
-105.54
0
LINE
8
0
10
215.5
20
-104.04
11
232.5
21
-104.04
0
LINE
8
0
10
234
20
-105.54
11
234
21
-107.54
0
LINE
8
0
10
235.5
20
-109.04
11
250.5
21
-109.04
0
LINE
8
0
10
252
20
-110.54
11
252
21
-111.54
0
LINE
8
0
10
253.5
20
-113.04
11
266.8
21
-113.04
0
LINE
8
0
10
268.3
20
-114.54
11
268.3
21
-169.1918616
0
LINE
8
0
10
269.3715573
20
-170.6293722
11
279.5963241
21
-173.676812
0
LINE
8
0
10
279.7419065
20
-173.7285033
11
284.5520511
21
-175.7209304
0
LINE
8
0
10
284.728026
20
-175.8077116
11
299.1574684
21
-184.138554
0
LINE
8
0
10
299.7065065
20
-186.1875921
11
292.0733212
21
-199.4086569
0
LINE
8
0
10
290.0298187
20
-199.9608753
11
275.1130343
21
-191.4331092
0
LINE
8
0
10
274.7567984
20
-191.2864389
11
259.0991128
21
-187.0909747
0
LINE
8
0
10
258.7143058
20
-187.0398673
11
223.9060546
21
-186.96047
0
ARC
8
0
10
205.7922015
20
-183.46
40
1.5
50
74.2257603
51
90
0
ARC
8
0
10
161.54
20
-180.46
40
1.5
50
180
51
270
0
ARC
8
0
10
161.54
20
-127.54
40
1.5
50
90
51
180
0
ARC
8
0
10
176.5
20
-124.54
40
1.5
50
270
51
0
0
ARC
8
0
10
179.5
20
-123.54
40
1.5
50
90
51
180
0
ARC
8
0
10
194.5
20
-120.54
40
1.5
50
270
51
0
0
ARC
8
0
10
197.5
20
-109.54
40
1.5
50
90
51
180
0
ARC
8
0
10
212.5
20
-106.54
40
1.5
50
270
51
0
0
ARC
8
0
10
215.5
20
-105.54
40
1.5
50
90
51
180
0
ARC
8
0
10
232.5
20
-105.54
40
1.5
50
0
51
90
0
ARC
8
0
10
235.5
20
-107.54
40
1.5
50
180
51
270
0
ARC
8
0
10
250.5
20
-110.54
40
1.5
50
0
51
90
0
ARC
8
0
10
253.5
20
-111.54
40
1.5
50
180
51
270
0
ARC
8
0
10
266.8
20
-114.54
40
1.5
50
0
51
90
0
ARC
8
0
10
269.8
20
-169.1918616
40
1.5
50
180
51
253.403579
0
ARC
8
0
10
279.1678813
20
-175.1143226
40
1.5
50
67.500001
51
73.403579
0
ARC
8
0
10
283.978026
20
-177.1067497
40
1.5
50
59.9999999
51
67.500001
0
ARC
8
0
10
298.4074684
20
-185.4375921
40
1.5
50
329.9999999
51
59.9999999
0
ARC
8
0
10
290.7742831
20
-198.6586569
40
1.5
50
240.2438561
51
329.9999999
0
ARC
8
0
10
274.3685699
20
-192.7353276
40
1.5
50
60.2438561
51
75.0000021
0
ARC
8
0
10
258.7108843
20
-188.5398634
40
1.5
50
75.0000021
51
89.8693082
0
ARC
8
0
10
223.9094761
20
-185.4604739
40
1.5
50
254.2257603
51
269.8693082
0
LINE
8
0
10
396.4982953
20
-186.9039844
11
413.8000271
21
-182.0164895
0
LINE
8
0
10
414.2077985
20
-181.96
11
458.46
21
-181.96
0
LINE
8
0
10
459.96
20
-180.46
11
459.96
21
-127.54
0
LINE
8
0
10
458.46
20
-126.04
11
443.5
21
-126.04
0
LINE
8
0
10
442
20
-124.54
11
442
21
-123.54
0
LINE
8
0
10
440.5
20
-122.04
11
425.5
21
-122.04
0
LINE
8
0
10
424
20
-120.54
11
424
21
-109.54
0
LINE
8
0
10
422.5
20
-108.04
11
407.5
21
-108.04
0
LINE
8
0
10
406
20
-106.54
11
406
21
-105.54
0
LINE
8
0
10
404.5
20
-104.04
11
387.5
21
-104.04
0
LINE
8
0
10
386
20
-105.54
11
386
21
-107.54
0
LINE
8
0
10
384.5
20
-109.04
11
369.5
21
-109.04
0
LINE
8
0
10
368
20
-110.54
11
368
21
-111.54
0
LINE
8
0
10
366.5
20
-113.04
11
353.2
21
-113.04
0
LINE
8
0
10
351.7
20
-114.54
11
351.7
21
-169.1918616
0
LINE
8
0
10
350.6284427
20
-170.6293722
11
340.4036759
21
-173.676812
0
LINE
8
0
10
340.2580935
20
-173.7285033
11
335.4479489
21
-175.7209304
0
LINE
8
0
10
335.271974
20
-175.8077116
11
320.8425316
21
-184.138554
0
LINE
8
0
10
320.2934935
20
-186.1875921
11
327.9266788
21
-199.4086569
0
LINE
8
0
10
329.9701813
20
-199.9608753
11
344.8869657
21
-191.4331092
0
LINE
8
0
10
345.2432016
20
-191.2864389
11
360.9008872
21
-187.0909747
0
LINE
8
0
10
361.2856942
20
-187.0398673
11
396.0939454
21
-186.96047
0
ARC
8
0
10
414.2077985
20
-183.46
40
1.5
50
90
51
105.7742397
0
ARC
8
0
10
458.46
20
-180.46
40
1.5
50
270
51
0
0
ARC
8
0
10
458.46
20
-127.54
40
1.5
50
0
51
90
0
ARC
8
0
10
443.5
20
-124.54
40
1.5
50
180
51
270
0
ARC
8
0
10
440.5
20
-123.54
40
1.5
50
0
51
90
0
ARC
8
0
10
425.5
20
-120.54
40
1.5
50
180
51
270
0
ARC
8
0
10
422.5
20
-109.54
40
1.5
50
0
51
90
0
ARC
8
0
10
407.5
20
-106.54
40
1.5
50
180
51
270
0
ARC
8
0
10
404.5
20
-105.54
40
1.5
50
0
51
90
0
ARC
8
0
10
387.5
20
-105.54
40
1.5
50
90
51
180
0
ARC
8
0
10
384.5
20
-107.54
40
1.5
50
270
51
0
0
ARC
8
0
10
369.5
20
-110.54
40
1.5
50
90
51
180
0
ARC
8
0
10
366.5
20
-111.54
40
1.5
50
270
51
0
0
ARC
8
0
10
353.2
20
-114.54
40
1.5
50
90
51
180
0
ARC
8
0
10
350.2
20
-169.1918616
40
1.5
50
286.596421
51
0
0
ARC
8
0
10
340.8321187
20
-175.1143226
40
1.5
50
106.596421
51
112.499999
0
ARC
8
0
10
336.021974
20
-177.1067497
40
1.5
50
112.499999
51
120.0000001
0
ARC
8
0
10
321.5925316
20
-185.4375921
40
1.5
50
120.0000001
51
210.0000001
0
ARC
8
0
10
329.2257169
20
-198.6586569
40
1.5
50
210.0000001
51
299.7561439
0
ARC
8
0
10
345.6314301
20
-192.7353276
40
1.5
50
104.9999979
51
119.7561439
0
ARC
8
0
10
361.2891157
20
-188.5398634
40
1.5
50
90.1306918
51
104.9999979
0
ARC
8
0
10
396.0905239
20
-185.4604739
40
1.5
50
270.1306918
51
285.7742397
0
LINE
8
0
10
163
20
-179
11
177
21
-179
0
LINE
8
0
10
177
20
-179
11
177
21
-165
0
LINE
8
0
10
177
20
-165
11
163
21
-165
0
LINE
8
0
10
163
20
-165
11
163
21
-179
0
LINE
8
0
10
163
20
-161
11
177
21
-161
0
LINE
8
0
10
177
20
-161
11
177
21
-147
0
LINE
8
0
10
177
20
-147
11
163
21
-147
0
LINE
8
0
10
163
20
-147
11
163
21
-161
0
LINE
8
0
10
163
20
-143
11
177
21
-143
0
LINE
8
0
10
177
20
-143
11
177
21
-129
0
LINE
8
0
10
177
20
-129
11
163
21
-129
0
LINE
8
0
10
163
20
-129
11
163
21
-143
0
LINE
8
0
10
181
20
-175
11
195
21
-175
0
LINE
8
0
10
195
20
-175
11
195
21
-161
0
LINE
8
0
10
195
20
-161
11
181
21
-161
0
LINE
8
0
10
181
20
-161
11
181
21
-175
0
LINE
8
0
10
181
20
-157
11
195
21
-157
0
LINE
8
0
10
195
20
-157
11
195
21
-143
0
LINE
8
0
10
195
20
-143
11
181
21
-143
0
LINE
8
0
10
181
20
-143
11
181
21
-157
0
LINE
8
0
10
181
20
-139
11
195
21
-139
0
LINE
8
0
10
195
20
-139
11
195
21
-125
0
LINE
8
0
10
195
20
-125
11
181
21
-125
0
LINE
8
0
10
181
20
-125
11
181
21
-139
0
LINE
8
0
10
199
20
-179
11
213
21
-179
0
LINE
8
0
10
213
20
-179
11
213
21
-165
0
LINE
8
0
10
213
20
-165
11
199
21
-165
0
LINE
8
0
10
199
20
-165
11
199
21
-179
0
LINE
8
0
10
199
20
-161
11
213
21
-161
0
LINE
8
0
10
213
20
-161
11
213
21
-147
0
LINE
8
0
10
213
20
-147
11
199
21
-147
0
LINE
8
0
10
199
20
-147
11
199
21
-161
0
LINE
8
0
10
199
20
-143
11
213
21
-143
0
LINE
8
0
10
213
20
-143
11
213
21
-129
0
LINE
8
0
10
213
20
-129
11
199
21
-129
0
LINE
8
0
10
199
20
-129
11
199
21
-143
0
LINE
8
0
10
199
20
-125
11
213
21
-125
0
LINE
8
0
10
213
20
-125
11
213
21
-111
0
LINE
8
0
10
213
20
-111
11
199
21
-111
0
LINE
8
0
10
199
20
-111
11
199
21
-125
0
LINE
8
0
10
217
20
-157
11
231
21
-157
0
LINE
8
0
10
231
20
-157
11
231
21
-143
0
LINE
8
0
10
231
20
-143
11
217
21
-143
0
LINE
8
0
10
217
20
-143
11
217
21
-157
0
LINE
8
0
10
217
20
-139
11
231
21
-139
0
LINE
8
0
10
231
20
-139
11
231
21
-125
0
LINE
8
0
10
231
20
-125
11
217
21
-125
0
LINE
8
0
10
217
20
-125
11
217
21
-139
0
LINE
8
0
10
217
20
-121
11
231
21
-121
0
LINE
8
0
10
231
20
-121
11
231
21
-107
0
LINE
8
0
10
231
20
-107
11
217
21
-107
0
LINE
8
0
10
217
20
-107
11
217
21
-121
0
LINE
8
0
10
235
20
-162
11
249
21
-162
0
LINE
8
0
10
249
20
-162
11
249
21
-148
0
LINE
8
0
10
249
20
-148
11
235
21
-148
0
LINE
8
0
10
235
20
-148
11
235
21
-162
0
LINE
8
0
10
235
20
-144
11
249
21
-144
0
LINE
8
0
10
249
20
-144
11
249
21
-130
0
LINE
8
0
10
249
20
-130
11
235
21
-130
0
LINE
8
0
10
235
20
-130
11
235
21
-144
0
LINE
8
0
10
235
20
-126
11
249
21
-126
0
LINE
8
0
10
249
20
-126
11
249
21
-112
0
LINE
8
0
10
249
20
-112
11
235
21
-112
0
LINE
8
0
10
235
20
-112
11
235
21
-126
0
LINE
8
0
10
253
20
-166
11
267
21
-166
0
LINE
8
0
10
267
20
-166
11
267
21
-152
0
LINE
8
0
10
267
20
-152
11
253
21
-152
0
LINE
8
0
10
253
20
-152
11
253
21
-166
0
LINE
8
0
10
253
20
-148
11
267
21
-148
0
LINE
8
0
10
267
20
-148
11
267
21
-134
0
LINE
8
0
10
267
20
-134
11
253
21
-134
0
LINE
8
0
10
253
20
-134
11
253
21
-148
0
LINE
8
0
10
253
20
-130
11
267
21
-130
0
LINE
8
0
10
267
20
-130
11
267
21
-116
0
LINE
8
0
10
267
20
-116
11
253
21
-116
0
LINE
8
0
10
253
20
-116
11
253
21
-130
0
LINE
8
0
10
225
20
-184
11
239
21
-184
0
LINE
8
0
10
239
20
-184
11
239
21
-170
0
LINE
8
0
10
239
20
-170
11
225
21
-170
0
LINE
8
0
10
225
20
-170
11
225
21
-184
0
LINE
8
0
10
243
20
-184
11
257
21
-184
0
LINE
8
0
10
257
20
-184
11
257
21
-170
0
LINE
8
0
10
257
20
-170
11
243
21
-170
0
LINE
8
0
10
243
20
-170
11
243
21
-184
0
LINE
8
0
10
260.9318517
20
-184.5176381
11
274.4548133
21
-188.1411047
0
LINE
8
0
10
274.4548133
20
-188.1411047
11
278.0782799
21
-174.6181431
0
LINE
8
0
10
278.0782799
20
-174.6181431
11
264.5553183
21
-170.9946765
0
LINE
8
0
10
264.5553183
20
-170.9946765
11
260.9318517
21
-184.5176381
0
LINE
8
0
10
278.1187157
20
-189.6587427
11
290.2430713
21
-196.6587427
0
LINE
8
0
10
290.2430713
20
-196.6587427
11
297.2430713
21
-184.5343871
0
LINE
8
0
10
297.2430713
20
-184.5343871
11
285.1187157
21
-177.5343871
0
LINE
8
0
10
285.1187157
20
-177.5343871
11
278.1187157
21
-189.6587427
0
LINE
8
0
10
443
20
-179
11
457
21
-179
0
LINE
8
0
10
457
20
-179
11
457
21
-165
0
LINE
8
0
10
457
20
-165
11
443
21
-165
0
LINE
8
0
10
443
20
-165
11
443
21
-179
0
LINE
8
0
10
443
20
-161
11
457
21
-161
0
LINE
8
0
10
457
20
-161
11
457
21
-147
0
LINE
8
0
10
457
20
-147
11
443
21
-147
0
LINE
8
0
10
443
20
-147
11
443
21
-161
0
LINE
8
0
10
443
20
-143
11
457
21
-143
0
LINE
8
0
10
457
20
-143
11
457
21
-129
0
LINE
8
0
10
457
20
-129
11
443
21
-129
0
LINE
8
0
10
443
20
-129
11
443
21
-143
0
LINE
8
0
10
425
20
-175
11
439
21
-175
0
LINE
8
0
10
439
20
-175
11
439
21
-161
0
LINE
8
0
10
439
20
-161
11
425
21
-161
0
LINE
8
0
10
425
20
-161
11
425
21
-175
0
LINE
8
0
10
425
20
-157
11
439
21
-157
0
LINE
8
0
10
439
20
-157
11
439
21
-143
0
LINE
8
0
10
439
20
-143
11
425
21
-143
0
LINE
8
0
10
425
20
-143
11
425
21
-157
0
LINE
8
0
10
425
20
-139
11
439
21
-139
0
LINE
8
0
10
439
20
-139
11
439
21
-125
0
LINE
8
0
10
439
20
-125
11
425
21
-125
0
LINE
8
0
10
425
20
-125
11
425
21
-139
0
LINE
8
0
10
407
20
-179
11
421
21
-179
0
LINE
8
0
10
421
20
-179
11
421
21
-165
0
LINE
8
0
10
421
20
-165
11
407
21
-165
0
LINE
8
0
10
407
20
-165
11
407
21
-179
0
LINE
8
0
10
407
20
-161
11
421
21
-161
0
LINE
8
0
10
421
20
-161
11
421
21
-147
0
LINE
8
0
10
421
20
-147
11
407
21
-147
0
LINE
8
0
10
407
20
-147
11
407
21
-161
0
LINE
8
0
10
407
20
-143
11
421
21
-143
0
LINE
8
0
10
421
20
-143
11
421
21
-129
0
LINE
8
0
10
421
20
-129
11
407
21
-129
0
LINE
8
0
10
407
20
-129
11
407
21
-143
0
LINE
8
0
10
407
20
-125
11
421
21
-125
0
LINE
8
0
10
421
20
-125
11
421
21
-111
0
LINE
8
0
10
421
20
-111
11
407
21
-111
0
LINE
8
0
10
407
20
-111
11
407
21
-125
0
LINE
8
0
10
389
20
-157
11
403
21
-157
0
LINE
8
0
10
403
20
-157
11
403
21
-143
0
LINE
8
0
10
403
20
-143
11
389
21
-143
0
LINE
8
0
10
389
20
-143
11
389
21
-157
0
LINE
8
0
10
389
20
-139
11
403
21
-139
0
LINE
8
0
10
403
20
-139
11
403
21
-125
0
LINE
8
0
10
403
20
-125
11
389
21
-125
0
LINE
8
0
10
389
20
-125
11
389
21
-139
0
LINE
8
0
10
389
20
-121
11
403
21
-121
0
LINE
8
0
10
403
20
-121
11
403
21
-107
0
LINE
8
0
10
403
20
-107
11
389
21
-107
0
LINE
8
0
10
389
20
-107
11
389
21
-121
0
LINE
8
0
10
371
20
-162
11
385
21
-162
0
LINE
8
0
10
385
20
-162
11
385
21
-148
0
LINE
8
0
10
385
20
-148
11
371
21
-148
0
LINE
8
0
10
371
20
-148
11
371
21
-162
0
LINE
8
0
10
371
20
-144
11
385
21
-144
0
LINE
8
0
10
385
20
-144
11
385
21
-130
0
LINE
8
0
10
385
20
-130
11
371
21
-130
0
LINE
8
0
10
371
20
-130
11
371
21
-144
0
LINE
8
0
10
371
20
-126
11
385
21
-126
0
LINE
8
0
10
385
20
-126
11
385
21
-112
0
LINE
8
0
10
385
20
-112
11
371
21
-112
0
LINE
8
0
10
371
20
-112
11
371
21
-126
0
LINE
8
0
10
353
20
-166
11
367
21
-166
0
LINE
8
0
10
367
20
-166
11
367
21
-152
0
LINE
8
0
10
367
20
-152
11
353
21
-152
0
LINE
8
0
10
353
20
-152
11
353
21
-166
0
LINE
8
0
10
353
20
-148
11
367
21
-148
0
LINE
8
0
10
367
20
-148
11
367
21
-134
0
LINE
8
0
10
367
20
-134
11
353
21
-134
0
LINE
8
0
10
353
20
-134
11
353
21
-148
0
LINE
8
0
10
353
20
-130
11
367
21
-130
0
LINE
8
0
10
367
20
-130
11
367
21
-116
0
LINE
8
0
10
367
20
-116
11
353
21
-116
0
LINE
8
0
10
353
20
-116
11
353
21
-130
0
LINE
8
0
10
381
20
-184
11
395
21
-184
0
LINE
8
0
10
395
20
-184
11
395
21
-170
0
LINE
8
0
10
395
20
-170
11
381
21
-170
0
LINE
8
0
10
381
20
-170
11
381
21
-184
0
LINE
8
0
10
363
20
-184
11
377
21
-184
0
LINE
8
0
10
377
20
-184
11
377
21
-170
0
LINE
8
0
10
377
20
-170
11
363
21
-170
0
LINE
8
0
10
363
20
-170
11
363
21
-184
0
LINE
8
0
10
345.5451867
20
-188.1411047
11
359.0681483
21
-184.5176381
0
LINE
8
0
10
359.0681483
20
-184.5176381
11
355.4446817
21
-170.9946765
0
LINE
8
0
10
355.4446817
20
-170.9946765
11
341.9217201
21
-174.6181431
0
LINE
8
0
10
341.9217201
20
-174.6181431
11
345.5451867
21
-188.1411047
0
LINE
8
0
10
329.7569287
20
-196.6587427
11
341.8812843
21
-189.6587427
0
LINE
8
0
10
341.8812843
20
-189.6587427
11
334.8812843
21
-177.5343871
0
LINE
8
0
10
334.8812843
20
-177.5343871
11
322.7569287
21
-184.5343871
0
LINE
8
0
10
322.7569287
20
-184.5343871
11
329.7569287
21
-196.6587427
0
ENDSEC
0
EOF